<?xml version="1.0" encoding="UTF-8"?>
<svg xmlns="http://www.w3.org/2000/svg"
     xmlns:xlink="http://www.w3.org/1999/xlink"
     xmlns:gadfly="http://www.gadflyjl.org/ns"
     version="1.2"
     width="304.8mm" height="304.8mm" viewBox="0 0 304.8 304.8"
     stroke="none"
     fill="#000000"
     stroke-width="0.3"
     font-size="3.88"
>
<g stroke="#000000" stroke-opacity="0.000" fill="#222831" id="img-504da741-1">
  <rect x="152.4" y="203.2" width="152.4" height="101.6"/>
</g>
<g class="plotroot xscalable yscalable" id="img-504da741-2">
  <g font-size="3.88" font-family="'PT Sans','Helvetica Neue','Helvetica',sans-serif" fill="#A1A1A1" stroke="#000000" stroke-opacity="0.000" id="img-504da741-3">
    <text x="235.85" y="293.19" text-anchor="middle" dy="0.6em">x</text>
  </g>
  <g class="guide xlabels" font-size="2.82" font-family="'PT Sans Caption','Helvetica Neue','Helvetica',sans-serif" fill="#A1A1A1" id="img-504da741-4">
    <text x="173.9" y="286.51" text-anchor="middle" dy="0.6em">0</text>
    <text x="204.87" y="286.51" text-anchor="middle" dy="0.6em">50</text>
    <text x="235.85" y="286.51" text-anchor="middle" dy="0.6em">100</text>
    <text x="266.82" y="286.51" text-anchor="middle" dy="0.6em">150</text>
    <text x="297.8" y="286.51" text-anchor="middle" dy="0.6em">200</text>
  </g>
<g clip-path="url(#img-504da741-5)">
  <g id="img-504da741-6">
    <g pointer-events="visible" opacity="1" fill="#222831" stroke="#000000" stroke-opacity="0.000" class="guide background" id="img-504da741-7">
      <rect x="171.9" y="213.81" width="127.9" height="71.7"/>
    </g>
    <g class="guide ygridlines xfixed" stroke-dasharray="0.5,0.5" stroke-width="0.2" stroke="#575757" id="img-504da741-8">
      <path fill="none" d="M171.9,283.51 L 299.8 283.51"/>
      <path fill="none" d="M171.9,266.59 L 299.8 266.59"/>
      <path fill="none" d="M171.9,249.66 L 299.8 249.66"/>
      <path fill="none" d="M171.9,232.74 L 299.8 232.74"/>
      <path fill="none" d="M171.9,215.81 L 299.8 215.81"/>
    </g>
    <g class="guide xgridlines yfixed" stroke-dasharray="0.5,0.5" stroke-width="0.2" stroke="#575757" id="img-504da741-9">
      <path fill="none" d="M173.9,213.81 L 173.9 285.51"/>
      <path fill="none" d="M204.87,213.81 L 204.87 285.51"/>
      <path fill="none" d="M235.85,213.81 L 235.85 285.51"/>
      <path fill="none" d="M266.82,213.81 L 266.82 285.51"/>
      <path fill="none" d="M297.8,213.81 L 297.8 285.51"/>
    </g>
    <g class="plotpanel" id="img-504da741-10">
      <g stroke-width="0.3" fill="#000000" fill-opacity="0.000" class="geometry" stroke-dasharray="none" stroke="#FE4365" id="img-504da741-11">
        <path fill="none" d="M174.52,279.05 L 175.14 232.27 175.76 232.24 176.38 232.24 177 232.24 177.62 232.24 178.24 232.24 178.86 232.24 179.47 232.21 180.09 232.36 180.71 232.22 181.33 232.15 181.95 232.1 182.57 232.08 183.19 232.05 183.81 232.05 184.43 232.05 185.05 232.08 185.67 232.14 186.29 232.25 186.91 232.24 187.53 232.24 188.15 232.24 188.77 232.24 189.39 232.24 190.01 232.24 190.63 232.24 191.25 232.24 191.86 232.24 192.48 232.24 193.1 232.24 193.72 232.24 194.34 232.22 194.96 232.37 195.58 232.34 196.2 232.28 196.82 232.26 197.44 232.17 198.06 232.1 198.68 232.07 199.3 232.06 199.92 232.08 200.54 232.14 201.16 232.24 201.78 232.24 202.4 232.24 203.02 232.24 203.64 232.24 204.25 232.24 204.87 232.24 205.49 232.24 206.11 232.24 206.73 232.24 207.35 232.24 207.97 232.24 208.59 232.24 209.21 232.22 209.83 232.37 210.45 232.29 211.07 232.18 211.69 232.2 212.31 232.19 212.93 232.12 213.55 232.09 214.17 232.06 214.79 232.08 215.41 232.11 216.03 232.24 216.64 232.24 217.26 232.24 217.88 232.24 218.5 232.24 219.12 232.24 219.74 232.24 220.36 232.24 220.98 232.24 221.6 232.24 222.22 232.24 222.84 232.24 223.46 232.24 224.08 232.21 224.7 232.38 225.32 232.28 225.94 232.25 226.56 232.29 227.18 232.24 227.8 232.12 228.42 232.09 229.04 232.06 229.65 232.08 230.27 232.11 230.89 232.24 231.51 232.24 232.13 232.24 232.75 232.24 233.37 232.24 233.99 232.24 234.61 232.24 235.23 232.24 235.85 232.24 236.47 232.24 237.09 232.24 237.71 232.24 238.33 232.23 238.95 232.21 239.57 232.14 240.19 232.02 240.81 232.12 241.43 232.27 242.04 232.12 242.66 232.04 243.28 232.02 243.9 232.02 244.52 232.05 245.14 232.1 245.76 232.24 246.38 232.24 247 232.24 247.62 232.24 248.24 232.24 248.86 232.24 249.48 232.24 250.1 232.23 250.72 232.1 251.34 232.24 251.96 232.23 252.58 232.23 253.2 232.2 253.82 232.14 254.43 232.07 255.05 232.03 255.67 232.03 256.29 232.05 256.91 232.05 257.53 232.02 258.15 232.02 258.77 232.05 259.39 232.37 260.01 232.33 260.63 232.16 261.25 232.22 261.87 232.14 262.49 232.22 263.11 232.24 263.73 232.24 264.35 232.24 264.97 232.24 265.59 232.24 266.21 232.24 266.82 232.24 267.44 232.24 268.06 232.24 268.68 232.21 269.3 232.05 269.92 232.04 270.54 232.04 271.16 232.04 271.78 232.04 272.4 227.58 273.02 227.57 273.64 227.58 274.26 227.61 274.88 227.66 275.5 232.3 276.12 232.26 276.74 232.27 277.36 232.27 277.98 232.32"/>
      </g>
    </g>
  </g>
</g>
  <g class="guide ylabels" font-size="2.82" font-family="'PT Sans Caption','Helvetica Neue','Helvetica',sans-serif" fill="#A1A1A1" id="img-504da741-12">
    <text x="170.9" y="283.51" text-anchor="end" dy="0.35em">950</text>
    <text x="170.9" y="266.59" text-anchor="end" dy="0.35em">1000</text>
    <text x="170.9" y="249.66" text-anchor="end" dy="0.35em">1050</text>
    <text x="170.9" y="232.74" text-anchor="end" dy="0.35em">1100</text>
    <text x="170.9" y="215.81" text-anchor="end" dy="0.35em">1150</text>
  </g>
  <g font-size="3.88" font-family="'PT Sans','Helvetica Neue','Helvetica',sans-serif" fill="#A1A1A1" stroke="#000000" stroke-opacity="0.000" id="img-504da741-13">
    <text x="161.21" y="249.66" text-anchor="end" dy="0.35em">y</text>
  </g>
  <g font-size="3.88" font-family="'PT Sans','Helvetica Neue','Helvetica',sans-serif" fill="#A1A1A1" stroke="#000000" stroke-opacity="0.000" id="img-504da741-14">
    <text x="235.85" y="208.2" text-anchor="middle" dy="0.6em">Moisture Removed by Dehumidification</text>
  </g>
</g>
<g stroke="#000000" stroke-opacity="0.000" fill="#222831" id="img-504da741-15">
  <rect x="0" y="203.2" width="152.4" height="101.6"/>
</g>
<g class="plotroot xscalable yscalable" id="img-504da741-16">
  <g font-size="3.88" font-family="'PT Sans','Helvetica Neue','Helvetica',sans-serif" fill="#A1A1A1" stroke="#000000" stroke-opacity="0.000" id="img-504da741-17">
    <text x="84.62" y="293.19" text-anchor="middle" dy="0.6em">x</text>
  </g>
  <g class="guide xlabels" font-size="2.82" font-family="'PT Sans Caption','Helvetica Neue','Helvetica',sans-serif" fill="#A1A1A1" id="img-504da741-18">
    <text x="23.85" y="286.51" text-anchor="middle" dy="0.6em">0</text>
    <text x="54.23" y="286.51" text-anchor="middle" dy="0.6em">50</text>
    <text x="84.62" y="286.51" text-anchor="middle" dy="0.6em">100</text>
    <text x="115.01" y="286.51" text-anchor="middle" dy="0.6em">150</text>
    <text x="145.4" y="286.51" text-anchor="middle" dy="0.6em">200</text>
  </g>
<g clip-path="url(#img-504da741-19)">
  <g id="img-504da741-20">
    <g pointer-events="visible" opacity="1" fill="#222831" stroke="#000000" stroke-opacity="0.000" class="guide background" id="img-504da741-21">
      <rect x="21.85" y="213.81" width="125.55" height="71.7"/>
    </g>
    <g class="guide ygridlines xfixed" stroke-dasharray="0.5,0.5" stroke-width="0.2" stroke="#575757" id="img-504da741-22">
      <path fill="none" d="M21.85,283.51 L 147.4 283.51"/>
      <path fill="none" d="M21.85,260.95 L 147.4 260.95"/>
      <path fill="none" d="M21.85,238.38 L 147.4 238.38"/>
      <path fill="none" d="M21.85,215.81 L 147.4 215.81"/>
    </g>
    <g class="guide xgridlines yfixed" stroke-dasharray="0.5,0.5" stroke-width="0.2" stroke="#575757" id="img-504da741-23">
      <path fill="none" d="M23.85,213.81 L 23.85 285.51"/>
      <path fill="none" d="M54.23,213.81 L 54.23 285.51"/>
      <path fill="none" d="M84.62,213.81 L 84.62 285.51"/>
      <path fill="none" d="M115.01,213.81 L 115.01 285.51"/>
      <path fill="none" d="M145.4,213.81 L 145.4 285.51"/>
    </g>
    <g class="plotpanel" id="img-504da741-24">
      <g stroke-width="0.3" fill="#000000" fill-opacity="0.000" class="geometry" stroke-dasharray="none" stroke="#FE4365" id="img-504da741-25">
        <path fill="none" d="M23.85,283.51 L 24.45 238.38 25.06 238.38 25.67 238.38 26.28 238.38 26.88 238.38 27.49 238.38 28.1 238.38 28.71 238.38 29.32 238.35 29.92 238.35 30.53 238.34 31.14 238.32 31.75 238.33 32.35 238.33 32.96 238.33 33.57 238.3 34.18 238.05 34.79 237.97 35.39 238.2 36 238.27 36.61 238.31 37.22 238.38 37.82 238.38 38.43 238.38 39.04 238.38 39.65 238.38 40.26 238.38 40.86 238.38 41.47 238.38 42.08 238.38 42.69 238.38 43.29 238.38 43.9 238.37 44.51 238.11 45.12 236.4 45.73 236.13 46.33 237.69 46.94 236.65 47.55 236.63 48.16 236.64 48.76 236.64 49.37 236.56 49.98 237.76 50.59 238.36 51.2 238.32 51.8 238.36 52.41 238.37 53.02 238.37 53.63 238.38 54.23 238.38 54.84 238.38 55.45 238.38 56.06 238.38 56.67 238.38 57.27 238.38 57.88 238.28 58.49 237.96 59.1 237.49 59.7 236.12 60.31 236.12 60.92 237.73 61.53 236.62 62.14 236.62 62.74 236.61 63.35 236.6 63.96 236.52 64.57 238.23 65.17 238.37 65.78 238.37 66.39 238.35 67 238.33 67.61 238.35 68.21 238.37 68.82 238.36 69.43 238.38 70.04 238.37 70.64 238.38 71.25 238.38 71.86 238.38 72.47 238.19 73.08 237.97 73.68 237.45 74.29 236.11 74.9 236.11 75.51 237.7 76.11 236.65 76.72 236.63 77.33 236.63 77.94 236.62 78.55 236.51 79.15 238.34 79.76 238.37 80.37 238.38 80.98 238.38 81.58 238.33 82.19 238.38 82.8 237.53 83.41 237.07 84.02 237.15 84.62 237.03 85.23 237.01 85.84 237.05 86.45 237.05 87.05 236.75 87.66 236.49 88.27 236.07 88.88 235.32 89.49 235.22 90.09 236.32 90.7 235.71 91.31 235.67 91.92 235.64 92.52 235.54 93.13 235.76 93.74 237.94 94.35 238.37 94.96 238.32 95.56 237.33 96.17 237.08 96.78 237.09 97.39 237.88 97.99 238.38 98.6 238.38 99.21 238.38 99.82 238.38 100.42 238.38 101.03 238.38 101.64 237.98 102.25 237.91 102.86 237.43 103.46 236.17 104.07 236.15 104.68 237.68 105.29 236.68 105.89 236.65 106.5 236.65 107.11 236.63 107.72 236.58 108.33 238.3 108.93 238.29 109.54 238.25 110.15 238.31 110.76 238.33 111.36 238.28 111.97 238.38 112.58 238.38 113.19 238.38 113.8 238.38 114.4 238.38 115.01 238.38 115.62 238.38 116.23 238.24 116.83 237.93 117.44 237.41 118.05 235.96 118.66 235.77 119.27 237.24 119.87 236.12 120.48 236.04 121.09 236.05 121.7 236.11 122.3 236.36 122.91 238.35 123.52 238.26 124.13 238.14 124.74 238.32 125.34 237.4"/>
      </g>
    </g>
  </g>
</g>
  <g class="guide ylabels" font-size="2.82" font-family="'PT Sans Caption','Helvetica Neue','Helvetica',sans-serif" fill="#A1A1A1" id="img-504da741-26">
    <text x="20.85" y="283.51" text-anchor="end" dy="0.35em">0.0050</text>
    <text x="20.85" y="260.95" text-anchor="end" dy="0.35em">0.0055</text>
    <text x="20.85" y="238.38" text-anchor="end" dy="0.35em">0.0060</text>
    <text x="20.85" y="215.81" text-anchor="end" dy="0.35em">0.0065</text>
  </g>
  <g font-size="3.88" font-family="'PT Sans','Helvetica Neue','Helvetica',sans-serif" fill="#A1A1A1" stroke="#000000" stroke-opacity="0.000" id="img-504da741-27">
    <text x="8.81" y="249.66" text-anchor="end" dy="0.35em">y</text>
  </g>
  <g font-size="3.88" font-family="'PT Sans','Helvetica Neue','Helvetica',sans-serif" fill="#A1A1A1" stroke="#000000" stroke-opacity="0.000" id="img-504da741-28">
    <text x="84.62" y="208.2" text-anchor="middle" dy="0.6em">Humidity Ratio (kg Water / kg dry air)</text>
  </g>
</g>
<g stroke="#000000" stroke-opacity="0.000" fill="#222831" id="img-504da741-29">
  <rect x="152.4" y="101.6" width="152.4" height="101.6"/>
</g>
<g class="plotroot xscalable yscalable" id="img-504da741-30">
  <g font-size="3.88" font-family="'PT Sans','Helvetica Neue','Helvetica',sans-serif" fill="#A1A1A1" stroke="#000000" stroke-opacity="0.000" id="img-504da741-31">
    <text x="237.39" y="191.59" text-anchor="middle" dy="0.6em">x</text>
  </g>
  <g class="guide xlabels" font-size="2.82" font-family="'PT Sans Caption','Helvetica Neue','Helvetica',sans-serif" fill="#A1A1A1" id="img-504da741-32">
    <text x="176.97" y="184.91" text-anchor="middle" dy="0.6em">0</text>
    <text x="207.18" y="184.91" text-anchor="middle" dy="0.6em">50</text>
    <text x="237.39" y="184.91" text-anchor="middle" dy="0.6em">100</text>
    <text x="267.59" y="184.91" text-anchor="middle" dy="0.6em">150</text>
    <text x="297.8" y="184.91" text-anchor="middle" dy="0.6em">200</text>
  </g>
<g clip-path="url(#img-504da741-33)">
  <g id="img-504da741-34">
    <g pointer-events="visible" opacity="1" fill="#222831" stroke="#000000" stroke-opacity="0.000" class="guide background" id="img-504da741-35">
      <rect x="174.97" y="112.21" width="124.83" height="71.7"/>
    </g>
    <g class="guide ygridlines xfixed" stroke-dasharray="0.5,0.5" stroke-width="0.2" stroke="#575757" id="img-504da741-36">
      <path fill="none" d="M174.97,181.91 L 299.8 181.91"/>
      <path fill="none" d="M174.97,164.99 L 299.8 164.99"/>
      <path fill="none" d="M174.97,148.06 L 299.8 148.06"/>
      <path fill="none" d="M174.97,131.14 L 299.8 131.14"/>
      <path fill="none" d="M174.97,114.21 L 299.8 114.21"/>
    </g>
    <g class="guide xgridlines yfixed" stroke-dasharray="0.5,0.5" stroke-width="0.2" stroke="#575757" id="img-504da741-37">
      <path fill="none" d="M176.97,112.21 L 176.97 183.91"/>
      <path fill="none" d="M207.18,112.21 L 207.18 183.91"/>
      <path fill="none" d="M237.39,112.21 L 237.39 183.91"/>
      <path fill="none" d="M267.59,112.21 L 267.59 183.91"/>
      <path fill="none" d="M297.8,112.21 L 297.8 183.91"/>
    </g>
    <g class="plotpanel" id="img-504da741-38">
      <g stroke-width="0.3" fill="#000000" fill-opacity="0.000" class="geometry" stroke-dasharray="none" stroke="#FE4365" id="img-504da741-39">
        <path fill="none" d="M177.58,165.48 L 178.18 129.16 178.78 157.64 179.39 158.89 179.99 159.55 180.6 159.97 181.2 160.24 181.81 160.37 182.41 160.26 183.01 150.56 183.62 149.52 184.22 149.02 184.83 148.15 185.43 147.16 186.03 146.77 186.64 146.56 187.24 145.51 187.85 145.59 188.45 152.71 189.06 153.87 189.66 154.54 190.26 159.8 190.87 160.81 191.47 161.04 192.08 161.23 192.68 161.34 193.28 161.37 193.89 161.38 194.49 161.38 195.1 161.36 195.7 161.31 196.3 161.21 196.91 160.92 197.51 153.84 198.12 151.3 198.72 149.69 199.33 148.22 199.93 147.63 200.53 146.73 201.14 146.31 201.74 145.95 202.35 145.61 202.95 152.62 203.55 153.59 204.16 154.73 204.76 156.66 205.37 160.78 205.97 160.91 206.58 160.98 207.18 161.01 207.78 161.04 208.39 161.05 208.99 161.06 209.6 161.05 210.2 161.03 210.8 160.97 211.41 160.75 212.01 156.67 212.62 154.13 213.22 152.02 213.82 150.31 214.43 148.58 215.03 147.1 215.64 146.41 216.24 145.93 216.85 145.73 217.45 150.6 218.05 153.79 218.66 155.36 219.26 158.37 219.87 160.69 220.47 160.79 221.07 160.86 221.68 160.91 222.28 160.94 222.89 160.97 223.49 160.99 224.1 160.97 224.7 160.95 225.3 160.89 225.91 160.67 226.51 157.37 227.12 154.92 227.72 153.34 228.32 151.85 228.93 150.19 229.53 148.26 230.14 147.33 230.74 146.45 231.34 145.97 231.95 149.47 232.55 154.31 233.16 155.88 233.76 158.41 234.37 159.4 234.97 159.71 235.57 160.3 236.18 160.9 236.78 162.89 237.39 162.87 237.99 163.04 238.59 163.08 239.2 163.07 239.8 163.04 240.41 162.93 241.01 162.8 241.62 162.76 242.22 162.8 242.82 162.87 243.43 162.89 244.03 162.86 244.64 162.91 245.24 162.99 245.84 162.87 246.45 162.06 247.05 158.2 247.66 159.34 248.26 160.83 248.86 161.14 249.47 162.67 250.07 162.46 250.68 161.57 251.28 160.97 251.89 161.05 252.49 161.09 253.09 161.07 253.7 161.03 254.3 160.86 254.91 160.55 255.51 154.1 256.11 149.07 256.72 148.2 257.32 147.33 257.93 146.54 258.53 145.82 259.14 145.32 259.74 146.07 260.34 145.96 260.95 152.76 261.55 157.4 262.16 158.11 262.76 158.51 263.36 158.8 263.97 159.13 264.57 159.93 265.18 160.27 265.78 160.38 266.38 160.43 266.99 160.44 267.59 160.39 268.2 160.29 268.8 160.11 269.41 159.37 270.01 149.58 270.61 145.92 271.22 143.92 271.82 142.47 272.43 139.89 273.03 135.72 273.63 132.67 274.24 130.73 274.84 129.31 275.45 132.58 276.05 140.86 276.66 141.57 277.26 143.1 277.86 150.67 278.47 156.23"/>
      </g>
    </g>
  </g>
</g>
  <g class="guide ylabels" font-size="2.82" font-family="'PT Sans Caption','Helvetica Neue','Helvetica',sans-serif" fill="#A1A1A1" id="img-504da741-40">
    <text x="173.97" y="181.91" text-anchor="end" dy="0.35em">0</text>
    <text x="173.97" y="164.99" text-anchor="end" dy="0.35em">1×10³</text>
    <text x="173.97" y="148.06" text-anchor="end" dy="0.35em">2×10³</text>
    <text x="173.97" y="131.14" text-anchor="end" dy="0.35em">3×10³</text>
    <text x="173.97" y="114.21" text-anchor="end" dy="0.35em">4×10³</text>
  </g>
  <g font-size="3.88" font-family="'PT Sans','Helvetica Neue','Helvetica',sans-serif" fill="#A1A1A1" stroke="#000000" stroke-opacity="0.000" id="img-504da741-41">
    <text x="161.21" y="148.06" text-anchor="end" dy="0.35em">y</text>
  </g>
  <g font-size="3.88" font-family="'PT Sans','Helvetica Neue','Helvetica',sans-serif" fill="#A1A1A1" stroke="#000000" stroke-opacity="0.000" id="img-504da741-42">
    <text x="237.39" y="106.6" text-anchor="middle" dy="0.6em">PM2.5 Removed by Filters</text>
  </g>
</g>
<g stroke="#000000" stroke-opacity="0.000" fill="#222831" id="img-504da741-43">
  <rect x="0" y="101.6" width="152.4" height="101.6"/>
</g>
<g class="plotroot xscalable yscalable" id="img-504da741-44">
  <g font-size="3.88" font-family="'PT Sans','Helvetica Neue','Helvetica',sans-serif" fill="#A1A1A1" stroke="#000000" stroke-opacity="0.000" id="img-504da741-45">
    <text x="81.78" y="191.59" text-anchor="middle" dy="0.6em">x</text>
  </g>
  <g class="guide xlabels" font-size="2.82" font-family="'PT Sans Caption','Helvetica Neue','Helvetica',sans-serif" fill="#A1A1A1" id="img-504da741-46">
    <text x="18.15" y="184.91" text-anchor="middle" dy="0.6em">0</text>
    <text x="49.96" y="184.91" text-anchor="middle" dy="0.6em">50</text>
    <text x="81.78" y="184.91" text-anchor="middle" dy="0.6em">100</text>
    <text x="113.59" y="184.91" text-anchor="middle" dy="0.6em">150</text>
    <text x="145.4" y="184.91" text-anchor="middle" dy="0.6em">200</text>
  </g>
<g clip-path="url(#img-504da741-47)">
  <g id="img-504da741-48">
    <g pointer-events="visible" opacity="1" fill="#222831" stroke="#000000" stroke-opacity="0.000" class="guide background" id="img-504da741-49">
      <rect x="16.15" y="112.21" width="131.25" height="71.7"/>
    </g>
    <g class="guide ygridlines xfixed" stroke-dasharray="0.5,0.5" stroke-width="0.2" stroke="#575757" id="img-504da741-50">
      <path fill="none" d="M16.15,181.91 L 147.4 181.91"/>
      <path fill="none" d="M16.15,164.99 L 147.4 164.99"/>
      <path fill="none" d="M16.15,148.06 L 147.4 148.06"/>
      <path fill="none" d="M16.15,131.14 L 147.4 131.14"/>
      <path fill="none" d="M16.15,114.21 L 147.4 114.21"/>
    </g>
    <g class="guide xgridlines yfixed" stroke-dasharray="0.5,0.5" stroke-width="0.2" stroke="#575757" id="img-504da741-51">
      <path fill="none" d="M18.15,112.21 L 18.15 183.91"/>
      <path fill="none" d="M49.96,112.21 L 49.96 183.91"/>
      <path fill="none" d="M81.78,112.21 L 81.78 183.91"/>
      <path fill="none" d="M113.59,112.21 L 113.59 183.91"/>
      <path fill="none" d="M145.4,112.21 L 145.4 183.91"/>
    </g>
    <g class="plotpanel" id="img-504da741-52">
      <g stroke-width="0.3" fill="#000000" fill-opacity="0.000" class="geometry" stroke-dasharray="none" stroke="#FE4365" id="img-504da741-53">
        <path fill="none" d="M18.15,131.14 L 18.79 152.31 19.42 153.56 20.06 154.95 20.7 156.08 21.33 157.28 21.97 158.41 22.61 159.49 23.24 160.54 23.88 159.85 24.51 160.57 25.15 161.32 25.79 162.74 26.42 164.71 27.06 165.31 27.7 163.55 28.33 161.61 28.97 161.97 29.6 162.41 30.24 162.78 30.88 163.12 31.51 163.43 32.15 165.74 32.79 166.85 33.42 167.49 34.06 168.09 34.69 168.52 35.33 169.06 35.97 169.58 36.6 170.09 37.24 170.69 37.88 171.32 38.51 171.98 39.15 170.8 39.78 160.82 40.42 160.86 41.06 160.91 41.69 160.95 42.33 161.01 42.97 161.06 43.6 161.11 44.24 161.15 44.87 161.29 45.51 161.38 46.15 161.44 46.78 161.49 47.42 162.49 48.06 163.21 48.69 163.75 49.33 164.85 49.96 165.72 50.6 166.53 51.24 167.32 51.87 168.15 52.51 169.05 53.15 170.21 53.78 166.62 54.42 166.83 55.05 161.25 55.69 161.26 56.33 161.27 56.96 161.46 57.6 161.31 58.24 161.33 58.87 161.36 59.51 161.37 60.14 161.38 60.78 161.48 61.42 161.74 62.05 161.98 62.69 161.64 63.33 161.78 63.96 161.9 64.6 161.96 65.23 161.98 65.87 163.11 66.51 163.77 67.14 165.23 67.78 167.23 68.42 169.79 69.05 165.88 69.69 166.55 70.32 161.27 70.96 161.27 71.6 161.28 72.23 161.29 72.87 161.31 73.51 161.33 74.14 161.35 74.78 161.36 75.41 161.37 76.05 161.35 76.69 161.47 77.32 161.81 77.96 162.16 78.6 161.6 79.23 162.1 79.87 161.31 80.5 162.29 81.14 161.54 81.78 162.95 82.41 164.74 83.05 164.26 83.68 163.5 84.32 162.99 84.96 163.26 85.59 163.37 86.23 163.04 86.87 163.12 87.5 162.93 88.14 162.99 88.77 164.57 89.41 165.37 90.05 162.91 90.68 162.42 91.32 161.74 91.96 162.12 92.59 162.24 93.23 161.89 93.86 162.93 94.5 163.43 95.14 162.01 95.77 162.56 96.41 163.17 97.05 163.7 97.68 164.32 98.32 164.93 98.95 165.57 99.59 164.34 100.23 163.16 100.86 161.96 101.5 162.02 102.14 162.09 102.77 162.17 103.41 162.27 104.04 162.38 104.68 162.5 105.32 162.62 105.95 162.87 106.59 163.09 107.23 163.3 107.86 163.53 108.5 163.78 109.13 164.05 109.77 164.37 110.41 165.64 111.04 166.94 111.68 168.41 112.32 170.03 112.95 171.85 113.59 173.82 114.22 175.83 114.86 173.55 115.5 171.5 116.13 159.51 116.77 154.53 117.41 157.6 118.04 157.45 118.68 152.45 119.31 152.29 119.95 152.29 120.59 152.29 121.22 152.3 121.86 153.01 122.5 152.84 123.13 152.29 123.77 152.29 124.4 152.29"/>
      </g>
    </g>
  </g>
</g>
  <g class="guide ylabels" font-size="2.82" font-family="'PT Sans Caption','Helvetica Neue','Helvetica',sans-serif" fill="#A1A1A1" id="img-504da741-54">
    <text x="15.15" y="181.91" text-anchor="end" dy="0.35em">0</text>
    <text x="15.15" y="164.99" text-anchor="end" dy="0.35em">20</text>
    <text x="15.15" y="148.06" text-anchor="end" dy="0.35em">40</text>
    <text x="15.15" y="131.14" text-anchor="end" dy="0.35em">60</text>
    <text x="15.15" y="114.21" text-anchor="end" dy="0.35em">80</text>
  </g>
  <g font-size="3.88" font-family="'PT Sans','Helvetica Neue','Helvetica',sans-serif" fill="#A1A1A1" stroke="#000000" stroke-opacity="0.000" id="img-504da741-55">
    <text x="8.81" y="148.06" text-anchor="end" dy="0.35em">y</text>
  </g>
  <g font-size="3.88" font-family="'PT Sans','Helvetica Neue','Helvetica',sans-serif" fill="#A1A1A1" stroke="#000000" stroke-opacity="0.000" id="img-504da741-56">
    <text x="81.78" y="106.6" text-anchor="middle" dy="0.6em">PM2.5 Concentration (µg)</text>
  </g>
</g>
<g stroke="#000000" stroke-opacity="0.000" fill="#222831" id="img-504da741-57">
  <rect x="152.4" y="0" width="152.4" height="101.6"/>
</g>
<g class="plotroot xscalable yscalable" id="img-504da741-58">
  <g font-size="3.88" font-family="'PT Sans','Helvetica Neue','Helvetica',sans-serif" fill="#A1A1A1" stroke="#000000" stroke-opacity="0.000" id="img-504da741-59">
    <text x="235.85" y="89.99" text-anchor="middle" dy="0.6em">x</text>
  </g>
  <g class="guide xlabels" font-size="2.82" font-family="'PT Sans Caption','Helvetica Neue','Helvetica',sans-serif" fill="#A1A1A1" id="img-504da741-60">
    <text x="173.9" y="83.31" text-anchor="middle" dy="0.6em">0</text>
    <text x="204.87" y="83.31" text-anchor="middle" dy="0.6em">50</text>
    <text x="235.85" y="83.31" text-anchor="middle" dy="0.6em">100</text>
    <text x="266.82" y="83.31" text-anchor="middle" dy="0.6em">150</text>
    <text x="297.8" y="83.31" text-anchor="middle" dy="0.6em">200</text>
  </g>
<g clip-path="url(#img-504da741-61)">
  <g id="img-504da741-62">
    <g pointer-events="visible" opacity="1" fill="#222831" stroke="#000000" stroke-opacity="0.000" class="guide background" id="img-504da741-63">
      <rect x="171.9" y="10.61" width="127.9" height="71.7"/>
    </g>
    <g class="guide ygridlines xfixed" stroke-dasharray="0.5,0.5" stroke-width="0.2" stroke="#575757" id="img-504da741-64">
      <path fill="none" d="M171.9,80.31 L 299.8 80.31"/>
      <path fill="none" d="M171.9,46.46 L 299.8 46.46"/>
      <path fill="none" d="M171.9,12.61 L 299.8 12.61"/>
    </g>
    <g class="guide xgridlines yfixed" stroke-dasharray="0.5,0.5" stroke-width="0.2" stroke="#575757" id="img-504da741-65">
      <path fill="none" d="M173.9,10.61 L 173.9 82.31"/>
      <path fill="none" d="M204.87,10.61 L 204.87 82.31"/>
      <path fill="none" d="M235.85,10.61 L 235.85 82.31"/>
      <path fill="none" d="M266.82,10.61 L 266.82 82.31"/>
      <path fill="none" d="M297.8,10.61 L 297.8 82.31"/>
    </g>
    <g class="plotpanel" id="img-504da741-66">
      <g stroke-width="0.3" fill="#000000" fill-opacity="0.000" class="geometry" stroke-dasharray="none" stroke="#FE4365" id="img-504da741-67">
        <path fill="none" d="M173.9,53.23 L 174.52 70.35 175.14 71.49 175.76 72.43 176.38 73.27 177 74.08 177.62 74.95 178.24 75.99 178.86 75.61 179.47 72.55 180.09 71.14 180.71 69.94 181.33 69.66 181.95 69.73 182.57 66.52 183.19 62.67 183.81 60.9 184.43 59.24 185.05 57.46 185.67 62.22 186.29 64.28 186.91 65.55 187.53 66.12 188.15 66.63 188.77 67.11 189.39 67.55 190.01 67.99 190.63 68.41 191.25 68.81 191.86 69.17 192.48 69.58 193.1 70.11 193.72 67.59 194.34 59.7 194.96 50.35 195.58 49.77 196.2 50.58 196.82 51.35 197.44 49.88 198.06 49.06 198.68 48.54 199.3 47.78 199.92 47.98 200.54 56.21 201.16 57.76 201.78 59.63 202.4 60.52 203.02 61 203.64 61.44 204.25 61.75 204.87 62.06 205.49 62.37 206.11 62.69 206.73 63.05 207.35 63.46 207.97 63.98 208.59 58.47 209.21 55.26 209.83 50.11 210.45 49.79 211.07 50.6 211.69 50.73 212.31 49.91 212.93 49.09 213.55 48.56 214.17 47.64 214.79 47.73 215.41 52.55 216.03 53.62 216.64 54.3 217.26 55.43 217.88 56.71 218.5 57.62 219.12 58.05 219.74 58.79 220.36 59.1 220.98 59.53 221.6 59.88 222.22 60.29 222.84 60.81 223.46 57.32 224.08 54.52 224.7 50.34 225.32 49.78 225.94 50.59 226.56 51.35 227.18 49.9 227.8 49.08 228.42 48.55 229.04 47.37 229.65 47.42 230.27 49.33 230.89 50.24 231.51 50.81 232.13 51.3 232.75 52.91 233.37 53.34 233.99 59.42 234.61 60.16 235.23 60.58 235.85 61.15 236.47 61.65 237.09 62.27 237.71 63.28 238.33 61.12 238.95 59.19 239.57 56.4 240.19 53.04 240.81 53.77 241.43 57.16 242.04 53.05 242.66 51.96 243.28 51.62 243.9 50.57 244.52 49.82 245.14 56.09 245.76 56.56 246.38 57.57 247 58.58 247.62 59.28 248.24 59.84 248.86 60.82 249.48 61.06 250.1 61.34 250.72 61.66 251.34 62.01 251.96 62.42 252.58 62.95 253.2 60.37 253.82 55.98 254.43 50.71 255.05 49.75 255.67 50.56 256.29 51.58 256.91 49.86 257.53 49.03 258.15 48.49 258.77 47.91 259.39 47.89 260.01 50.88 260.63 53.39 261.25 56.14 261.87 57.54 262.49 58.4 263.11 59.71 263.73 59.86 264.35 59.99 264.97 60.07 265.59 60.1 266.21 60.12 266.82 60.12 267.44 60.12 268.06 52.1 268.68 38.97 269.3 25.2 269.92 21.15 270.54 20.01 271.16 18.84 271.78 13.47 272.4 12.76 273.02 14.01 273.64 14.14 274.26 16.14 274.88 17.66 275.5 21.42 276.12 27.87 276.74 29.9 277.36 31.59"/>
      </g>
    </g>
  </g>
</g>
  <g class="guide ylabels" font-size="2.82" font-family="'PT Sans Caption','Helvetica Neue','Helvetica',sans-serif" fill="#A1A1A1" id="img-504da741-68">
    <text x="170.9" y="80.31" text-anchor="end" dy="0.35em">0</text>
    <text x="170.9" y="46.46" text-anchor="end" dy="0.35em">500</text>
    <text x="170.9" y="12.61" text-anchor="end" dy="0.35em">1000</text>
  </g>
  <g font-size="3.88" font-family="'PT Sans','Helvetica Neue','Helvetica',sans-serif" fill="#A1A1A1" stroke="#000000" stroke-opacity="0.000" id="img-504da741-69">
    <text x="161.21" y="46.46" text-anchor="end" dy="0.35em">y</text>
  </g>
  <g font-size="3.88" font-family="'PT Sans','Helvetica Neue','Helvetica',sans-serif" fill="#A1A1A1" stroke="#000000" stroke-opacity="0.000" id="img-504da741-70">
    <text x="235.85" y="5" text-anchor="middle" dy="0.6em">CO2 Concentration inside room (ppm)</text>
  </g>
</g>
<g stroke="#000000" stroke-opacity="0.000" fill="#222831" id="img-504da741-71">
  <rect x="0" y="0" width="152.4" height="101.6"/>
</g>
<g class="plotroot xscalable yscalable" id="img-504da741-72">
  <g font-size="3.88" font-family="'PT Sans','Helvetica Neue','Helvetica',sans-serif" fill="#A1A1A1" stroke="#000000" stroke-opacity="0.000" id="img-504da741-73">
    <text x="83.45" y="89.99" text-anchor="middle" dy="0.6em">x</text>
  </g>
  <g class="guide xlabels" font-size="2.82" font-family="'PT Sans Caption','Helvetica Neue','Helvetica',sans-serif" fill="#A1A1A1" id="img-504da741-74">
    <text x="21.5" y="83.31" text-anchor="middle" dy="0.6em">0</text>
    <text x="52.47" y="83.31" text-anchor="middle" dy="0.6em">50</text>
    <text x="83.45" y="83.31" text-anchor="middle" dy="0.6em">100</text>
    <text x="114.42" y="83.31" text-anchor="middle" dy="0.6em">150</text>
    <text x="145.4" y="83.31" text-anchor="middle" dy="0.6em">200</text>
  </g>
<g clip-path="url(#img-504da741-75)">
  <g id="img-504da741-76">
    <g pointer-events="visible" opacity="1" fill="#222831" stroke="#000000" stroke-opacity="0.000" class="guide background" id="img-504da741-77">
      <rect x="19.5" y="10.61" width="127.9" height="71.7"/>
    </g>
    <g class="guide ygridlines xfixed" stroke-dasharray="0.5,0.5" stroke-width="0.2" stroke="#575757" id="img-504da741-78">
      <path fill="none" d="M19.5,80.31 L 147.4 80.31"/>
      <path fill="none" d="M19.5,69.03 L 147.4 69.03"/>
      <path fill="none" d="M19.5,57.75 L 147.4 57.75"/>
      <path fill="none" d="M19.5,46.46 L 147.4 46.46"/>
      <path fill="none" d="M19.5,35.18 L 147.4 35.18"/>
      <path fill="none" d="M19.5,23.9 L 147.4 23.9"/>
      <path fill="none" d="M19.5,12.61 L 147.4 12.61"/>
    </g>
    <g class="guide xgridlines yfixed" stroke-dasharray="0.5,0.5" stroke-width="0.2" stroke="#575757" id="img-504da741-79">
      <path fill="none" d="M21.5,10.61 L 21.5 82.31"/>
      <path fill="none" d="M52.47,10.61 L 52.47 82.31"/>
      <path fill="none" d="M83.45,10.61 L 83.45 82.31"/>
      <path fill="none" d="M114.42,10.61 L 114.42 82.31"/>
      <path fill="none" d="M145.4,10.61 L 145.4 82.31"/>
    </g>
    <g class="plotpanel" id="img-504da741-80">
      <g stroke-width="0.3" fill="#000000" fill-opacity="0.000" class="geometry" stroke-dasharray="none" stroke="#FE4365" id="img-504da741-81">
        <path fill="none" d="M22.12,18.56 L 22.74 66.22 23.36 65.58 23.98 65.83 24.6 65.85 25.22 66.35 25.84 66.61 26.46 67.35 27.07 71.07 27.69 74.93 28.31 76.58 28.93 76.07 29.55 75.97 30.17 76 30.79 74.5 31.41 74.71 32.03 73.76 32.65 73.15 33.27 73.41 33.89 73.53 34.51 74.01 35.13 73.98 35.75 73.98 36.37 73.39 36.99 73.56 37.61 72.4 38.23 73.01 38.85 72.41 39.46 72.21 40.08 72.9 40.7 72.04 41.32 72.29 41.94 73.56 42.56 76.17 43.18 75.48 43.8 74.12 44.42 73.36 45.04 74.73 45.66 73.92 46.28 71.96 46.9 71.64 47.52 70.48 48.14 70.63 48.76 70.62 49.38 71.61 50 70.77 50.62 71.76 51.24 71.29 51.85 70.67 52.47 70.86 53.09 69.87 53.71 70.28 54.33 70.32 54.95 69.72 55.57 69.87 56.19 70.14 56.81 72.41 57.43 73.98 58.05 72.87 58.67 72.54 59.29 71.07 59.91 73.23 60.53 70.7 61.15 68.66 61.77 68.53 62.39 65.98 63.01 60.47 63.63 66.37 64.24 69.21 64.86 69.95 65.48 69.62 66.1 67.18 66.72 67.81 67.34 69.24 67.96 68.94 68.58 67.6 69.2 68.16 69.82 68.07 70.44 69.06 71.06 69.88 71.68 69.07 72.3 72.35 72.92 71.92 73.54 71.39 74.16 69.26 74.78 70.48 75.4 68.09 76.02 67.03 76.64 66.53 77.25 64.7 77.87 56.86 78.49 60.17 79.11 65.5 79.73 67.72 80.35 66.89 80.97 63.38 81.59 63.37 82.21 58.41 82.83 56.87 83.45 61.5 84.07 60.08 84.69 68.14 85.31 69.31 85.93 68.14 86.55 66.09 87.17 70.9 87.79 64.27 88.41 60.19 89.03 57.21 89.64 54.11 90.26 50.07 90.88 46.6 91.5 47.86 92.12 45.88 92.74 36.72 93.36 50.8 93.98 64.19 94.6 60.75 95.22 60.42 95.84 56.88 96.46 64.34 97.08 67.72 97.7 68.18 98.32 67.81 98.94 67.04 99.56 67.64 100.18 67.64 100.8 67.25 101.42 68.78 102.03 70.76 102.65 70.77 103.27 66.54 103.89 64.87 104.51 65.88 105.13 64.87 105.75 56.48 106.37 53.42 106.99 52.43 107.61 46.89 108.23 52.2 108.85 52.56 109.47 51.93 110.09 53.14 110.71 57.44 111.33 62.79 111.95 64.36 112.57 63.82 113.19 64.22 113.81 64.67 114.42 64.02 115.04 66.01 115.66 65.18 116.28 67.19 116.9 67.97 117.52 65.06 118.14 65.38 118.76 64.08 119.38 64.34 120 63.53 120.62 61.31 121.24 54.1 121.86 58.08 122.48 50.82 123.1 55.07 123.72 40.35 124.34 23.54 124.96 60 125.58 57.09"/>
      </g>
    </g>
  </g>
</g>
  <g class="guide ylabels" font-size="2.82" font-family="'PT Sans Caption','Helvetica Neue','Helvetica',sans-serif" fill="#A1A1A1" id="img-504da741-82">
    <text x="18.5" y="80.31" text-anchor="end" dy="0.35em">9580</text>
    <text x="18.5" y="69.03" text-anchor="end" dy="0.35em">9590</text>
    <text x="18.5" y="57.75" text-anchor="end" dy="0.35em">9600</text>
    <text x="18.5" y="46.46" text-anchor="end" dy="0.35em">9610</text>
    <text x="18.5" y="35.18" text-anchor="end" dy="0.35em">9620</text>
    <text x="18.5" y="23.9" text-anchor="end" dy="0.35em">9630</text>
    <text x="18.5" y="12.61" text-anchor="end" dy="0.35em">9640</text>
  </g>
  <g font-size="3.88" font-family="'PT Sans','Helvetica Neue','Helvetica',sans-serif" fill="#A1A1A1" stroke="#000000" stroke-opacity="0.000" id="img-504da741-83">
    <text x="8.81" y="46.46" text-anchor="end" dy="0.35em">y</text>
  </g>
  <g font-size="3.88" font-family="'PT Sans','Helvetica Neue','Helvetica',sans-serif" fill="#A1A1A1" stroke="#000000" stroke-opacity="0.000" id="img-504da741-84">
    <text x="83.45" y="5" text-anchor="middle" dy="0.6em">CMH at timestep x</text>
  </g>
</g>
<defs>
  <clipPath id="img-504da741-5">
  <path d="M171.9,213.81 L 299.8 213.81 299.8 285.51 171.9 285.51" />
</clipPath>
  <clipPath id="img-504da741-19">
  <path d="M21.85,213.81 L 147.4 213.81 147.4 285.51 21.85 285.51" />
</clipPath>
  <clipPath id="img-504da741-33">
  <path d="M174.97,112.21 L 299.8 112.21 299.8 183.91 174.97 183.91" />
</clipPath>
  <clipPath id="img-504da741-47">
  <path d="M16.15,112.21 L 147.4 112.21 147.4 183.91 16.15 183.91" />
</clipPath>
  <clipPath id="img-504da741-61">
  <path d="M171.9,10.61 L 299.8 10.61 299.8 82.31 171.9 82.31" />
</clipPath>
  <clipPath id="img-504da741-75">
  <path d="M19.5,10.61 L 147.4 10.61 147.4 82.31 19.5 82.31" />
</clipPath>
</defs>
</svg>
