<?xml version="1.0" encoding="UTF-8"?>
<svg xmlns="http://www.w3.org/2000/svg"
     xmlns:xlink="http://www.w3.org/1999/xlink"
     xmlns:gadfly="http://www.gadflyjl.org/ns"
     version="1.2"
     width="304.8mm" height="304.8mm" viewBox="0 0 304.8 304.8"
     stroke="none"
     fill="#000000"
     stroke-width="0.3"
     font-size="3.88"
>
<g stroke="#000000" stroke-opacity="0.000" fill="#222831" id="img-e07dfab5-1">
  <rect x="152.4" y="203.2" width="152.4" height="101.6"/>
</g>
<g class="plotroot xscalable yscalable" id="img-e07dfab5-2">
  <g font-size="3.88" font-family="'PT Sans','Helvetica Neue','Helvetica',sans-serif" fill="#A1A1A1" stroke="#000000" stroke-opacity="0.000" id="img-e07dfab5-3">
    <text x="246.23" y="293.19" text-anchor="middle" dy="0.6em">x</text>
  </g>
  <g class="guide xlabels" font-size="2.82" font-family="'PT Sans Caption','Helvetica Neue','Helvetica',sans-serif" fill="#A1A1A1" id="img-e07dfab5-4">
    <text x="194.65" y="286.51" text-anchor="middle" dy="0.6em">0</text>
    <text x="215.28" y="286.51" text-anchor="middle" dy="0.6em">5</text>
    <text x="235.91" y="286.51" text-anchor="middle" dy="0.6em">10</text>
    <text x="256.54" y="286.51" text-anchor="middle" dy="0.6em">15</text>
    <text x="277.17" y="286.51" text-anchor="middle" dy="0.6em">20</text>
    <text x="297.8" y="286.51" text-anchor="middle" dy="0.6em">25</text>
  </g>
<g clip-path="url(#img-e07dfab5-5)">
  <g id="img-e07dfab5-6">
    <g pointer-events="visible" opacity="1" fill="#222831" stroke="#000000" stroke-opacity="0.000" class="guide background" id="img-e07dfab5-7">
      <rect x="192.65" y="213.81" width="107.15" height="71.7"/>
    </g>
    <g class="guide ygridlines xfixed" stroke-dasharray="0.5,0.5" stroke-width="0.2" stroke="#575757" id="img-e07dfab5-8">
      <path fill="none" d="M192.65,249.66 L 299.8 249.66"/>
    </g>
    <g class="guide xgridlines yfixed" stroke-dasharray="0.5,0.5" stroke-width="0.2" stroke="#575757" id="img-e07dfab5-9">
      <path fill="none" d="M194.65,213.81 L 194.65 285.51"/>
      <path fill="none" d="M215.28,213.81 L 215.28 285.51"/>
      <path fill="none" d="M235.91,213.81 L 235.91 285.51"/>
      <path fill="none" d="M256.54,213.81 L 256.54 285.51"/>
      <path fill="none" d="M277.17,213.81 L 277.17 285.51"/>
      <path fill="none" d="M297.8,213.81 L 297.8 285.51"/>
    </g>
    <g class="plotpanel" id="img-e07dfab5-10">
      <g stroke-width="0.3" fill="#000000" fill-opacity="0.000" class="geometry" stroke-dasharray="none" stroke="#FE4365" id="img-e07dfab5-11">
        <path fill="none" d="M198.78,249.66 L 202.9 249.66 207.03 249.66 211.16 249.66 215.28 249.66 219.41 249.66 223.53 249.66 227.66 249.66 231.79 249.66 235.91 249.66 240.04 249.66 244.16 249.66 248.29 249.66 252.42 249.66 256.54 249.66 260.67 249.66 264.79 249.66 268.92 249.66 273.04 249.66 277.17 249.66 281.3 249.66 285.42 249.66 289.55 249.66 293.67 249.66"/>
      </g>
    </g>
  </g>
</g>
  <g class="guide ylabels" font-size="2.82" font-family="'PT Sans Caption','Helvetica Neue','Helvetica',sans-serif" fill="#A1A1A1" id="img-e07dfab5-12">
    <text x="191.65" y="249.66" text-anchor="end" dy="0.35em">0.000000004299056</text>
  </g>
  <g font-size="3.88" font-family="'PT Sans','Helvetica Neue','Helvetica',sans-serif" fill="#A1A1A1" stroke="#000000" stroke-opacity="0.000" id="img-e07dfab5-13">
    <text x="161.21" y="249.66" text-anchor="end" dy="0.35em">y</text>
  </g>
  <g font-size="3.88" font-family="'PT Sans','Helvetica Neue','Helvetica',sans-serif" fill="#A1A1A1" stroke="#000000" stroke-opacity="0.000" id="img-e07dfab5-14">
    <text x="246.23" y="208.2" text-anchor="middle" dy="0.6em">Moisture Removed by Dehumidification</text>
  </g>
</g>
<g stroke="#000000" stroke-opacity="0.000" fill="#222831" id="img-e07dfab5-15">
  <rect x="0" y="203.2" width="152.4" height="101.6"/>
</g>
<g class="plotroot xscalable yscalable" id="img-e07dfab5-16">
  <g font-size="3.88" font-family="'PT Sans','Helvetica Neue','Helvetica',sans-serif" fill="#A1A1A1" stroke="#000000" stroke-opacity="0.000" id="img-e07dfab5-17">
    <text x="82.95" y="293.19" text-anchor="middle" dy="0.6em">x</text>
  </g>
  <g class="guide xlabels" font-size="2.82" font-family="'PT Sans Caption','Helvetica Neue','Helvetica',sans-serif" fill="#A1A1A1" id="img-e07dfab5-18">
    <text x="20.5" y="286.51" text-anchor="middle" dy="0.6em">0</text>
    <text x="45.48" y="286.51" text-anchor="middle" dy="0.6em">5</text>
    <text x="70.46" y="286.51" text-anchor="middle" dy="0.6em">10</text>
    <text x="95.44" y="286.51" text-anchor="middle" dy="0.6em">15</text>
    <text x="120.42" y="286.51" text-anchor="middle" dy="0.6em">20</text>
    <text x="145.4" y="286.51" text-anchor="middle" dy="0.6em">25</text>
  </g>
<g clip-path="url(#img-e07dfab5-19)">
  <g id="img-e07dfab5-20">
    <g pointer-events="visible" opacity="1" fill="#222831" stroke="#000000" stroke-opacity="0.000" class="guide background" id="img-e07dfab5-21">
      <rect x="18.5" y="213.81" width="128.9" height="71.7"/>
    </g>
    <g class="guide ygridlines xfixed" stroke-dasharray="0.5,0.5" stroke-width="0.2" stroke="#575757" id="img-e07dfab5-22">
      <path fill="none" d="M18.5,283.51 L 147.4 283.51"/>
      <path fill="none" d="M18.5,269.97 L 147.4 269.97"/>
      <path fill="none" d="M18.5,256.43 L 147.4 256.43"/>
      <path fill="none" d="M18.5,242.89 L 147.4 242.89"/>
      <path fill="none" d="M18.5,229.35 L 147.4 229.35"/>
      <path fill="none" d="M18.5,215.81 L 147.4 215.81"/>
    </g>
    <g class="guide xgridlines yfixed" stroke-dasharray="0.5,0.5" stroke-width="0.2" stroke="#575757" id="img-e07dfab5-23">
      <path fill="none" d="M20.5,213.81 L 20.5 285.51"/>
      <path fill="none" d="M45.48,213.81 L 45.48 285.51"/>
      <path fill="none" d="M70.46,213.81 L 70.46 285.51"/>
      <path fill="none" d="M95.44,213.81 L 95.44 285.51"/>
      <path fill="none" d="M120.42,213.81 L 120.42 285.51"/>
      <path fill="none" d="M145.4,213.81 L 145.4 285.51"/>
    </g>
    <g class="plotpanel" id="img-e07dfab5-24">
      <g stroke-width="0.3" fill="#000000" fill-opacity="0.000" class="geometry" stroke-dasharray="none" stroke="#FE4365" id="img-e07dfab5-25">
        <path fill="none" d="M20.5,283.51 L 25.5 283.51 30.49 283.51 35.49 283.51 40.48 283.51 45.48 283.51 50.48 283.51 55.47 283.51 60.47 264.48 65.46 233.34 70.46 216.57 75.46 223.74 80.45 233.8 85.45 244.88 90.44 254.55 95.44 262.54 100.44 263.85 105.43 267.41 110.43 265.27 115.42 265.27 120.42 265.27 125.42 265.27 130.41 265.27 135.41 265.27"/>
      </g>
    </g>
  </g>
</g>
  <g class="guide ylabels" font-size="2.82" font-family="'PT Sans Caption','Helvetica Neue','Helvetica',sans-serif" fill="#A1A1A1" id="img-e07dfab5-26">
    <text x="17.5" y="283.51" text-anchor="end" dy="0.35em">0.06</text>
    <text x="17.5" y="269.97" text-anchor="end" dy="0.35em">0.07</text>
    <text x="17.5" y="256.43" text-anchor="end" dy="0.35em">0.08</text>
    <text x="17.5" y="242.89" text-anchor="end" dy="0.35em">0.09</text>
    <text x="17.5" y="229.35" text-anchor="end" dy="0.35em">0.10</text>
    <text x="17.5" y="215.81" text-anchor="end" dy="0.35em">0.11</text>
  </g>
  <g font-size="3.88" font-family="'PT Sans','Helvetica Neue','Helvetica',sans-serif" fill="#A1A1A1" stroke="#000000" stroke-opacity="0.000" id="img-e07dfab5-27">
    <text x="8.81" y="249.66" text-anchor="end" dy="0.35em">y</text>
  </g>
  <g font-size="3.88" font-family="'PT Sans','Helvetica Neue','Helvetica',sans-serif" fill="#A1A1A1" stroke="#000000" stroke-opacity="0.000" id="img-e07dfab5-28">
    <text x="82.95" y="208.2" text-anchor="middle" dy="0.6em">Humidity Ratio (kg Water / kg dry air)</text>
  </g>
</g>
<g stroke="#000000" stroke-opacity="0.000" fill="#222831" id="img-e07dfab5-29">
  <rect x="152.4" y="101.6" width="152.4" height="101.6"/>
</g>
<g class="plotroot xscalable yscalable" id="img-e07dfab5-30">
  <g font-size="3.88" font-family="'PT Sans','Helvetica Neue','Helvetica',sans-serif" fill="#A1A1A1" stroke="#000000" stroke-opacity="0.000" id="img-e07dfab5-31">
    <text x="238.56" y="191.59" text-anchor="middle" dy="0.6em">x</text>
  </g>
  <g class="guide xlabels" font-size="2.82" font-family="'PT Sans Caption','Helvetica Neue','Helvetica',sans-serif" fill="#A1A1A1" id="img-e07dfab5-32">
    <text x="179.32" y="184.91" text-anchor="middle" dy="0.6em">0</text>
    <text x="203.02" y="184.91" text-anchor="middle" dy="0.6em">5</text>
    <text x="226.71" y="184.91" text-anchor="middle" dy="0.6em">10</text>
    <text x="250.41" y="184.91" text-anchor="middle" dy="0.6em">15</text>
    <text x="274.1" y="184.91" text-anchor="middle" dy="0.6em">20</text>
    <text x="297.8" y="184.91" text-anchor="middle" dy="0.6em">25</text>
  </g>
<g clip-path="url(#img-e07dfab5-33)">
  <g id="img-e07dfab5-34">
    <g pointer-events="visible" opacity="1" fill="#222831" stroke="#000000" stroke-opacity="0.000" class="guide background" id="img-e07dfab5-35">
      <rect x="177.32" y="112.21" width="122.48" height="71.7"/>
    </g>
    <g class="guide ygridlines xfixed" stroke-dasharray="0.5,0.5" stroke-width="0.2" stroke="#575757" id="img-e07dfab5-36">
      <path fill="none" d="M177.32,181.91 L 299.8 181.91"/>
      <path fill="none" d="M177.32,168.37 L 299.8 168.37"/>
      <path fill="none" d="M177.32,154.83 L 299.8 154.83"/>
      <path fill="none" d="M177.32,141.29 L 299.8 141.29"/>
      <path fill="none" d="M177.32,127.75 L 299.8 127.75"/>
      <path fill="none" d="M177.32,114.21 L 299.8 114.21"/>
    </g>
    <g class="guide xgridlines yfixed" stroke-dasharray="0.5,0.5" stroke-width="0.2" stroke="#575757" id="img-e07dfab5-37">
      <path fill="none" d="M179.32,112.21 L 179.32 183.91"/>
      <path fill="none" d="M203.02,112.21 L 203.02 183.91"/>
      <path fill="none" d="M226.71,112.21 L 226.71 183.91"/>
      <path fill="none" d="M250.41,112.21 L 250.41 183.91"/>
      <path fill="none" d="M274.1,112.21 L 274.1 183.91"/>
      <path fill="none" d="M297.8,112.21 L 297.8 183.91"/>
    </g>
    <g class="plotpanel" id="img-e07dfab5-38">
      <g stroke-width="0.3" fill="#000000" fill-opacity="0.000" class="geometry" stroke-dasharray="none" stroke="#FE4365" id="img-e07dfab5-39">
        <path fill="none" d="M184.06,181.91 L 188.8 156.89 193.54 179.3 198.28 180.13 203.02 180.38 207.75 180.49 212.49 180.51 217.23 180.38 221.97 178.21 226.71 158.9 231.45 157.83 236.19 155.33 240.93 151.47 245.67 153.93 250.41 161.98 255.15 160.86 259.89 152.4 264.63 143.52 269.36 118.27 274.1 181.91 278.84 181.91 283.58 181.91 288.32 181.91 293.06 181.91"/>
      </g>
    </g>
  </g>
</g>
  <g class="guide ylabels" font-size="2.82" font-family="'PT Sans Caption','Helvetica Neue','Helvetica',sans-serif" fill="#A1A1A1" id="img-e07dfab5-40">
    <text x="176.32" y="181.91" text-anchor="end" dy="0.35em">0</text>
    <text x="176.32" y="168.37" text-anchor="end" dy="0.35em">1.0×10⁴</text>
    <text x="176.32" y="154.83" text-anchor="end" dy="0.35em">2.0×10⁴</text>
    <text x="176.32" y="141.29" text-anchor="end" dy="0.35em">3.0×10⁴</text>
    <text x="176.32" y="127.75" text-anchor="end" dy="0.35em">4.0×10⁴</text>
    <text x="176.32" y="114.21" text-anchor="end" dy="0.35em">5.0×10⁴</text>
  </g>
  <g font-size="3.88" font-family="'PT Sans','Helvetica Neue','Helvetica',sans-serif" fill="#A1A1A1" stroke="#000000" stroke-opacity="0.000" id="img-e07dfab5-41">
    <text x="161.21" y="148.06" text-anchor="end" dy="0.35em">y</text>
  </g>
  <g font-size="3.88" font-family="'PT Sans','Helvetica Neue','Helvetica',sans-serif" fill="#A1A1A1" stroke="#000000" stroke-opacity="0.000" id="img-e07dfab5-42">
    <text x="238.56" y="106.6" text-anchor="middle" dy="0.6em">PM2.5 Removed by Filters</text>
  </g>
</g>
<g stroke="#000000" stroke-opacity="0.000" fill="#222831" id="img-e07dfab5-43">
  <rect x="0" y="101.6" width="152.4" height="101.6"/>
</g>
<g class="plotroot xscalable yscalable" id="img-e07dfab5-44">
  <g font-size="3.88" font-family="'PT Sans','Helvetica Neue','Helvetica',sans-serif" fill="#A1A1A1" stroke="#000000" stroke-opacity="0.000" id="img-e07dfab5-45">
    <text x="82.61" y="191.59" text-anchor="middle" dy="0.6em">x</text>
  </g>
  <g class="guide xlabels" font-size="2.82" font-family="'PT Sans Caption','Helvetica Neue','Helvetica',sans-serif" fill="#A1A1A1" id="img-e07dfab5-46">
    <text x="19.83" y="184.91" text-anchor="middle" dy="0.6em">0</text>
    <text x="44.94" y="184.91" text-anchor="middle" dy="0.6em">5</text>
    <text x="70.06" y="184.91" text-anchor="middle" dy="0.6em">10</text>
    <text x="95.17" y="184.91" text-anchor="middle" dy="0.6em">15</text>
    <text x="120.29" y="184.91" text-anchor="middle" dy="0.6em">20</text>
    <text x="145.4" y="184.91" text-anchor="middle" dy="0.6em">25</text>
  </g>
<g clip-path="url(#img-e07dfab5-47)">
  <g id="img-e07dfab5-48">
    <g pointer-events="visible" opacity="1" fill="#222831" stroke="#000000" stroke-opacity="0.000" class="guide background" id="img-e07dfab5-49">
      <rect x="17.83" y="112.21" width="129.57" height="71.7"/>
    </g>
    <g class="guide ygridlines xfixed" stroke-dasharray="0.5,0.5" stroke-width="0.2" stroke="#575757" id="img-e07dfab5-50">
      <path fill="none" d="M17.83,181.91 L 147.4 181.91"/>
      <path fill="none" d="M17.83,164.99 L 147.4 164.99"/>
      <path fill="none" d="M17.83,148.06 L 147.4 148.06"/>
      <path fill="none" d="M17.83,131.14 L 147.4 131.14"/>
      <path fill="none" d="M17.83,114.21 L 147.4 114.21"/>
    </g>
    <g class="guide xgridlines yfixed" stroke-dasharray="0.5,0.5" stroke-width="0.2" stroke="#575757" id="img-e07dfab5-51">
      <path fill="none" d="M19.83,112.21 L 19.83 183.91"/>
      <path fill="none" d="M44.94,112.21 L 44.94 183.91"/>
      <path fill="none" d="M70.06,112.21 L 70.06 183.91"/>
      <path fill="none" d="M95.17,112.21 L 95.17 183.91"/>
      <path fill="none" d="M120.29,112.21 L 120.29 183.91"/>
      <path fill="none" d="M145.4,112.21 L 145.4 183.91"/>
    </g>
    <g class="plotpanel" id="img-e07dfab5-52">
      <g stroke-width="0.3" fill="#000000" fill-opacity="0.000" class="geometry" stroke-dasharray="none" stroke="#FE4365" id="img-e07dfab5-53">
        <path fill="none" d="M19.83,120.98 L 24.85 148.97 29.87 152.14 34.89 154.41 39.92 156.4 44.94 158.31 49.96 160.26 54.99 162.58 60.01 160.41 65.03 152.78 70.06 147.1 75.08 146.7 80.1 148.28 85.12 149.07 90.15 146.37 95.17 146.37 100.19 146.37 105.22 146.37 110.24 146.37 115.26 146.37 120.29 146.37 125.31 146.37 130.33 146.37 135.35 146.37"/>
      </g>
    </g>
  </g>
</g>
  <g class="guide ylabels" font-size="2.82" font-family="'PT Sans Caption','Helvetica Neue','Helvetica',sans-serif" fill="#A1A1A1" id="img-e07dfab5-54">
    <text x="16.83" y="181.91" text-anchor="end" dy="0.35em">0</text>
    <text x="16.83" y="164.99" text-anchor="end" dy="0.35em">200</text>
    <text x="16.83" y="148.06" text-anchor="end" dy="0.35em">400</text>
    <text x="16.83" y="131.14" text-anchor="end" dy="0.35em">600</text>
    <text x="16.83" y="114.21" text-anchor="end" dy="0.35em">800</text>
  </g>
  <g font-size="3.88" font-family="'PT Sans','Helvetica Neue','Helvetica',sans-serif" fill="#A1A1A1" stroke="#000000" stroke-opacity="0.000" id="img-e07dfab5-55">
    <text x="8.81" y="148.06" text-anchor="end" dy="0.35em">y</text>
  </g>
  <g font-size="3.88" font-family="'PT Sans','Helvetica Neue','Helvetica',sans-serif" fill="#A1A1A1" stroke="#000000" stroke-opacity="0.000" id="img-e07dfab5-56">
    <text x="82.61" y="106.6" text-anchor="middle" dy="0.6em">PM2.5 Concentration (µg)</text>
  </g>
</g>
<g stroke="#000000" stroke-opacity="0.000" fill="#222831" id="img-e07dfab5-57">
  <rect x="152.4" y="0" width="152.4" height="101.6"/>
</g>
<g class="plotroot xscalable yscalable" id="img-e07dfab5-58">
  <g font-size="3.88" font-family="'PT Sans','Helvetica Neue','Helvetica',sans-serif" fill="#A1A1A1" stroke="#000000" stroke-opacity="0.000" id="img-e07dfab5-59">
    <text x="238.56" y="89.99" text-anchor="middle" dy="0.6em">x</text>
  </g>
  <g class="guide xlabels" font-size="2.82" font-family="'PT Sans Caption','Helvetica Neue','Helvetica',sans-serif" fill="#A1A1A1" id="img-e07dfab5-60">
    <text x="179.32" y="83.31" text-anchor="middle" dy="0.6em">0</text>
    <text x="203.02" y="83.31" text-anchor="middle" dy="0.6em">5</text>
    <text x="226.71" y="83.31" text-anchor="middle" dy="0.6em">10</text>
    <text x="250.41" y="83.31" text-anchor="middle" dy="0.6em">15</text>
    <text x="274.1" y="83.31" text-anchor="middle" dy="0.6em">20</text>
    <text x="297.8" y="83.31" text-anchor="middle" dy="0.6em">25</text>
  </g>
<g clip-path="url(#img-e07dfab5-61)">
  <g id="img-e07dfab5-62">
    <g pointer-events="visible" opacity="1" fill="#222831" stroke="#000000" stroke-opacity="0.000" class="guide background" id="img-e07dfab5-63">
      <rect x="177.32" y="10.61" width="122.48" height="71.7"/>
    </g>
    <g class="guide ygridlines xfixed" stroke-dasharray="0.5,0.5" stroke-width="0.2" stroke="#575757" id="img-e07dfab5-64">
      <path fill="none" d="M177.32,80.31 L 299.8 80.31"/>
      <path fill="none" d="M177.32,63.39 L 299.8 63.39"/>
      <path fill="none" d="M177.32,46.46 L 299.8 46.46"/>
      <path fill="none" d="M177.32,29.54 L 299.8 29.54"/>
      <path fill="none" d="M177.32,12.61 L 299.8 12.61"/>
    </g>
    <g class="guide xgridlines yfixed" stroke-dasharray="0.5,0.5" stroke-width="0.2" stroke="#575757" id="img-e07dfab5-65">
      <path fill="none" d="M179.32,10.61 L 179.32 82.31"/>
      <path fill="none" d="M203.02,10.61 L 203.02 82.31"/>
      <path fill="none" d="M226.71,10.61 L 226.71 82.31"/>
      <path fill="none" d="M250.41,10.61 L 250.41 82.31"/>
      <path fill="none" d="M274.1,10.61 L 274.1 82.31"/>
      <path fill="none" d="M297.8,10.61 L 297.8 82.31"/>
    </g>
    <g class="plotpanel" id="img-e07dfab5-66">
      <g stroke-width="0.3" fill="#000000" fill-opacity="0.000" class="geometry" stroke-dasharray="none" stroke="#FE4365" id="img-e07dfab5-67">
        <path fill="none" d="M179.32,73.54 L 184.06 73.54 188.8 73.54 193.54 73.54 198.28 73.54 203.02 73.54 207.75 73.54 212.49 73.54 217.23 53.85 221.97 29.74 226.71 18.79 231.45 17.85 236.19 17.97 240.93 17.69 245.67 12.61 250.41 12.61 255.15 12.61 259.89 12.61 264.63 12.61 269.36 12.61 274.1 12.61 278.84 12.61 283.58 12.61 288.32 12.61"/>
      </g>
    </g>
  </g>
</g>
  <g class="guide ylabels" font-size="2.82" font-family="'PT Sans Caption','Helvetica Neue','Helvetica',sans-serif" fill="#A1A1A1" id="img-e07dfab5-68">
    <text x="176.32" y="80.31" text-anchor="end" dy="0.35em">4.0×10³</text>
    <text x="176.32" y="63.39" text-anchor="end" dy="0.35em">6.0×10³</text>
    <text x="176.32" y="46.46" text-anchor="end" dy="0.35em">8.0×10³</text>
    <text x="176.32" y="29.54" text-anchor="end" dy="0.35em">1.0×10⁴</text>
    <text x="176.32" y="12.61" text-anchor="end" dy="0.35em">1.2×10⁴</text>
  </g>
  <g font-size="3.88" font-family="'PT Sans','Helvetica Neue','Helvetica',sans-serif" fill="#A1A1A1" stroke="#000000" stroke-opacity="0.000" id="img-e07dfab5-69">
    <text x="161.21" y="46.46" text-anchor="end" dy="0.35em">y</text>
  </g>
  <g font-size="3.88" font-family="'PT Sans','Helvetica Neue','Helvetica',sans-serif" fill="#A1A1A1" stroke="#000000" stroke-opacity="0.000" id="img-e07dfab5-70">
    <text x="238.56" y="5" text-anchor="middle" dy="0.6em">CO2 Concentration inside room (ppm)</text>
  </g>
</g>
<g stroke="#000000" stroke-opacity="0.000" fill="#222831" id="img-e07dfab5-71">
  <rect x="0" y="0" width="152.4" height="101.6"/>
</g>
<g class="plotroot xscalable yscalable" id="img-e07dfab5-72">
  <g font-size="3.88" font-family="'PT Sans','Helvetica Neue','Helvetica',sans-serif" fill="#A1A1A1" stroke="#000000" stroke-opacity="0.000" id="img-e07dfab5-73">
    <text x="83.45" y="89.99" text-anchor="middle" dy="0.6em">x</text>
  </g>
  <g class="guide xlabels" font-size="2.82" font-family="'PT Sans Caption','Helvetica Neue','Helvetica',sans-serif" fill="#A1A1A1" id="img-e07dfab5-74">
    <text x="21.5" y="83.31" text-anchor="middle" dy="0.6em">0</text>
    <text x="46.28" y="83.31" text-anchor="middle" dy="0.6em">5</text>
    <text x="71.06" y="83.31" text-anchor="middle" dy="0.6em">10</text>
    <text x="95.84" y="83.31" text-anchor="middle" dy="0.6em">15</text>
    <text x="120.62" y="83.31" text-anchor="middle" dy="0.6em">20</text>
    <text x="145.4" y="83.31" text-anchor="middle" dy="0.6em">25</text>
  </g>
<g clip-path="url(#img-e07dfab5-75)">
  <g id="img-e07dfab5-76">
    <g pointer-events="visible" opacity="1" fill="#222831" stroke="#000000" stroke-opacity="0.000" class="guide background" id="img-e07dfab5-77">
      <rect x="19.5" y="10.61" width="127.9" height="71.7"/>
    </g>
    <g class="guide ygridlines xfixed" stroke-dasharray="0.5,0.5" stroke-width="0.2" stroke="#575757" id="img-e07dfab5-78">
      <path fill="none" d="M19.5,80.31 L 147.4 80.31"/>
      <path fill="none" d="M19.5,63.39 L 147.4 63.39"/>
      <path fill="none" d="M19.5,46.46 L 147.4 46.46"/>
      <path fill="none" d="M19.5,29.54 L 147.4 29.54"/>
      <path fill="none" d="M19.5,12.61 L 147.4 12.61"/>
    </g>
    <g class="guide xgridlines yfixed" stroke-dasharray="0.5,0.5" stroke-width="0.2" stroke="#575757" id="img-e07dfab5-79">
      <path fill="none" d="M21.5,10.61 L 21.5 82.31"/>
      <path fill="none" d="M46.28,10.61 L 46.28 82.31"/>
      <path fill="none" d="M71.06,10.61 L 71.06 82.31"/>
      <path fill="none" d="M95.84,10.61 L 95.84 82.31"/>
      <path fill="none" d="M120.62,10.61 L 120.62 82.31"/>
      <path fill="none" d="M145.4,10.61 L 145.4 82.31"/>
    </g>
    <g class="plotpanel" id="img-e07dfab5-80">
      <g stroke-width="0.3" fill="#000000" fill-opacity="0.000" class="geometry" stroke-dasharray="none" stroke="#FE4365" id="img-e07dfab5-81">
        <path fill="none" d="M26.46,80.31 L 31.41 80.31 36.37 80.31 41.32 80.31 46.28 80.31 51.24 80.31 56.19 80.31 61.15 80.31 66.1 76.2 71.06 62.64 76.02 42.94 80.97 18.84 85.93 23.53 90.88 47.7 95.84 23.02 100.8 21.83 105.75 23.55 110.71 26.99 115.66 37.31 120.62 80.31 125.58 80.31 130.53 80.31 135.49 80.31 140.44 80.31"/>
      </g>
    </g>
  </g>
</g>
  <g class="guide ylabels" font-size="2.82" font-family="'PT Sans Caption','Helvetica Neue','Helvetica',sans-serif" fill="#A1A1A1" id="img-e07dfab5-82">
    <text x="18.5" y="80.31" text-anchor="end" dy="0.35em">0</text>
    <text x="18.5" y="63.39" text-anchor="end" dy="0.35em">500</text>
    <text x="18.5" y="46.46" text-anchor="end" dy="0.35em">1000</text>
    <text x="18.5" y="29.54" text-anchor="end" dy="0.35em">1500</text>
    <text x="18.5" y="12.61" text-anchor="end" dy="0.35em">2000</text>
  </g>
  <g font-size="3.88" font-family="'PT Sans','Helvetica Neue','Helvetica',sans-serif" fill="#A1A1A1" stroke="#000000" stroke-opacity="0.000" id="img-e07dfab5-83">
    <text x="8.81" y="46.46" text-anchor="end" dy="0.35em">y</text>
  </g>
  <g font-size="3.88" font-family="'PT Sans','Helvetica Neue','Helvetica',sans-serif" fill="#A1A1A1" stroke="#000000" stroke-opacity="0.000" id="img-e07dfab5-84">
    <text x="83.45" y="5" text-anchor="middle" dy="0.6em">CMH at timestep x</text>
  </g>
</g>
<defs>
  <clipPath id="img-e07dfab5-5">
  <path d="M192.65,213.81 L 299.8 213.81 299.8 285.51 192.65 285.51" />
</clipPath>
  <clipPath id="img-e07dfab5-19">
  <path d="M18.5,213.81 L 147.4 213.81 147.4 285.51 18.5 285.51" />
</clipPath>
  <clipPath id="img-e07dfab5-33">
  <path d="M177.32,112.21 L 299.8 112.21 299.8 183.91 177.32 183.91" />
</clipPath>
  <clipPath id="img-e07dfab5-47">
  <path d="M17.83,112.21 L 147.4 112.21 147.4 183.91 17.83 183.91" />
</clipPath>
  <clipPath id="img-e07dfab5-61">
  <path d="M177.32,10.61 L 299.8 10.61 299.8 82.31 177.32 82.31" />
</clipPath>
  <clipPath id="img-e07dfab5-75">
  <path d="M19.5,10.61 L 147.4 10.61 147.4 82.31 19.5 82.31" />
</clipPath>
</defs>
</svg>
