<?xml version="1.0" encoding="UTF-8"?>
<svg xmlns="http://www.w3.org/2000/svg"
     xmlns:xlink="http://www.w3.org/1999/xlink"
     xmlns:gadfly="http://www.gadflyjl.org/ns"
     version="1.2"
     width="304.8mm" height="304.8mm" viewBox="0 0 304.8 304.8"
     stroke="none"
     fill="#000000"
     stroke-width="0.3"
     font-size="3.88"
>
<g stroke="#000000" stroke-opacity="0.000" fill="#222831" id="img-2c58214a-1">
  <rect x="152.4" y="203.2" width="152.4" height="101.6"/>
</g>
<g class="plotroot xscalable yscalable" id="img-2c58214a-2">
  <g font-size="3.88" font-family="'PT Sans','Helvetica Neue','Helvetica',sans-serif" fill="#A1A1A1" stroke="#000000" stroke-opacity="0.000" id="img-2c58214a-3">
    <text x="233.34" y="293.19" text-anchor="middle" dy="0.6em">x</text>
  </g>
  <g class="guide xlabels" font-size="2.82" font-family="'PT Sans Caption','Helvetica Neue','Helvetica',sans-serif" fill="#A1A1A1" id="img-2c58214a-4">
    <text x="168.88" y="286.51" text-anchor="middle" dy="0.6em">0</text>
    <text x="194.66" y="286.51" text-anchor="middle" dy="0.6em">5</text>
    <text x="220.45" y="286.51" text-anchor="middle" dy="0.6em">10</text>
    <text x="246.23" y="286.51" text-anchor="middle" dy="0.6em">15</text>
    <text x="272.02" y="286.51" text-anchor="middle" dy="0.6em">20</text>
    <text x="297.8" y="286.51" text-anchor="middle" dy="0.6em">25</text>
  </g>
<g clip-path="url(#img-2c58214a-5)">
  <g id="img-2c58214a-6">
    <g pointer-events="visible" opacity="1" fill="#222831" stroke="#000000" stroke-opacity="0.000" class="guide background" id="img-2c58214a-7">
      <rect x="166.88" y="213.81" width="132.92" height="71.7"/>
    </g>
    <g class="guide ygridlines xfixed" stroke-dasharray="0.5,0.5" stroke-width="0.2" stroke="#575757" id="img-2c58214a-8">
      <path fill="none" d="M166.88,249.66 L 299.8 249.66"/>
    </g>
    <g class="guide xgridlines yfixed" stroke-dasharray="0.5,0.5" stroke-width="0.2" stroke="#575757" id="img-2c58214a-9">
      <path fill="none" d="M168.88,213.81 L 168.88 285.51"/>
      <path fill="none" d="M194.66,213.81 L 194.66 285.51"/>
      <path fill="none" d="M220.45,213.81 L 220.45 285.51"/>
      <path fill="none" d="M246.23,213.81 L 246.23 285.51"/>
      <path fill="none" d="M272.02,213.81 L 272.02 285.51"/>
      <path fill="none" d="M297.8,213.81 L 297.8 285.51"/>
    </g>
    <g class="plotpanel" id="img-2c58214a-10">
      <g stroke-width="0.3" fill="#000000" fill-opacity="0.000" class="geometry" stroke-dasharray="none" stroke="#FE4365" id="img-2c58214a-11">
        <path fill="none" d="M174.04,249.66 L 179.19 249.66 184.35 249.66 189.51 249.66 194.66 249.66 199.82 249.66 204.98 249.66 210.13 249.66 215.29 249.66 220.45 249.66 225.6 249.66 230.76 249.66 235.92 249.66 241.07 249.66 246.23 249.66 251.39 249.66 256.55 249.66 261.7 249.66 266.86 249.66 272.02 249.66 277.17 249.66 282.33 249.66 287.49 249.66 292.64 249.66"/>
      </g>
    </g>
  </g>
</g>
  <g class="guide ylabels" font-size="2.82" font-family="'PT Sans Caption','Helvetica Neue','Helvetica',sans-serif" fill="#A1A1A1" id="img-2c58214a-12">
    <text x="165.88" y="249.66" text-anchor="end" dy="0.35em">0</text>
  </g>
  <g font-size="3.88" font-family="'PT Sans','Helvetica Neue','Helvetica',sans-serif" fill="#A1A1A1" stroke="#000000" stroke-opacity="0.000" id="img-2c58214a-13">
    <text x="161.21" y="249.66" text-anchor="end" dy="0.35em">y</text>
  </g>
  <g font-size="3.88" font-family="'PT Sans','Helvetica Neue','Helvetica',sans-serif" fill="#A1A1A1" stroke="#000000" stroke-opacity="0.000" id="img-2c58214a-14">
    <text x="233.34" y="208.2" text-anchor="middle" dy="0.6em">Moisture Removed by Dehumidification</text>
  </g>
</g>
<g stroke="#000000" stroke-opacity="0.000" fill="#222831" id="img-2c58214a-15">
  <rect x="0" y="203.2" width="152.4" height="101.6"/>
</g>
<g class="plotroot xscalable yscalable" id="img-2c58214a-16">
  <g font-size="3.88" font-family="'PT Sans','Helvetica Neue','Helvetica',sans-serif" fill="#A1A1A1" stroke="#000000" stroke-opacity="0.000" id="img-2c58214a-17">
    <text x="83.79" y="293.19" text-anchor="middle" dy="0.6em">x</text>
  </g>
  <g class="guide xlabels" font-size="2.82" font-family="'PT Sans Caption','Helvetica Neue','Helvetica',sans-serif" fill="#A1A1A1" id="img-2c58214a-18">
    <text x="22.17" y="286.51" text-anchor="middle" dy="0.6em">0</text>
    <text x="46.82" y="286.51" text-anchor="middle" dy="0.6em">5</text>
    <text x="71.46" y="286.51" text-anchor="middle" dy="0.6em">10</text>
    <text x="96.11" y="286.51" text-anchor="middle" dy="0.6em">15</text>
    <text x="120.75" y="286.51" text-anchor="middle" dy="0.6em">20</text>
    <text x="145.4" y="286.51" text-anchor="middle" dy="0.6em">25</text>
  </g>
<g clip-path="url(#img-2c58214a-19)">
  <g id="img-2c58214a-20">
    <g pointer-events="visible" opacity="1" fill="#222831" stroke="#000000" stroke-opacity="0.000" class="guide background" id="img-2c58214a-21">
      <rect x="20.17" y="213.81" width="127.23" height="71.7"/>
    </g>
    <g class="guide ygridlines xfixed" stroke-dasharray="0.5,0.5" stroke-width="0.2" stroke="#575757" id="img-2c58214a-22">
      <path fill="none" d="M20.17,283.51 L 147.4 283.51"/>
      <path fill="none" d="M20.17,269.97 L 147.4 269.97"/>
      <path fill="none" d="M20.17,256.43 L 147.4 256.43"/>
      <path fill="none" d="M20.17,242.89 L 147.4 242.89"/>
      <path fill="none" d="M20.17,229.35 L 147.4 229.35"/>
      <path fill="none" d="M20.17,215.81 L 147.4 215.81"/>
    </g>
    <g class="guide xgridlines yfixed" stroke-dasharray="0.5,0.5" stroke-width="0.2" stroke="#575757" id="img-2c58214a-23">
      <path fill="none" d="M22.17,213.81 L 22.17 285.51"/>
      <path fill="none" d="M46.82,213.81 L 46.82 285.51"/>
      <path fill="none" d="M71.46,213.81 L 71.46 285.51"/>
      <path fill="none" d="M96.11,213.81 L 96.11 285.51"/>
      <path fill="none" d="M120.75,213.81 L 120.75 285.51"/>
      <path fill="none" d="M145.4,213.81 L 145.4 285.51"/>
    </g>
    <g class="plotpanel" id="img-2c58214a-24">
      <g stroke-width="0.3" fill="#000000" fill-opacity="0.000" class="geometry" stroke-dasharray="none" stroke="#FE4365" id="img-2c58214a-25">
        <path fill="none" d="M22.17,283.51 L 27.1 283.51 32.03 283.51 36.96 283.51 41.89 283.51 46.82 283.51 51.75 283.51 56.68 283.51 61.61 249.68 66.53 228.06 71.46 224.9 76.39 238.86 81.32 254.48 86.25 264.01 91.18 273.18 96.11 278.64 101.04 279.16 105.97 282.25 110.9 282.25 115.83 282.25 120.75 282.25 125.68 282.25 130.61 282.25 135.54 282.25"/>
      </g>
    </g>
  </g>
</g>
  <g class="guide ylabels" font-size="2.82" font-family="'PT Sans Caption','Helvetica Neue','Helvetica',sans-serif" fill="#A1A1A1" id="img-2c58214a-26">
    <text x="19.17" y="283.51" text-anchor="end" dy="0.35em">0.005</text>
    <text x="19.17" y="269.97" text-anchor="end" dy="0.35em">0.006</text>
    <text x="19.17" y="256.43" text-anchor="end" dy="0.35em">0.007</text>
    <text x="19.17" y="242.89" text-anchor="end" dy="0.35em">0.008</text>
    <text x="19.17" y="229.35" text-anchor="end" dy="0.35em">0.009</text>
    <text x="19.17" y="215.81" text-anchor="end" dy="0.35em">0.010</text>
  </g>
  <g font-size="3.88" font-family="'PT Sans','Helvetica Neue','Helvetica',sans-serif" fill="#A1A1A1" stroke="#000000" stroke-opacity="0.000" id="img-2c58214a-27">
    <text x="8.81" y="249.66" text-anchor="end" dy="0.35em">y</text>
  </g>
  <g font-size="3.88" font-family="'PT Sans','Helvetica Neue','Helvetica',sans-serif" fill="#A1A1A1" stroke="#000000" stroke-opacity="0.000" id="img-2c58214a-28">
    <text x="83.79" y="208.2" text-anchor="middle" dy="0.6em">Humidity Ratio (kg Water / kg dry air)</text>
  </g>
</g>
<g stroke="#000000" stroke-opacity="0.000" fill="#222831" id="img-2c58214a-29">
  <rect x="152.4" y="101.6" width="152.4" height="101.6"/>
</g>
<g class="plotroot xscalable yscalable" id="img-2c58214a-30">
  <g font-size="3.88" font-family="'PT Sans','Helvetica Neue','Helvetica',sans-serif" fill="#A1A1A1" stroke="#000000" stroke-opacity="0.000" id="img-2c58214a-31">
    <text x="237.39" y="191.59" text-anchor="middle" dy="0.6em">x</text>
  </g>
  <g class="guide xlabels" font-size="2.82" font-family="'PT Sans Caption','Helvetica Neue','Helvetica',sans-serif" fill="#A1A1A1" id="img-2c58214a-32">
    <text x="176.97" y="184.91" text-anchor="middle" dy="0.6em">0</text>
    <text x="201.14" y="184.91" text-anchor="middle" dy="0.6em">5</text>
    <text x="225.3" y="184.91" text-anchor="middle" dy="0.6em">10</text>
    <text x="249.47" y="184.91" text-anchor="middle" dy="0.6em">15</text>
    <text x="273.63" y="184.91" text-anchor="middle" dy="0.6em">20</text>
    <text x="297.8" y="184.91" text-anchor="middle" dy="0.6em">25</text>
  </g>
<g clip-path="url(#img-2c58214a-33)">
  <g id="img-2c58214a-34">
    <g pointer-events="visible" opacity="1" fill="#222831" stroke="#000000" stroke-opacity="0.000" class="guide background" id="img-2c58214a-35">
      <rect x="174.97" y="112.21" width="124.83" height="71.7"/>
    </g>
    <g class="guide ygridlines xfixed" stroke-dasharray="0.5,0.5" stroke-width="0.2" stroke="#575757" id="img-2c58214a-36">
      <path fill="none" d="M174.97,181.91 L 299.8 181.91"/>
      <path fill="none" d="M174.97,159.35 L 299.8 159.35"/>
      <path fill="none" d="M174.97,136.78 L 299.8 136.78"/>
      <path fill="none" d="M174.97,114.21 L 299.8 114.21"/>
    </g>
    <g class="guide xgridlines yfixed" stroke-dasharray="0.5,0.5" stroke-width="0.2" stroke="#575757" id="img-2c58214a-37">
      <path fill="none" d="M176.97,112.21 L 176.97 183.91"/>
      <path fill="none" d="M201.14,112.21 L 201.14 183.91"/>
      <path fill="none" d="M225.3,112.21 L 225.3 183.91"/>
      <path fill="none" d="M249.47,112.21 L 249.47 183.91"/>
      <path fill="none" d="M273.63,112.21 L 273.63 183.91"/>
      <path fill="none" d="M297.8,112.21 L 297.8 183.91"/>
    </g>
    <g class="plotpanel" id="img-2c58214a-38">
      <g stroke-width="0.3" fill="#000000" fill-opacity="0.000" class="geometry" stroke-dasharray="none" stroke="#FE4365" id="img-2c58214a-39">
        <path fill="none" d="M181.81,181.91 L 186.64 149.28 191.47 181.91 196.3 181.91 201.14 181.91 205.97 181.91 210.8 181.91 215.64 181.91 220.47 170.3 225.3 118.28 230.14 145.79 234.97 144.07 239.8 137.19 244.64 147.51 249.47 147.51 254.3 150.95 259.14 137.19 263.97 119.99 268.8 181.91 273.63 181.91 278.47 181.91 283.3 181.91 288.13 181.91 292.97 181.91"/>
      </g>
    </g>
  </g>
</g>
  <g class="guide ylabels" font-size="2.82" font-family="'PT Sans Caption','Helvetica Neue','Helvetica',sans-serif" fill="#A1A1A1" id="img-2c58214a-40">
    <text x="173.97" y="181.91" text-anchor="end" dy="0.35em">0</text>
    <text x="173.97" y="159.35" text-anchor="end" dy="0.35em">1×10³</text>
    <text x="173.97" y="136.78" text-anchor="end" dy="0.35em">2×10³</text>
    <text x="173.97" y="114.21" text-anchor="end" dy="0.35em">3×10³</text>
  </g>
  <g font-size="3.88" font-family="'PT Sans','Helvetica Neue','Helvetica',sans-serif" fill="#A1A1A1" stroke="#000000" stroke-opacity="0.000" id="img-2c58214a-41">
    <text x="161.21" y="148.06" text-anchor="end" dy="0.35em">y</text>
  </g>
  <g font-size="3.88" font-family="'PT Sans','Helvetica Neue','Helvetica',sans-serif" fill="#A1A1A1" stroke="#000000" stroke-opacity="0.000" id="img-2c58214a-42">
    <text x="237.39" y="106.6" text-anchor="middle" dy="0.6em">PM2.5 Removed by Filters</text>
  </g>
</g>
<g stroke="#000000" stroke-opacity="0.000" fill="#222831" id="img-2c58214a-43">
  <rect x="0" y="101.6" width="152.4" height="101.6"/>
</g>
<g class="plotroot xscalable yscalable" id="img-2c58214a-44">
  <g font-size="3.88" font-family="'PT Sans','Helvetica Neue','Helvetica',sans-serif" fill="#A1A1A1" stroke="#000000" stroke-opacity="0.000" id="img-2c58214a-45">
    <text x="81.78" y="191.59" text-anchor="middle" dy="0.6em">x</text>
  </g>
  <g class="guide xlabels" font-size="2.82" font-family="'PT Sans Caption','Helvetica Neue','Helvetica',sans-serif" fill="#A1A1A1" id="img-2c58214a-46">
    <text x="18.15" y="184.91" text-anchor="middle" dy="0.6em">0</text>
    <text x="43.6" y="184.91" text-anchor="middle" dy="0.6em">5</text>
    <text x="69.05" y="184.91" text-anchor="middle" dy="0.6em">10</text>
    <text x="94.5" y="184.91" text-anchor="middle" dy="0.6em">15</text>
    <text x="119.95" y="184.91" text-anchor="middle" dy="0.6em">20</text>
    <text x="145.4" y="184.91" text-anchor="middle" dy="0.6em">25</text>
  </g>
<g clip-path="url(#img-2c58214a-47)">
  <g id="img-2c58214a-48">
    <g pointer-events="visible" opacity="1" fill="#222831" stroke="#000000" stroke-opacity="0.000" class="guide background" id="img-2c58214a-49">
      <rect x="16.15" y="112.21" width="131.25" height="71.7"/>
    </g>
    <g class="guide ygridlines xfixed" stroke-dasharray="0.5,0.5" stroke-width="0.2" stroke="#575757" id="img-2c58214a-50">
      <path fill="none" d="M16.15,181.91 L 147.4 181.91"/>
      <path fill="none" d="M16.15,159.35 L 147.4 159.35"/>
      <path fill="none" d="M16.15,136.78 L 147.4 136.78"/>
      <path fill="none" d="M16.15,114.21 L 147.4 114.21"/>
    </g>
    <g class="guide xgridlines yfixed" stroke-dasharray="0.5,0.5" stroke-width="0.2" stroke="#575757" id="img-2c58214a-51">
      <path fill="none" d="M18.15,112.21 L 18.15 183.91"/>
      <path fill="none" d="M43.6,112.21 L 43.6 183.91"/>
      <path fill="none" d="M69.05,112.21 L 69.05 183.91"/>
      <path fill="none" d="M94.5,112.21 L 94.5 183.91"/>
      <path fill="none" d="M119.95,112.21 L 119.95 183.91"/>
      <path fill="none" d="M145.4,112.21 L 145.4 183.91"/>
    </g>
    <g class="plotpanel" id="img-2c58214a-52">
      <g stroke-width="0.3" fill="#000000" fill-opacity="0.000" class="geometry" stroke-dasharray="none" stroke="#FE4365" id="img-2c58214a-53">
        <path fill="none" d="M18.15,114.21 L 23.24 170.63 28.33 170.63 33.42 170.63 38.51 170.63 43.6 170.63 48.69 170.63 53.78 170.63 58.87 170.63 63.96 170.63 69.05 170.63 74.14 170.63 79.23 170.63 84.32 170.63 89.41 170.63 94.5 170.63 99.59 170.63 104.68 170.63 109.77 170.63 114.86 170.63 119.95 170.63 125.04 170.63 130.13 170.63 135.22 170.63"/>
      </g>
    </g>
  </g>
</g>
  <g class="guide ylabels" font-size="2.82" font-family="'PT Sans Caption','Helvetica Neue','Helvetica',sans-serif" fill="#A1A1A1" id="img-2c58214a-54">
    <text x="15.15" y="181.91" text-anchor="end" dy="0.35em">30</text>
    <text x="15.15" y="159.35" text-anchor="end" dy="0.35em">40</text>
    <text x="15.15" y="136.78" text-anchor="end" dy="0.35em">50</text>
    <text x="15.15" y="114.21" text-anchor="end" dy="0.35em">60</text>
  </g>
  <g font-size="3.88" font-family="'PT Sans','Helvetica Neue','Helvetica',sans-serif" fill="#A1A1A1" stroke="#000000" stroke-opacity="0.000" id="img-2c58214a-55">
    <text x="8.81" y="148.06" text-anchor="end" dy="0.35em">y</text>
  </g>
  <g font-size="3.88" font-family="'PT Sans','Helvetica Neue','Helvetica',sans-serif" fill="#A1A1A1" stroke="#000000" stroke-opacity="0.000" id="img-2c58214a-56">
    <text x="81.78" y="106.6" text-anchor="middle" dy="0.6em">PM2.5 Concentration (µg)</text>
  </g>
</g>
<g stroke="#000000" stroke-opacity="0.000" fill="#222831" id="img-2c58214a-57">
  <rect x="152.4" y="0" width="152.4" height="101.6"/>
</g>
<g class="plotroot xscalable yscalable" id="img-2c58214a-58">
  <g font-size="3.88" font-family="'PT Sans','Helvetica Neue','Helvetica',sans-serif" fill="#A1A1A1" stroke="#000000" stroke-opacity="0.000" id="img-2c58214a-59">
    <text x="235.01" y="89.99" text-anchor="middle" dy="0.6em">x</text>
  </g>
  <g class="guide xlabels" font-size="2.82" font-family="'PT Sans Caption','Helvetica Neue','Helvetica',sans-serif" fill="#A1A1A1" id="img-2c58214a-60">
    <text x="172.23" y="83.31" text-anchor="middle" dy="0.6em">0</text>
    <text x="197.34" y="83.31" text-anchor="middle" dy="0.6em">5</text>
    <text x="222.46" y="83.31" text-anchor="middle" dy="0.6em">10</text>
    <text x="247.57" y="83.31" text-anchor="middle" dy="0.6em">15</text>
    <text x="272.69" y="83.31" text-anchor="middle" dy="0.6em">20</text>
    <text x="297.8" y="83.31" text-anchor="middle" dy="0.6em">25</text>
  </g>
<g clip-path="url(#img-2c58214a-61)">
  <g id="img-2c58214a-62">
    <g pointer-events="visible" opacity="1" fill="#222831" stroke="#000000" stroke-opacity="0.000" class="guide background" id="img-2c58214a-63">
      <rect x="170.23" y="10.61" width="129.57" height="71.7"/>
    </g>
    <g class="guide ygridlines xfixed" stroke-dasharray="0.5,0.5" stroke-width="0.2" stroke="#575757" id="img-2c58214a-64">
      <path fill="none" d="M170.23,80.31 L 299.8 80.31"/>
      <path fill="none" d="M170.23,66.77 L 299.8 66.77"/>
      <path fill="none" d="M170.23,53.23 L 299.8 53.23"/>
      <path fill="none" d="M170.23,39.69 L 299.8 39.69"/>
      <path fill="none" d="M170.23,26.15 L 299.8 26.15"/>
      <path fill="none" d="M170.23,12.61 L 299.8 12.61"/>
    </g>
    <g class="guide xgridlines yfixed" stroke-dasharray="0.5,0.5" stroke-width="0.2" stroke="#575757" id="img-2c58214a-65">
      <path fill="none" d="M172.23,10.61 L 172.23 82.31"/>
      <path fill="none" d="M197.34,10.61 L 197.34 82.31"/>
      <path fill="none" d="M222.46,10.61 L 222.46 82.31"/>
      <path fill="none" d="M247.57,10.61 L 247.57 82.31"/>
      <path fill="none" d="M272.69,10.61 L 272.69 82.31"/>
      <path fill="none" d="M297.8,10.61 L 297.8 82.31"/>
    </g>
    <g class="plotpanel" id="img-2c58214a-66">
      <g stroke-width="0.3" fill="#000000" fill-opacity="0.000" class="geometry" stroke-dasharray="none" stroke="#FE4365" id="img-2c58214a-67">
        <path fill="none" d="M172.23,66.77 L 177.25 66.77 182.27 66.77 187.29 66.77 192.32 66.77 197.34 66.77 202.36 66.77 207.39 66.77 212.41 12.61 217.43 12.61 222.46 12.61 227.48 12.61 232.5 12.61 237.52 12.61 242.55 12.61 247.57 12.61 252.59 12.61 257.62 12.61 262.64 12.61 267.66 12.61 272.69 12.61 277.71 12.61 282.73 12.61 287.75 12.61"/>
      </g>
    </g>
  </g>
</g>
  <g class="guide ylabels" font-size="2.82" font-family="'PT Sans Caption','Helvetica Neue','Helvetica',sans-serif" fill="#A1A1A1" id="img-2c58214a-68">
    <text x="169.23" y="80.31" text-anchor="end" dy="0.35em">300</text>
    <text x="169.23" y="66.77" text-anchor="end" dy="0.35em">400</text>
    <text x="169.23" y="53.23" text-anchor="end" dy="0.35em">500</text>
    <text x="169.23" y="39.69" text-anchor="end" dy="0.35em">600</text>
    <text x="169.23" y="26.15" text-anchor="end" dy="0.35em">700</text>
    <text x="169.23" y="12.61" text-anchor="end" dy="0.35em">800</text>
  </g>
  <g font-size="3.88" font-family="'PT Sans','Helvetica Neue','Helvetica',sans-serif" fill="#A1A1A1" stroke="#000000" stroke-opacity="0.000" id="img-2c58214a-69">
    <text x="161.21" y="46.46" text-anchor="end" dy="0.35em">y</text>
  </g>
  <g font-size="3.88" font-family="'PT Sans','Helvetica Neue','Helvetica',sans-serif" fill="#A1A1A1" stroke="#000000" stroke-opacity="0.000" id="img-2c58214a-70">
    <text x="235.01" y="5" text-anchor="middle" dy="0.6em">CO2 Concentration inside room (ppm)</text>
  </g>
</g>
<g stroke="#000000" stroke-opacity="0.000" fill="#222831" id="img-2c58214a-71">
  <rect x="0" y="0" width="152.4" height="101.6"/>
</g>
<g class="plotroot xscalable yscalable" id="img-2c58214a-72">
  <g font-size="3.88" font-family="'PT Sans','Helvetica Neue','Helvetica',sans-serif" fill="#A1A1A1" stroke="#000000" stroke-opacity="0.000" id="img-2c58214a-73">
    <text x="82.61" y="89.99" text-anchor="middle" dy="0.6em">x</text>
  </g>
  <g class="guide xlabels" font-size="2.82" font-family="'PT Sans Caption','Helvetica Neue','Helvetica',sans-serif" fill="#A1A1A1" id="img-2c58214a-74">
    <text x="19.83" y="83.31" text-anchor="middle" dy="0.6em">0</text>
    <text x="44.94" y="83.31" text-anchor="middle" dy="0.6em">5</text>
    <text x="70.06" y="83.31" text-anchor="middle" dy="0.6em">10</text>
    <text x="95.17" y="83.31" text-anchor="middle" dy="0.6em">15</text>
    <text x="120.29" y="83.31" text-anchor="middle" dy="0.6em">20</text>
    <text x="145.4" y="83.31" text-anchor="middle" dy="0.6em">25</text>
  </g>
<g clip-path="url(#img-2c58214a-75)">
  <g id="img-2c58214a-76">
    <g pointer-events="visible" opacity="1" fill="#222831" stroke="#000000" stroke-opacity="0.000" class="guide background" id="img-2c58214a-77">
      <rect x="17.83" y="10.61" width="129.57" height="71.7"/>
    </g>
    <g class="guide ygridlines xfixed" stroke-dasharray="0.5,0.5" stroke-width="0.2" stroke="#575757" id="img-2c58214a-78">
      <path fill="none" d="M17.83,80.31 L 147.4 80.31"/>
      <path fill="none" d="M17.83,63.39 L 147.4 63.39"/>
      <path fill="none" d="M17.83,46.46 L 147.4 46.46"/>
      <path fill="none" d="M17.83,29.54 L 147.4 29.54"/>
      <path fill="none" d="M17.83,12.61 L 147.4 12.61"/>
    </g>
    <g class="guide xgridlines yfixed" stroke-dasharray="0.5,0.5" stroke-width="0.2" stroke="#575757" id="img-2c58214a-79">
      <path fill="none" d="M19.83,10.61 L 19.83 82.31"/>
      <path fill="none" d="M44.94,10.61 L 44.94 82.31"/>
      <path fill="none" d="M70.06,10.61 L 70.06 82.31"/>
      <path fill="none" d="M95.17,10.61 L 95.17 82.31"/>
      <path fill="none" d="M120.29,10.61 L 120.29 82.31"/>
      <path fill="none" d="M145.4,10.61 L 145.4 82.31"/>
    </g>
    <g class="plotpanel" id="img-2c58214a-80">
      <g stroke-width="0.3" fill="#000000" fill-opacity="0.000" class="geometry" stroke-dasharray="none" stroke="#FE4365" id="img-2c58214a-81">
        <path fill="none" d="M24.85,80.31 L 29.87 80.31 34.89 80.31 39.92 80.31 44.94 80.31 49.96 80.31 54.99 80.31 60.01 80.31 65.03 74.09 70.06 54.52 75.08 54.51 80.1 28.71 85.12 28.71 90.15 54.51 95.17 28.71 100.19 28.71 105.22 28.71 110.24 28.71 115.26 80.31 120.29 80.31 125.31 80.31 130.33 80.31 135.35 80.31 140.38 80.31"/>
      </g>
    </g>
  </g>
</g>
  <g class="guide ylabels" font-size="2.82" font-family="'PT Sans Caption','Helvetica Neue','Helvetica',sans-serif" fill="#A1A1A1" id="img-2c58214a-82">
    <text x="16.83" y="80.31" text-anchor="end" dy="0.35em">0</text>
    <text x="16.83" y="63.39" text-anchor="end" dy="0.35em">50</text>
    <text x="16.83" y="46.46" text-anchor="end" dy="0.35em">100</text>
    <text x="16.83" y="29.54" text-anchor="end" dy="0.35em">150</text>
    <text x="16.83" y="12.61" text-anchor="end" dy="0.35em">200</text>
  </g>
  <g font-size="3.88" font-family="'PT Sans','Helvetica Neue','Helvetica',sans-serif" fill="#A1A1A1" stroke="#000000" stroke-opacity="0.000" id="img-2c58214a-83">
    <text x="8.81" y="46.46" text-anchor="end" dy="0.35em">y</text>
  </g>
  <g font-size="3.88" font-family="'PT Sans','Helvetica Neue','Helvetica',sans-serif" fill="#A1A1A1" stroke="#000000" stroke-opacity="0.000" id="img-2c58214a-84">
    <text x="82.61" y="5" text-anchor="middle" dy="0.6em">CMH at timestep x</text>
  </g>
</g>
<defs>
  <clipPath id="img-2c58214a-5">
  <path d="M166.88,213.81 L 299.8 213.81 299.8 285.51 166.88 285.51" />
</clipPath>
  <clipPath id="img-2c58214a-19">
  <path d="M20.17,213.81 L 147.4 213.81 147.4 285.51 20.17 285.51" />
</clipPath>
  <clipPath id="img-2c58214a-33">
  <path d="M174.97,112.21 L 299.8 112.21 299.8 183.91 174.97 183.91" />
</clipPath>
  <clipPath id="img-2c58214a-47">
  <path d="M16.15,112.21 L 147.4 112.21 147.4 183.91 16.15 183.91" />
</clipPath>
  <clipPath id="img-2c58214a-61">
  <path d="M170.23,10.61 L 299.8 10.61 299.8 82.31 170.23 82.31" />
</clipPath>
  <clipPath id="img-2c58214a-75">
  <path d="M17.83,10.61 L 147.4 10.61 147.4 82.31 17.83 82.31" />
</clipPath>
</defs>
</svg>
