<?xml version="1.0" encoding="UTF-8"?>
<svg xmlns="http://www.w3.org/2000/svg"
     xmlns:xlink="http://www.w3.org/1999/xlink"
     xmlns:gadfly="http://www.gadflyjl.org/ns"
     version="1.2"
     width="304.8mm" height="304.8mm" viewBox="0 0 304.8 304.8"
     stroke="none"
     fill="#000000"
     stroke-width="0.3"
     font-size="3.88"
>
<g stroke="#000000" stroke-opacity="0.000" fill="#222831" id="img-e7dad7b3-1">
  <rect x="152.4" y="203.2" width="152.4" height="101.6"/>
</g>
<g class="plotroot xscalable yscalable" id="img-e7dad7b3-2">
  <g font-size="3.88" font-family="'PT Sans','Helvetica Neue','Helvetica',sans-serif" fill="#A1A1A1" stroke="#000000" stroke-opacity="0.000" id="img-e7dad7b3-3">
    <text x="233.34" y="293.19" text-anchor="middle" dy="0.6em">x</text>
  </g>
  <g class="guide xlabels" font-size="2.82" font-family="'PT Sans Caption','Helvetica Neue','Helvetica',sans-serif" fill="#A1A1A1" id="img-e7dad7b3-4">
    <text x="168.88" y="286.51" text-anchor="middle" dy="0.6em">0</text>
    <text x="194.66" y="286.51" text-anchor="middle" dy="0.6em">10</text>
    <text x="220.45" y="286.51" text-anchor="middle" dy="0.6em">20</text>
    <text x="246.23" y="286.51" text-anchor="middle" dy="0.6em">30</text>
    <text x="272.02" y="286.51" text-anchor="middle" dy="0.6em">40</text>
    <text x="297.8" y="286.51" text-anchor="middle" dy="0.6em">50</text>
  </g>
<g clip-path="url(#img-e7dad7b3-5)">
  <g id="img-e7dad7b3-6">
    <g pointer-events="visible" opacity="1" fill="#222831" stroke="#000000" stroke-opacity="0.000" class="guide background" id="img-e7dad7b3-7">
      <rect x="166.88" y="213.81" width="132.92" height="71.7"/>
    </g>
    <g class="guide ygridlines xfixed" stroke-dasharray="0.5,0.5" stroke-width="0.2" stroke="#575757" id="img-e7dad7b3-8">
      <path fill="none" d="M166.88,283.51 L 299.8 283.51"/>
      <path fill="none" d="M166.88,260.95 L 299.8 260.95"/>
      <path fill="none" d="M166.88,238.38 L 299.8 238.38"/>
      <path fill="none" d="M166.88,215.81 L 299.8 215.81"/>
    </g>
    <g class="guide xgridlines yfixed" stroke-dasharray="0.5,0.5" stroke-width="0.2" stroke="#575757" id="img-e7dad7b3-9">
      <path fill="none" d="M168.88,213.81 L 168.88 285.51"/>
      <path fill="none" d="M194.66,213.81 L 194.66 285.51"/>
      <path fill="none" d="M220.45,213.81 L 220.45 285.51"/>
      <path fill="none" d="M246.23,213.81 L 246.23 285.51"/>
      <path fill="none" d="M272.02,213.81 L 272.02 285.51"/>
      <path fill="none" d="M297.8,213.81 L 297.8 285.51"/>
    </g>
    <g class="plotpanel" id="img-e7dad7b3-10">
      <g stroke-width="0.3" fill="#000000" fill-opacity="0.000" class="geometry" stroke-dasharray="none" stroke="#FE4365" id="img-e7dad7b3-11">
        <path fill="none" d="M171.46,283.51 L 174.04 283.51 176.61 283.51 179.19 283.51 181.77 283.51 184.35 283.51 186.93 283.51 189.51 283.51 192.08 238.3 194.66 223.43 197.24 218.91 199.82 218.91 202.4 218.91 204.98 218.91 207.56 218.91 210.13 218.91 212.71 223.43 215.29 227.94 217.87 268.64 220.45 283.51 223.03 283.51 225.6 283.51 228.18 283.51 230.76 283.51 233.34 283.51 235.92 283.51 238.5 283.51 241.07 283.51 243.65 283.51 246.23 283.51 248.81 283.51 251.39 283.51 253.97 238.3 256.55 223.43 259.12 218.91 261.7 218.91 264.28 218.91 266.86 218.91 269.44 218.91 272.02 218.91 274.59 223.43 277.17 227.94 279.75 283.51 282.33 283.51 284.91 283.51 287.49 283.51 290.06 283.51 292.64 283.51"/>
      </g>
    </g>
  </g>
</g>
  <g class="guide ylabels" font-size="2.82" font-family="'PT Sans Caption','Helvetica Neue','Helvetica',sans-serif" fill="#A1A1A1" id="img-e7dad7b3-12">
    <text x="165.88" y="283.51" text-anchor="end" dy="0.35em">0</text>
    <text x="165.88" y="260.95" text-anchor="end" dy="0.35em">1</text>
    <text x="165.88" y="238.38" text-anchor="end" dy="0.35em">2</text>
    <text x="165.88" y="215.81" text-anchor="end" dy="0.35em">3</text>
  </g>
  <g font-size="3.88" font-family="'PT Sans','Helvetica Neue','Helvetica',sans-serif" fill="#A1A1A1" stroke="#000000" stroke-opacity="0.000" id="img-e7dad7b3-13">
    <text x="161.21" y="249.66" text-anchor="end" dy="0.35em">y</text>
  </g>
  <g font-size="3.88" font-family="'PT Sans','Helvetica Neue','Helvetica',sans-serif" fill="#A1A1A1" stroke="#000000" stroke-opacity="0.000" id="img-e7dad7b3-14">
    <text x="233.34" y="208.2" text-anchor="middle" dy="0.6em">Moisture Removed by Dehumidification</text>
  </g>
</g>
<g stroke="#000000" stroke-opacity="0.000" fill="#222831" id="img-e7dad7b3-15">
  <rect x="0" y="203.2" width="152.4" height="101.6"/>
</g>
<g class="plotroot xscalable yscalable" id="img-e7dad7b3-16">
  <g font-size="3.88" font-family="'PT Sans','Helvetica Neue','Helvetica',sans-serif" fill="#A1A1A1" stroke="#000000" stroke-opacity="0.000" id="img-e7dad7b3-17">
    <text x="83.79" y="293.19" text-anchor="middle" dy="0.6em">x</text>
  </g>
  <g class="guide xlabels" font-size="2.82" font-family="'PT Sans Caption','Helvetica Neue','Helvetica',sans-serif" fill="#A1A1A1" id="img-e7dad7b3-18">
    <text x="22.17" y="286.51" text-anchor="middle" dy="0.6em">0</text>
    <text x="46.82" y="286.51" text-anchor="middle" dy="0.6em">10</text>
    <text x="71.46" y="286.51" text-anchor="middle" dy="0.6em">20</text>
    <text x="96.11" y="286.51" text-anchor="middle" dy="0.6em">30</text>
    <text x="120.75" y="286.51" text-anchor="middle" dy="0.6em">40</text>
    <text x="145.4" y="286.51" text-anchor="middle" dy="0.6em">50</text>
  </g>
<g clip-path="url(#img-e7dad7b3-19)">
  <g id="img-e7dad7b3-20">
    <g pointer-events="visible" opacity="1" fill="#222831" stroke="#000000" stroke-opacity="0.000" class="guide background" id="img-e7dad7b3-21">
      <rect x="20.17" y="213.81" width="127.23" height="71.7"/>
    </g>
    <g class="guide ygridlines xfixed" stroke-dasharray="0.5,0.5" stroke-width="0.2" stroke="#575757" id="img-e7dad7b3-22">
      <path fill="none" d="M20.17,283.51 L 147.4 283.51"/>
      <path fill="none" d="M20.17,260.95 L 147.4 260.95"/>
      <path fill="none" d="M20.17,238.38 L 147.4 238.38"/>
      <path fill="none" d="M20.17,215.81 L 147.4 215.81"/>
    </g>
    <g class="guide xgridlines yfixed" stroke-dasharray="0.5,0.5" stroke-width="0.2" stroke="#575757" id="img-e7dad7b3-23">
      <path fill="none" d="M22.17,213.81 L 22.17 285.51"/>
      <path fill="none" d="M46.82,213.81 L 46.82 285.51"/>
      <path fill="none" d="M71.46,213.81 L 71.46 285.51"/>
      <path fill="none" d="M96.11,213.81 L 96.11 285.51"/>
      <path fill="none" d="M120.75,213.81 L 120.75 285.51"/>
      <path fill="none" d="M145.4,213.81 L 145.4 285.51"/>
    </g>
    <g class="plotpanel" id="img-e7dad7b3-24">
      <g stroke-width="0.3" fill="#000000" fill-opacity="0.000" class="geometry" stroke-dasharray="none" stroke="#FE4365" id="img-e7dad7b3-25">
        <path fill="none" d="M22.17,283.51 L 24.64 283.51 27.1 283.51 29.57 283.51 32.03 283.51 34.5 283.51 36.96 283.51 39.42 283.51 41.89 229.35 44.35 229.35 46.82 229.35 49.28 229.35 51.75 229.35 54.21 229.35 56.68 229.35 59.14 229.35 61.61 229.35 64.07 229.35 66.53 283.51 69 283.51 71.46 283.51 73.93 283.51 76.39 283.51 78.86 283.51 81.32 283.51 83.79 283.51 86.25 283.51 88.72 283.51 91.18 283.51 93.64 283.51 96.11 283.51 98.57 283.51 101.04 229.35 103.5 229.35 105.97 229.35 108.43 229.35 110.9 229.35 113.36 229.35 115.83 229.35 118.29 229.35 120.75 229.35 123.22 229.35 125.68 229.35 128.15 229.35 130.61 229.35 133.08 229.35 135.54 229.35 138.01 229.35"/>
      </g>
    </g>
  </g>
</g>
  <g class="guide ylabels" font-size="2.82" font-family="'PT Sans Caption','Helvetica Neue','Helvetica',sans-serif" fill="#A1A1A1" id="img-e7dad7b3-26">
    <text x="19.17" y="283.51" text-anchor="end" dy="0.35em">0.000</text>
    <text x="19.17" y="260.95" text-anchor="end" dy="0.35em">0.005</text>
    <text x="19.17" y="238.38" text-anchor="end" dy="0.35em">0.010</text>
    <text x="19.17" y="215.81" text-anchor="end" dy="0.35em">0.015</text>
  </g>
  <g font-size="3.88" font-family="'PT Sans','Helvetica Neue','Helvetica',sans-serif" fill="#A1A1A1" stroke="#000000" stroke-opacity="0.000" id="img-e7dad7b3-27">
    <text x="8.81" y="249.66" text-anchor="end" dy="0.35em">y</text>
  </g>
  <g font-size="3.88" font-family="'PT Sans','Helvetica Neue','Helvetica',sans-serif" fill="#A1A1A1" stroke="#000000" stroke-opacity="0.000" id="img-e7dad7b3-28">
    <text x="83.79" y="208.2" text-anchor="middle" dy="0.6em">Humidity Ratio (kg Water / kg dry air)</text>
  </g>
</g>
<g stroke="#000000" stroke-opacity="0.000" fill="#222831" id="img-e7dad7b3-29">
  <rect x="152.4" y="101.6" width="152.4" height="101.6"/>
</g>
<g class="plotroot xscalable yscalable" id="img-e7dad7b3-30">
  <g font-size="3.88" font-family="'PT Sans','Helvetica Neue','Helvetica',sans-serif" fill="#A1A1A1" stroke="#000000" stroke-opacity="0.000" id="img-e7dad7b3-31">
    <text x="238.56" y="191.59" text-anchor="middle" dy="0.6em">x</text>
  </g>
  <g class="guide xlabels" font-size="2.82" font-family="'PT Sans Caption','Helvetica Neue','Helvetica',sans-serif" fill="#A1A1A1" id="img-e7dad7b3-32">
    <text x="179.32" y="184.91" text-anchor="middle" dy="0.6em">0</text>
    <text x="203.02" y="184.91" text-anchor="middle" dy="0.6em">10</text>
    <text x="226.71" y="184.91" text-anchor="middle" dy="0.6em">20</text>
    <text x="250.41" y="184.91" text-anchor="middle" dy="0.6em">30</text>
    <text x="274.1" y="184.91" text-anchor="middle" dy="0.6em">40</text>
    <text x="297.8" y="184.91" text-anchor="middle" dy="0.6em">50</text>
  </g>
<g clip-path="url(#img-e7dad7b3-33)">
  <g id="img-e7dad7b3-34">
    <g pointer-events="visible" opacity="1" fill="#222831" stroke="#000000" stroke-opacity="0.000" class="guide background" id="img-e7dad7b3-35">
      <rect x="177.32" y="112.21" width="122.48" height="71.7"/>
    </g>
    <g class="guide ygridlines xfixed" stroke-dasharray="0.5,0.5" stroke-width="0.2" stroke="#575757" id="img-e7dad7b3-36">
      <path fill="none" d="M177.32,181.91 L 299.8 181.91"/>
      <path fill="none" d="M177.32,168.37 L 299.8 168.37"/>
      <path fill="none" d="M177.32,154.83 L 299.8 154.83"/>
      <path fill="none" d="M177.32,141.29 L 299.8 141.29"/>
      <path fill="none" d="M177.32,127.75 L 299.8 127.75"/>
      <path fill="none" d="M177.32,114.21 L 299.8 114.21"/>
    </g>
    <g class="guide xgridlines yfixed" stroke-dasharray="0.5,0.5" stroke-width="0.2" stroke="#575757" id="img-e7dad7b3-37">
      <path fill="none" d="M179.32,112.21 L 179.32 183.91"/>
      <path fill="none" d="M203.02,112.21 L 203.02 183.91"/>
      <path fill="none" d="M226.71,112.21 L 226.71 183.91"/>
      <path fill="none" d="M250.41,112.21 L 250.41 183.91"/>
      <path fill="none" d="M274.1,112.21 L 274.1 183.91"/>
      <path fill="none" d="M297.8,112.21 L 297.8 183.91"/>
    </g>
    <g class="plotpanel" id="img-e7dad7b3-38">
      <g stroke-width="0.3" fill="#000000" fill-opacity="0.000" class="geometry" stroke-dasharray="none" stroke="#FE4365" id="img-e7dad7b3-39">
        <path fill="none" d="M181.69,181.91 L 184.06 181.91 186.43 181.91 188.8 181.91 191.17 181.91 193.54 181.91 195.91 181.91 198.28 181.91 200.65 122 203.02 121.58 205.38 121.58 207.75 121.58 210.12 121.58 212.49 121.58 214.86 121.58 217.23 121.58 219.6 121.58 221.97 121.58 224.34 181.91 226.71 181.49 229.08 181.91 231.45 181.91 233.82 181.91 236.19 181.91 238.56 181.91 240.93 181.91 243.3 181.91 245.67 181.91 248.04 181.91 250.41 181.91 252.78 181.91 255.15 181.91 257.52 122 259.89 121.58 262.26 121.58 264.63 121.58 266.99 121.58 269.36 121.58 271.73 121.58 274.1 121.58 276.47 121.58 278.84 121.58 281.21 181.91 283.58 181.91 285.95 181.91 288.32 181.91 290.69 181.91 293.06 181.91"/>
      </g>
    </g>
  </g>
</g>
  <g class="guide ylabels" font-size="2.82" font-family="'PT Sans Caption','Helvetica Neue','Helvetica',sans-serif" fill="#A1A1A1" id="img-e7dad7b3-40">
    <text x="176.32" y="181.91" text-anchor="end" dy="0.35em">0</text>
    <text x="176.32" y="168.37" text-anchor="end" dy="0.35em">5.0×10⁴</text>
    <text x="176.32" y="154.83" text-anchor="end" dy="0.35em">1.0×10⁵</text>
    <text x="176.32" y="141.29" text-anchor="end" dy="0.35em">1.5×10⁵</text>
    <text x="176.32" y="127.75" text-anchor="end" dy="0.35em">2.0×10⁵</text>
    <text x="176.32" y="114.21" text-anchor="end" dy="0.35em">2.5×10⁵</text>
  </g>
  <g font-size="3.88" font-family="'PT Sans','Helvetica Neue','Helvetica',sans-serif" fill="#A1A1A1" stroke="#000000" stroke-opacity="0.000" id="img-e7dad7b3-41">
    <text x="161.21" y="148.06" text-anchor="end" dy="0.35em">y</text>
  </g>
  <g font-size="3.88" font-family="'PT Sans','Helvetica Neue','Helvetica',sans-serif" fill="#A1A1A1" stroke="#000000" stroke-opacity="0.000" id="img-e7dad7b3-42">
    <text x="238.56" y="106.6" text-anchor="middle" dy="0.6em">PM2.5 Removed by Filters</text>
  </g>
</g>
<g stroke="#000000" stroke-opacity="0.000" fill="#222831" id="img-e7dad7b3-43">
  <rect x="0" y="101.6" width="152.4" height="101.6"/>
</g>
<g class="plotroot xscalable yscalable" id="img-e7dad7b3-44">
  <g font-size="3.88" font-family="'PT Sans','Helvetica Neue','Helvetica',sans-serif" fill="#A1A1A1" stroke="#000000" stroke-opacity="0.000" id="img-e7dad7b3-45">
    <text x="81.78" y="191.59" text-anchor="middle" dy="0.6em">x</text>
  </g>
  <g class="guide xlabels" font-size="2.82" font-family="'PT Sans Caption','Helvetica Neue','Helvetica',sans-serif" fill="#A1A1A1" id="img-e7dad7b3-46">
    <text x="18.15" y="184.91" text-anchor="middle" dy="0.6em">0</text>
    <text x="43.6" y="184.91" text-anchor="middle" dy="0.6em">10</text>
    <text x="69.05" y="184.91" text-anchor="middle" dy="0.6em">20</text>
    <text x="94.5" y="184.91" text-anchor="middle" dy="0.6em">30</text>
    <text x="119.95" y="184.91" text-anchor="middle" dy="0.6em">40</text>
    <text x="145.4" y="184.91" text-anchor="middle" dy="0.6em">50</text>
  </g>
<g clip-path="url(#img-e7dad7b3-47)">
  <g id="img-e7dad7b3-48">
    <g pointer-events="visible" opacity="1" fill="#222831" stroke="#000000" stroke-opacity="0.000" class="guide background" id="img-e7dad7b3-49">
      <rect x="16.15" y="112.21" width="131.25" height="71.7"/>
    </g>
    <g class="guide ygridlines xfixed" stroke-dasharray="0.5,0.5" stroke-width="0.2" stroke="#575757" id="img-e7dad7b3-50">
      <path fill="none" d="M16.15,181.91 L 147.4 181.91"/>
      <path fill="none" d="M16.15,164.99 L 147.4 164.99"/>
      <path fill="none" d="M16.15,148.06 L 147.4 148.06"/>
      <path fill="none" d="M16.15,131.14 L 147.4 131.14"/>
      <path fill="none" d="M16.15,114.21 L 147.4 114.21"/>
    </g>
    <g class="guide xgridlines yfixed" stroke-dasharray="0.5,0.5" stroke-width="0.2" stroke="#575757" id="img-e7dad7b3-51">
      <path fill="none" d="M18.15,112.21 L 18.15 183.91"/>
      <path fill="none" d="M43.6,112.21 L 43.6 183.91"/>
      <path fill="none" d="M69.05,112.21 L 69.05 183.91"/>
      <path fill="none" d="M94.5,112.21 L 94.5 183.91"/>
      <path fill="none" d="M119.95,112.21 L 119.95 183.91"/>
      <path fill="none" d="M145.4,112.21 L 145.4 183.91"/>
    </g>
    <g class="plotpanel" id="img-e7dad7b3-52">
      <g stroke-width="0.3" fill="#000000" fill-opacity="0.000" class="geometry" stroke-dasharray="none" stroke="#FE4365" id="img-e7dad7b3-53">
        <path fill="none" d="M18.15,181.91 L 20.7 181.91 23.24 181.91 25.79 181.91 28.33 181.91 30.88 181.91 33.42 181.91 35.97 181.91 38.51 122.67 41.06 122.67 43.6 122.67 46.15 122.67 48.69 122.67 51.24 122.67 53.78 122.67 56.33 122.67 58.87 122.67 61.42 122.67 63.96 122.67 66.51 181.91 69.05 181.91 71.6 181.91 74.14 181.91 76.69 181.91 79.23 181.91 81.78 181.91 84.32 181.91 86.87 181.91 89.41 181.91 91.96 181.91 94.5 181.91 97.05 181.91 99.59 122.67 102.14 122.67 104.68 122.67 107.23 122.67 109.77 122.67 112.32 122.67 114.86 122.67 117.41 122.67 119.95 122.67 122.5 122.67 125.04 122.67 127.59 122.67 130.13 122.67 132.68 122.67 135.22 122.67 137.77 122.67"/>
      </g>
    </g>
  </g>
</g>
  <g class="guide ylabels" font-size="2.82" font-family="'PT Sans Caption','Helvetica Neue','Helvetica',sans-serif" fill="#A1A1A1" id="img-e7dad7b3-54">
    <text x="15.15" y="181.91" text-anchor="end" dy="0.35em">0</text>
    <text x="15.15" y="164.99" text-anchor="end" dy="0.35em">10</text>
    <text x="15.15" y="148.06" text-anchor="end" dy="0.35em">20</text>
    <text x="15.15" y="131.14" text-anchor="end" dy="0.35em">30</text>
    <text x="15.15" y="114.21" text-anchor="end" dy="0.35em">40</text>
  </g>
  <g font-size="3.88" font-family="'PT Sans','Helvetica Neue','Helvetica',sans-serif" fill="#A1A1A1" stroke="#000000" stroke-opacity="0.000" id="img-e7dad7b3-55">
    <text x="8.81" y="148.06" text-anchor="end" dy="0.35em">y</text>
  </g>
  <g font-size="3.88" font-family="'PT Sans','Helvetica Neue','Helvetica',sans-serif" fill="#A1A1A1" stroke="#000000" stroke-opacity="0.000" id="img-e7dad7b3-56">
    <text x="81.78" y="106.6" text-anchor="middle" dy="0.6em">PM2.5 Concentration (µg)</text>
  </g>
</g>
<g stroke="#000000" stroke-opacity="0.000" fill="#222831" id="img-e7dad7b3-57">
  <rect x="152.4" y="0" width="152.4" height="101.6"/>
</g>
<g class="plotroot xscalable yscalable" id="img-e7dad7b3-58">
  <g font-size="3.88" font-family="'PT Sans','Helvetica Neue','Helvetica',sans-serif" fill="#A1A1A1" stroke="#000000" stroke-opacity="0.000" id="img-e7dad7b3-59">
    <text x="235.01" y="89.99" text-anchor="middle" dy="0.6em">x</text>
  </g>
  <g class="guide xlabels" font-size="2.82" font-family="'PT Sans Caption','Helvetica Neue','Helvetica',sans-serif" fill="#A1A1A1" id="img-e7dad7b3-60">
    <text x="172.23" y="83.31" text-anchor="middle" dy="0.6em">0</text>
    <text x="197.34" y="83.31" text-anchor="middle" dy="0.6em">10</text>
    <text x="222.46" y="83.31" text-anchor="middle" dy="0.6em">20</text>
    <text x="247.57" y="83.31" text-anchor="middle" dy="0.6em">30</text>
    <text x="272.69" y="83.31" text-anchor="middle" dy="0.6em">40</text>
    <text x="297.8" y="83.31" text-anchor="middle" dy="0.6em">50</text>
  </g>
<g clip-path="url(#img-e7dad7b3-61)">
  <g id="img-e7dad7b3-62">
    <g pointer-events="visible" opacity="1" fill="#222831" stroke="#000000" stroke-opacity="0.000" class="guide background" id="img-e7dad7b3-63">
      <rect x="170.23" y="10.61" width="129.57" height="71.7"/>
    </g>
    <g class="guide ygridlines xfixed" stroke-dasharray="0.5,0.5" stroke-width="0.2" stroke="#575757" id="img-e7dad7b3-64">
      <path fill="none" d="M170.23,80.31 L 299.8 80.31"/>
      <path fill="none" d="M170.23,63.39 L 299.8 63.39"/>
      <path fill="none" d="M170.23,46.46 L 299.8 46.46"/>
      <path fill="none" d="M170.23,29.54 L 299.8 29.54"/>
      <path fill="none" d="M170.23,12.61 L 299.8 12.61"/>
    </g>
    <g class="guide xgridlines yfixed" stroke-dasharray="0.5,0.5" stroke-width="0.2" stroke="#575757" id="img-e7dad7b3-65">
      <path fill="none" d="M172.23,10.61 L 172.23 82.31"/>
      <path fill="none" d="M197.34,10.61 L 197.34 82.31"/>
      <path fill="none" d="M222.46,10.61 L 222.46 82.31"/>
      <path fill="none" d="M247.57,10.61 L 247.57 82.31"/>
      <path fill="none" d="M272.69,10.61 L 272.69 82.31"/>
      <path fill="none" d="M297.8,10.61 L 297.8 82.31"/>
    </g>
    <g class="plotpanel" id="img-e7dad7b3-66">
      <g stroke-width="0.3" fill="#000000" fill-opacity="0.000" class="geometry" stroke-dasharray="none" stroke="#FE4365" id="img-e7dad7b3-67">
        <path fill="none" d="M172.23,80.31 L 174.74 80.31 177.25 80.31 179.76 80.31 182.27 80.31 184.78 80.31 187.29 80.31 189.81 80.31 192.32 33.25 194.83 25.6 197.34 15 199.85 13.27 202.36 12.99 204.88 12.95 207.39 12.94 209.9 12.94 212.41 22.3 214.92 33.18 217.43 33.18 219.94 33.18 222.46 33.18 224.97 33.18 227.48 33.18 229.99 33.18 232.5 33.18 235.01 33.18 237.52 33.18 240.04 33.18 242.55 33.18 245.06 33.18 247.57 33.18 250.08 33.18 252.59 25.59 255.1 24.35 257.62 14.79 260.13 13.24 262.64 12.99 265.15 12.95 267.66 12.94 270.17 12.94 272.69 22.3 275.2 33.18 277.71 33.18 280.22 33.18 282.73 33.18 285.24 33.18 287.75 33.18 290.27 33.18"/>
      </g>
    </g>
  </g>
</g>
  <g class="guide ylabels" font-size="2.82" font-family="'PT Sans Caption','Helvetica Neue','Helvetica',sans-serif" fill="#A1A1A1" id="img-e7dad7b3-68">
    <text x="169.23" y="80.31" text-anchor="end" dy="0.35em">0</text>
    <text x="169.23" y="63.39" text-anchor="end" dy="0.35em">200</text>
    <text x="169.23" y="46.46" text-anchor="end" dy="0.35em">400</text>
    <text x="169.23" y="29.54" text-anchor="end" dy="0.35em">600</text>
    <text x="169.23" y="12.61" text-anchor="end" dy="0.35em">800</text>
  </g>
  <g font-size="3.88" font-family="'PT Sans','Helvetica Neue','Helvetica',sans-serif" fill="#A1A1A1" stroke="#000000" stroke-opacity="0.000" id="img-e7dad7b3-69">
    <text x="161.21" y="46.46" text-anchor="end" dy="0.35em">y</text>
  </g>
  <g font-size="3.88" font-family="'PT Sans','Helvetica Neue','Helvetica',sans-serif" fill="#A1A1A1" stroke="#000000" stroke-opacity="0.000" id="img-e7dad7b3-70">
    <text x="235.01" y="5" text-anchor="middle" dy="0.6em">CO2 Concentration inside room (ppm)</text>
  </g>
</g>
<g stroke="#000000" stroke-opacity="0.000" fill="#222831" id="img-e7dad7b3-71">
  <rect x="0" y="0" width="152.4" height="101.6"/>
</g>
<g class="plotroot xscalable yscalable" id="img-e7dad7b3-72">
  <g font-size="3.88" font-family="'PT Sans','Helvetica Neue','Helvetica',sans-serif" fill="#A1A1A1" stroke="#000000" stroke-opacity="0.000" id="img-e7dad7b3-73">
    <text x="82.61" y="89.99" text-anchor="middle" dy="0.6em">x</text>
  </g>
  <g class="guide xlabels" font-size="2.82" font-family="'PT Sans Caption','Helvetica Neue','Helvetica',sans-serif" fill="#A1A1A1" id="img-e7dad7b3-74">
    <text x="19.83" y="83.31" text-anchor="middle" dy="0.6em">0</text>
    <text x="44.94" y="83.31" text-anchor="middle" dy="0.6em">5</text>
    <text x="70.06" y="83.31" text-anchor="middle" dy="0.6em">10</text>
    <text x="95.17" y="83.31" text-anchor="middle" dy="0.6em">15</text>
    <text x="120.29" y="83.31" text-anchor="middle" dy="0.6em">20</text>
    <text x="145.4" y="83.31" text-anchor="middle" dy="0.6em">25</text>
  </g>
<g clip-path="url(#img-e7dad7b3-75)">
  <g id="img-e7dad7b3-76">
    <g pointer-events="visible" opacity="1" fill="#222831" stroke="#000000" stroke-opacity="0.000" class="guide background" id="img-e7dad7b3-77">
      <rect x="17.83" y="10.61" width="129.57" height="71.7"/>
    </g>
    <g class="guide ygridlines xfixed" stroke-dasharray="0.5,0.5" stroke-width="0.2" stroke="#575757" id="img-e7dad7b3-78">
      <path fill="none" d="M17.83,80.31 L 147.4 80.31"/>
      <path fill="none" d="M17.83,66.77 L 147.4 66.77"/>
      <path fill="none" d="M17.83,53.23 L 147.4 53.23"/>
      <path fill="none" d="M17.83,39.69 L 147.4 39.69"/>
      <path fill="none" d="M17.83,26.15 L 147.4 26.15"/>
      <path fill="none" d="M17.83,12.61 L 147.4 12.61"/>
    </g>
    <g class="guide xgridlines yfixed" stroke-dasharray="0.5,0.5" stroke-width="0.2" stroke="#575757" id="img-e7dad7b3-79">
      <path fill="none" d="M19.83,10.61 L 19.83 82.31"/>
      <path fill="none" d="M44.94,10.61 L 44.94 82.31"/>
      <path fill="none" d="M70.06,10.61 L 70.06 82.31"/>
      <path fill="none" d="M95.17,10.61 L 95.17 82.31"/>
      <path fill="none" d="M120.29,10.61 L 120.29 82.31"/>
      <path fill="none" d="M145.4,10.61 L 145.4 82.31"/>
    </g>
    <g class="plotpanel" id="img-e7dad7b3-80">
      <g stroke-width="0.3" fill="#000000" fill-opacity="0.000" class="geometry" stroke-dasharray="none" stroke="#FE4365" id="img-e7dad7b3-81">
        <path fill="none" d="M24.85,80.31 L 29.87 80.31 34.89 80.31 39.92 80.31 44.94 80.31 49.96 80.31 54.99 80.31 60.01 80.31 65.03 80.31 70.06 17.79 75.08 17.79 80.1 17.79 85.12 17.79 90.15 17.79 95.17 17.79 100.19 17.79 105.22 17.79 110.24 17.79 115.26 17.79 120.29 80.31 125.31 80.31 130.33 80.31 135.35 80.31 140.38 80.31 145.4 80.31"/>
      </g>
    </g>
  </g>
</g>
  <g class="guide ylabels" font-size="2.82" font-family="'PT Sans Caption','Helvetica Neue','Helvetica',sans-serif" fill="#A1A1A1" id="img-e7dad7b3-82">
    <text x="16.83" y="80.31" text-anchor="end" dy="0.35em">0</text>
    <text x="16.83" y="66.77" text-anchor="end" dy="0.35em">50</text>
    <text x="16.83" y="53.23" text-anchor="end" dy="0.35em">100</text>
    <text x="16.83" y="39.69" text-anchor="end" dy="0.35em">150</text>
    <text x="16.83" y="26.15" text-anchor="end" dy="0.35em">200</text>
    <text x="16.83" y="12.61" text-anchor="end" dy="0.35em">250</text>
  </g>
  <g font-size="3.88" font-family="'PT Sans','Helvetica Neue','Helvetica',sans-serif" fill="#A1A1A1" stroke="#000000" stroke-opacity="0.000" id="img-e7dad7b3-83">
    <text x="8.81" y="46.46" text-anchor="end" dy="0.35em">y</text>
  </g>
  <g font-size="3.88" font-family="'PT Sans','Helvetica Neue','Helvetica',sans-serif" fill="#A1A1A1" stroke="#000000" stroke-opacity="0.000" id="img-e7dad7b3-84">
    <text x="82.61" y="5" text-anchor="middle" dy="0.6em">CMH at timestep x</text>
  </g>
</g>
<defs>
  <clipPath id="img-e7dad7b3-5">
  <path d="M166.88,213.81 L 299.8 213.81 299.8 285.51 166.88 285.51" />
</clipPath>
  <clipPath id="img-e7dad7b3-19">
  <path d="M20.17,213.81 L 147.4 213.81 147.4 285.51 20.17 285.51" />
</clipPath>
  <clipPath id="img-e7dad7b3-33">
  <path d="M177.32,112.21 L 299.8 112.21 299.8 183.91 177.32 183.91" />
</clipPath>
  <clipPath id="img-e7dad7b3-47">
  <path d="M16.15,112.21 L 147.4 112.21 147.4 183.91 16.15 183.91" />
</clipPath>
  <clipPath id="img-e7dad7b3-61">
  <path d="M170.23,10.61 L 299.8 10.61 299.8 82.31 170.23 82.31" />
</clipPath>
  <clipPath id="img-e7dad7b3-75">
  <path d="M17.83,10.61 L 147.4 10.61 147.4 82.31 17.83 82.31" />
</clipPath>
</defs>
</svg>
