<?xml version="1.0" encoding="UTF-8"?>
<svg xmlns="http://www.w3.org/2000/svg"
     xmlns:xlink="http://www.w3.org/1999/xlink"
     xmlns:gadfly="http://www.gadflyjl.org/ns"
     version="1.2"
     width="304.8mm" height="304.8mm" viewBox="0 0 304.8 304.8"
     stroke="none"
     fill="#000000"
     stroke-width="0.3"
     font-size="3.88"
>
<g stroke="#000000" stroke-opacity="0.000" fill="#222831" id="img-c7f5f76c-1">
  <rect x="152.4" y="152.4" width="152.4" height="152.4"/>
</g>
<g class="plotroot xscalable yscalable" id="img-c7f5f76c-2">
  <g font-size="3.88" font-family="'PT Sans','Helvetica Neue','Helvetica',sans-serif" fill="#A1A1A1" stroke="#000000" stroke-opacity="0.000" id="img-c7f5f76c-3">
    <text x="238.56" y="293.19" text-anchor="middle" dy="0.6em">x</text>
  </g>
  <g class="guide xlabels" font-size="2.82" font-family="'PT Sans Caption','Helvetica Neue','Helvetica',sans-serif" fill="#A1A1A1" id="img-c7f5f76c-4">
    <text x="179.32" y="286.51" text-anchor="middle" dy="0.6em">0</text>
    <text x="203.02" y="286.51" text-anchor="middle" dy="0.6em">5</text>
    <text x="226.71" y="286.51" text-anchor="middle" dy="0.6em">10</text>
    <text x="250.41" y="286.51" text-anchor="middle" dy="0.6em">15</text>
    <text x="274.1" y="286.51" text-anchor="middle" dy="0.6em">20</text>
    <text x="297.8" y="286.51" text-anchor="middle" dy="0.6em">25</text>
  </g>
<g clip-path="url(#img-c7f5f76c-5)">
  <g id="img-c7f5f76c-6">
    <g pointer-events="visible" opacity="1" fill="#222831" stroke="#000000" stroke-opacity="0.000" class="guide background" id="img-c7f5f76c-7">
      <rect x="177.32" y="163.01" width="122.48" height="122.5"/>
    </g>
    <g class="guide ygridlines xfixed" stroke-dasharray="0.5,0.5" stroke-width="0.2" stroke="#575757" id="img-c7f5f76c-8">
      <path fill="none" d="M177.32,283.51 L 299.8 283.51"/>
      <path fill="none" d="M177.32,259.81 L 299.8 259.81"/>
      <path fill="none" d="M177.32,236.11 L 299.8 236.11"/>
      <path fill="none" d="M177.32,212.41 L 299.8 212.41"/>
      <path fill="none" d="M177.32,188.71 L 299.8 188.71"/>
      <path fill="none" d="M177.32,165.01 L 299.8 165.01"/>
    </g>
    <g class="guide xgridlines yfixed" stroke-dasharray="0.5,0.5" stroke-width="0.2" stroke="#575757" id="img-c7f5f76c-9">
      <path fill="none" d="M179.32,163.01 L 179.32 285.51"/>
      <path fill="none" d="M203.02,163.01 L 203.02 285.51"/>
      <path fill="none" d="M226.71,163.01 L 226.71 285.51"/>
      <path fill="none" d="M250.41,163.01 L 250.41 285.51"/>
      <path fill="none" d="M274.1,163.01 L 274.1 285.51"/>
      <path fill="none" d="M297.8,163.01 L 297.8 285.51"/>
    </g>
    <g class="plotpanel" id="img-c7f5f76c-10">
      <g stroke-width="0.3" fill="#000000" fill-opacity="0.000" class="geometry" stroke-dasharray="none" stroke="#FE4365" id="img-c7f5f76c-11">
        <path fill="none" d="M184.06,283.51 L 188.8 282.03 193.54 283.42 198.28 283.44 203.02 283.44 207.75 283.47 212.49 283.44 217.23 283.44 221.97 283.4 226.71 232.79 231.45 211.25 236.19 175.15 240.93 175.13 245.67 175.13 250.41 175.08 255.15 175.27 259.89 175.05 264.63 211.29 269.36 247.75 274.1 283.51 278.84 283.51 283.58 283.51 288.32 283.51 293.06 283.51"/>
      </g>
    </g>
  </g>
</g>
  <g class="guide ylabels" font-size="2.82" font-family="'PT Sans Caption','Helvetica Neue','Helvetica',sans-serif" fill="#A1A1A1" id="img-c7f5f76c-12">
    <text x="176.32" y="283.51" text-anchor="end" dy="0.35em">0</text>
    <text x="176.32" y="259.81" text-anchor="end" dy="0.35em">5.0×10⁴</text>
    <text x="176.32" y="236.11" text-anchor="end" dy="0.35em">1.0×10⁵</text>
    <text x="176.32" y="212.41" text-anchor="end" dy="0.35em">1.5×10⁵</text>
    <text x="176.32" y="188.71" text-anchor="end" dy="0.35em">2.0×10⁵</text>
    <text x="176.32" y="165.01" text-anchor="end" dy="0.35em">2.5×10⁵</text>
  </g>
  <g font-size="3.88" font-family="'PT Sans','Helvetica Neue','Helvetica',sans-serif" fill="#A1A1A1" stroke="#000000" stroke-opacity="0.000" id="img-c7f5f76c-13">
    <text x="161.21" y="224.26" text-anchor="end" dy="0.35em">y</text>
  </g>
  <g font-size="3.88" font-family="'PT Sans','Helvetica Neue','Helvetica',sans-serif" fill="#A1A1A1" stroke="#000000" stroke-opacity="0.000" id="img-c7f5f76c-14">
    <text x="238.56" y="157.4" text-anchor="middle" dy="0.6em">PM2.5 Removed by Filters</text>
  </g>
</g>
<g stroke="#000000" stroke-opacity="0.000" fill="#222831" id="img-c7f5f76c-15">
  <rect x="0" y="152.4" width="152.4" height="152.4"/>
</g>
<g class="plotroot xscalable yscalable" id="img-c7f5f76c-16">
  <g font-size="3.88" font-family="'PT Sans','Helvetica Neue','Helvetica',sans-serif" fill="#A1A1A1" stroke="#000000" stroke-opacity="0.000" id="img-c7f5f76c-17">
    <text x="81.78" y="293.19" text-anchor="middle" dy="0.6em">x</text>
  </g>
  <g class="guide xlabels" font-size="2.82" font-family="'PT Sans Caption','Helvetica Neue','Helvetica',sans-serif" fill="#A1A1A1" id="img-c7f5f76c-18">
    <text x="18.15" y="286.51" text-anchor="middle" dy="0.6em">0</text>
    <text x="43.6" y="286.51" text-anchor="middle" dy="0.6em">5</text>
    <text x="69.05" y="286.51" text-anchor="middle" dy="0.6em">10</text>
    <text x="94.5" y="286.51" text-anchor="middle" dy="0.6em">15</text>
    <text x="119.95" y="286.51" text-anchor="middle" dy="0.6em">20</text>
    <text x="145.4" y="286.51" text-anchor="middle" dy="0.6em">25</text>
  </g>
<g clip-path="url(#img-c7f5f76c-19)">
  <g id="img-c7f5f76c-20">
    <g pointer-events="visible" opacity="1" fill="#222831" stroke="#000000" stroke-opacity="0.000" class="guide background" id="img-c7f5f76c-21">
      <rect x="16.15" y="163.01" width="131.25" height="122.5"/>
    </g>
    <g class="guide ygridlines xfixed" stroke-dasharray="0.5,0.5" stroke-width="0.2" stroke="#575757" id="img-c7f5f76c-22">
      <path fill="none" d="M16.15,283.51 L 147.4 283.51"/>
      <path fill="none" d="M16.15,253.89 L 147.4 253.89"/>
      <path fill="none" d="M16.15,224.26 L 147.4 224.26"/>
      <path fill="none" d="M16.15,194.64 L 147.4 194.64"/>
      <path fill="none" d="M16.15,165.01 L 147.4 165.01"/>
    </g>
    <g class="guide xgridlines yfixed" stroke-dasharray="0.5,0.5" stroke-width="0.2" stroke="#575757" id="img-c7f5f76c-23">
      <path fill="none" d="M18.15,163.01 L 18.15 285.51"/>
      <path fill="none" d="M43.6,163.01 L 43.6 285.51"/>
      <path fill="none" d="M69.05,163.01 L 69.05 285.51"/>
      <path fill="none" d="M94.5,163.01 L 94.5 285.51"/>
      <path fill="none" d="M119.95,163.01 L 119.95 285.51"/>
      <path fill="none" d="M145.4,163.01 L 145.4 285.51"/>
    </g>
    <g class="plotpanel" id="img-c7f5f76c-24">
      <g stroke-width="0.3" fill="#000000" fill-opacity="0.000" class="geometry" stroke-dasharray="none" stroke="#FE4365" id="img-c7f5f76c-25">
        <path fill="none" d="M18.15,283.51 L 23.24 283.51 28.33 283.51 33.42 283.51 38.51 283.51 43.6 283.51 48.69 283.51 53.78 283.51 58.87 283.51 63.96 179.82 69.05 179.82 74.14 179.82 79.23 179.82 84.32 179.82 89.41 179.82 94.5 179.82 99.59 179.82 104.68 179.82 109.77 179.82 114.86 179.82 119.95 179.82 125.04 179.82 130.13 179.82 135.22 179.82 140.31 283.51"/>
      </g>
    </g>
  </g>
</g>
  <g class="guide ylabels" font-size="2.82" font-family="'PT Sans Caption','Helvetica Neue','Helvetica',sans-serif" fill="#A1A1A1" id="img-c7f5f76c-26">
    <text x="15.15" y="283.51" text-anchor="end" dy="0.35em">0</text>
    <text x="15.15" y="253.89" text-anchor="end" dy="0.35em">10</text>
    <text x="15.15" y="224.26" text-anchor="end" dy="0.35em">20</text>
    <text x="15.15" y="194.64" text-anchor="end" dy="0.35em">30</text>
    <text x="15.15" y="165.01" text-anchor="end" dy="0.35em">40</text>
  </g>
  <g font-size="3.88" font-family="'PT Sans','Helvetica Neue','Helvetica',sans-serif" fill="#A1A1A1" stroke="#000000" stroke-opacity="0.000" id="img-c7f5f76c-27">
    <text x="8.81" y="224.26" text-anchor="end" dy="0.35em">y</text>
  </g>
  <g font-size="3.88" font-family="'PT Sans','Helvetica Neue','Helvetica',sans-serif" fill="#A1A1A1" stroke="#000000" stroke-opacity="0.000" id="img-c7f5f76c-28">
    <text x="81.78" y="157.4" text-anchor="middle" dy="0.6em">PM2.5 Concentration (µg)</text>
  </g>
</g>
<g stroke="#000000" stroke-opacity="0.000" fill="#222831" id="img-c7f5f76c-29">
  <rect x="152.4" y="0" width="152.4" height="152.4"/>
</g>
<g class="plotroot xscalable yscalable" id="img-c7f5f76c-30">
  <g font-size="3.88" font-family="'PT Sans','Helvetica Neue','Helvetica',sans-serif" fill="#A1A1A1" stroke="#000000" stroke-opacity="0.000" id="img-c7f5f76c-31">
    <text x="235.01" y="140.79" text-anchor="middle" dy="0.6em">x</text>
  </g>
  <g class="guide xlabels" font-size="2.82" font-family="'PT Sans Caption','Helvetica Neue','Helvetica',sans-serif" fill="#A1A1A1" id="img-c7f5f76c-32">
    <text x="172.23" y="134.11" text-anchor="middle" dy="0.6em">0</text>
    <text x="197.34" y="134.11" text-anchor="middle" dy="0.6em">5</text>
    <text x="222.46" y="134.11" text-anchor="middle" dy="0.6em">10</text>
    <text x="247.57" y="134.11" text-anchor="middle" dy="0.6em">15</text>
    <text x="272.69" y="134.11" text-anchor="middle" dy="0.6em">20</text>
    <text x="297.8" y="134.11" text-anchor="middle" dy="0.6em">25</text>
  </g>
<g clip-path="url(#img-c7f5f76c-33)">
  <g id="img-c7f5f76c-34">
    <g pointer-events="visible" opacity="1" fill="#222831" stroke="#000000" stroke-opacity="0.000" class="guide background" id="img-c7f5f76c-35">
      <rect x="170.23" y="10.61" width="129.57" height="122.5"/>
    </g>
    <g class="guide ygridlines xfixed" stroke-dasharray="0.5,0.5" stroke-width="0.2" stroke="#575757" id="img-c7f5f76c-36">
      <path fill="none" d="M170.23,131.12 L 299.8 131.12"/>
      <path fill="none" d="M170.23,101.49 L 299.8 101.49"/>
      <path fill="none" d="M170.23,71.86 L 299.8 71.86"/>
      <path fill="none" d="M170.23,42.24 L 299.8 42.24"/>
      <path fill="none" d="M170.23,12.61 L 299.8 12.61"/>
    </g>
    <g class="guide xgridlines yfixed" stroke-dasharray="0.5,0.5" stroke-width="0.2" stroke="#575757" id="img-c7f5f76c-37">
      <path fill="none" d="M172.23,10.61 L 172.23 133.12"/>
      <path fill="none" d="M197.34,10.61 L 197.34 133.12"/>
      <path fill="none" d="M222.46,10.61 L 222.46 133.12"/>
      <path fill="none" d="M247.57,10.61 L 247.57 133.12"/>
      <path fill="none" d="M272.69,10.61 L 272.69 133.12"/>
      <path fill="none" d="M297.8,10.61 L 297.8 133.12"/>
    </g>
    <g class="plotpanel" id="img-c7f5f76c-38">
      <g stroke-width="0.3" fill="#000000" fill-opacity="0.000" class="geometry" stroke-dasharray="none" stroke="#FE4365" id="img-c7f5f76c-39">
        <path fill="none" d="M172.23,131.12 L 177.25 131.12 182.27 131.11 187.29 131.11 192.32 131.11 197.34 131.11 202.36 131.11 207.39 131.11 212.41 131.11 217.43 12.61 222.46 12.61 227.48 12.61 232.5 12.61 237.52 12.61 242.55 12.61 247.57 12.61 252.59 12.61 257.62 12.61 262.64 12.61 267.66 12.61 272.69 12.61 277.71 12.61 282.73 12.61 287.75 12.61 292.78 131.12"/>
      </g>
    </g>
  </g>
</g>
  <g class="guide ylabels" font-size="2.82" font-family="'PT Sans Caption','Helvetica Neue','Helvetica',sans-serif" fill="#A1A1A1" id="img-c7f5f76c-40">
    <text x="169.23" y="131.12" text-anchor="end" dy="0.35em">400</text>
    <text x="169.23" y="101.49" text-anchor="end" dy="0.35em">500</text>
    <text x="169.23" y="71.86" text-anchor="end" dy="0.35em">600</text>
    <text x="169.23" y="42.24" text-anchor="end" dy="0.35em">700</text>
    <text x="169.23" y="12.61" text-anchor="end" dy="0.35em">800</text>
  </g>
  <g font-size="3.88" font-family="'PT Sans','Helvetica Neue','Helvetica',sans-serif" fill="#A1A1A1" stroke="#000000" stroke-opacity="0.000" id="img-c7f5f76c-41">
    <text x="161.21" y="71.86" text-anchor="end" dy="0.35em">y</text>
  </g>
  <g font-size="3.88" font-family="'PT Sans','Helvetica Neue','Helvetica',sans-serif" fill="#A1A1A1" stroke="#000000" stroke-opacity="0.000" id="img-c7f5f76c-42">
    <text x="235.01" y="5" text-anchor="middle" dy="0.6em">CO2 Concentration inside room (ppm)</text>
  </g>
</g>
<g stroke="#000000" stroke-opacity="0.000" fill="#222831" id="img-c7f5f76c-43">
  <rect x="0" y="0" width="152.4" height="152.4"/>
</g>
<g class="plotroot xscalable yscalable" id="img-c7f5f76c-44">
  <g font-size="3.88" font-family="'PT Sans','Helvetica Neue','Helvetica',sans-serif" fill="#A1A1A1" stroke="#000000" stroke-opacity="0.000" id="img-c7f5f76c-45">
    <text x="82.61" y="140.79" text-anchor="middle" dy="0.6em">x</text>
  </g>
  <g class="guide xlabels" font-size="2.82" font-family="'PT Sans Caption','Helvetica Neue','Helvetica',sans-serif" fill="#A1A1A1" id="img-c7f5f76c-46">
    <text x="19.83" y="134.11" text-anchor="middle" dy="0.6em">0</text>
    <text x="44.94" y="134.11" text-anchor="middle" dy="0.6em">5</text>
    <text x="70.06" y="134.11" text-anchor="middle" dy="0.6em">10</text>
    <text x="95.17" y="134.11" text-anchor="middle" dy="0.6em">15</text>
    <text x="120.29" y="134.11" text-anchor="middle" dy="0.6em">20</text>
    <text x="145.4" y="134.11" text-anchor="middle" dy="0.6em">25</text>
  </g>
<g clip-path="url(#img-c7f5f76c-47)">
  <g id="img-c7f5f76c-48">
    <g pointer-events="visible" opacity="1" fill="#222831" stroke="#000000" stroke-opacity="0.000" class="guide background" id="img-c7f5f76c-49">
      <rect x="17.83" y="10.61" width="129.57" height="122.5"/>
    </g>
    <g class="guide ygridlines xfixed" stroke-dasharray="0.5,0.5" stroke-width="0.2" stroke="#575757" id="img-c7f5f76c-50">
      <path fill="none" d="M17.83,131.11 L 147.4 131.11"/>
      <path fill="none" d="M17.83,107.41 L 147.4 107.41"/>
      <path fill="none" d="M17.83,83.71 L 147.4 83.71"/>
      <path fill="none" d="M17.83,60.01 L 147.4 60.01"/>
      <path fill="none" d="M17.83,36.31 L 147.4 36.31"/>
      <path fill="none" d="M17.83,12.61 L 147.4 12.61"/>
    </g>
    <g class="guide xgridlines yfixed" stroke-dasharray="0.5,0.5" stroke-width="0.2" stroke="#575757" id="img-c7f5f76c-51">
      <path fill="none" d="M19.83,10.61 L 19.83 133.11"/>
      <path fill="none" d="M44.94,10.61 L 44.94 133.11"/>
      <path fill="none" d="M70.06,10.61 L 70.06 133.11"/>
      <path fill="none" d="M95.17,10.61 L 95.17 133.11"/>
      <path fill="none" d="M120.29,10.61 L 120.29 133.11"/>
      <path fill="none" d="M145.4,10.61 L 145.4 133.11"/>
    </g>
    <g class="plotpanel" id="img-c7f5f76c-52">
      <g stroke-width="0.3" fill="#000000" fill-opacity="0.000" class="geometry" stroke-dasharray="none" stroke="#FE4365" id="img-c7f5f76c-53">
        <path fill="none" d="M24.85,131.11 L 29.87 131.11 34.89 131.11 39.92 131.11 44.94 131.11 49.96 131.11 54.99 131.11 60.01 131.11 65.03 131.11 70.06 80.11 75.08 58.86 80.1 22.73 85.12 22.73 90.15 22.73 95.17 22.73 100.19 22.73 105.22 22.73 110.24 58.86 115.26 94.99 120.29 131.11 125.31 131.11 130.33 131.11 135.35 131.11 140.38 131.11"/>
      </g>
    </g>
  </g>
</g>
  <g class="guide ylabels" font-size="2.82" font-family="'PT Sans Caption','Helvetica Neue','Helvetica',sans-serif" fill="#A1A1A1" id="img-c7f5f76c-54">
    <text x="16.83" y="131.11" text-anchor="end" dy="0.35em">0</text>
    <text x="16.83" y="107.41" text-anchor="end" dy="0.35em">50</text>
    <text x="16.83" y="83.71" text-anchor="end" dy="0.35em">100</text>
    <text x="16.83" y="60.01" text-anchor="end" dy="0.35em">150</text>
    <text x="16.83" y="36.31" text-anchor="end" dy="0.35em">200</text>
    <text x="16.83" y="12.61" text-anchor="end" dy="0.35em">250</text>
  </g>
  <g font-size="3.88" font-family="'PT Sans','Helvetica Neue','Helvetica',sans-serif" fill="#A1A1A1" stroke="#000000" stroke-opacity="0.000" id="img-c7f5f76c-55">
    <text x="8.81" y="71.86" text-anchor="end" dy="0.35em">y</text>
  </g>
  <g font-size="3.88" font-family="'PT Sans','Helvetica Neue','Helvetica',sans-serif" fill="#A1A1A1" stroke="#000000" stroke-opacity="0.000" id="img-c7f5f76c-56">
    <text x="82.61" y="5" text-anchor="middle" dy="0.6em">CMH at timestep x</text>
  </g>
</g>
<defs>
  <clipPath id="img-c7f5f76c-5">
  <path d="M177.32,163.01 L 299.8 163.01 299.8 285.51 177.32 285.51" />
</clipPath>
  <clipPath id="img-c7f5f76c-19">
  <path d="M16.15,163.01 L 147.4 163.01 147.4 285.51 16.15 285.51" />
</clipPath>
  <clipPath id="img-c7f5f76c-33">
  <path d="M170.23,10.61 L 299.8 10.61 299.8 133.12 170.23 133.12" />
</clipPath>
  <clipPath id="img-c7f5f76c-47">
  <path d="M17.83,10.61 L 147.4 10.61 147.4 133.11 17.83 133.11" />
</clipPath>
</defs>
</svg>
