<?xml version="1.0" encoding="UTF-8"?>
<svg xmlns="http://www.w3.org/2000/svg"
     xmlns:xlink="http://www.w3.org/1999/xlink"
     xmlns:gadfly="http://www.gadflyjl.org/ns"
     version="1.2"
     width="304.8mm" height="101.6mm" viewBox="0 0 304.8 101.6"
     stroke="none"
     fill="#000000"
     stroke-width="0.3"
     font-size="3.88"
>
<g stroke="#000000" stroke-opacity="0.000" fill="#222831" id="img-f8194141-1">
  <rect x="152.4" y="0" width="152.4" height="101.6"/>
</g>
<g class="plotroot xscalable yscalable" id="img-f8194141-2">
  <g font-size="3.88" font-family="'PT Sans','Helvetica Neue','Helvetica',sans-serif" fill="#A1A1A1" stroke="#000000" stroke-opacity="0.000" id="img-f8194141-3">
    <text x="238.56" y="89.99" text-anchor="middle" dy="0.6em">x</text>
  </g>
  <g class="guide xlabels" font-size="2.82" font-family="'PT Sans Caption','Helvetica Neue','Helvetica',sans-serif" fill="#A1A1A1" id="img-f8194141-4">
    <text x="179.32" y="83.32" text-anchor="middle" dy="0.6em">0</text>
    <text x="203.02" y="83.32" text-anchor="middle" dy="0.6em">5</text>
    <text x="226.71" y="83.32" text-anchor="middle" dy="0.6em">10</text>
    <text x="250.41" y="83.32" text-anchor="middle" dy="0.6em">15</text>
    <text x="274.1" y="83.32" text-anchor="middle" dy="0.6em">20</text>
    <text x="297.8" y="83.32" text-anchor="middle" dy="0.6em">25</text>
  </g>
<g clip-path="url(#img-f8194141-5)">
  <g id="img-f8194141-6">
    <g pointer-events="visible" opacity="1" fill="#222831" stroke="#000000" stroke-opacity="0.000" class="guide background" id="img-f8194141-7">
      <rect x="177.32" y="10.61" width="122.48" height="71.7"/>
    </g>
    <g class="guide ygridlines xfixed" stroke-dasharray="0.5,0.5" stroke-width="0.2" stroke="#575757" id="img-f8194141-8">
      <path fill="none" d="M177.32,80.32 L 299.8 80.32"/>
      <path fill="none" d="M177.32,63.39 L 299.8 63.39"/>
      <path fill="none" d="M177.32,46.46 L 299.8 46.46"/>
      <path fill="none" d="M177.32,29.54 L 299.8 29.54"/>
      <path fill="none" d="M177.32,12.61 L 299.8 12.61"/>
    </g>
    <g class="guide xgridlines yfixed" stroke-dasharray="0.5,0.5" stroke-width="0.2" stroke="#575757" id="img-f8194141-9">
      <path fill="none" d="M179.32,10.61 L 179.32 82.32"/>
      <path fill="none" d="M203.02,10.61 L 203.02 82.32"/>
      <path fill="none" d="M226.71,10.61 L 226.71 82.32"/>
      <path fill="none" d="M250.41,10.61 L 250.41 82.32"/>
      <path fill="none" d="M274.1,10.61 L 274.1 82.32"/>
      <path fill="none" d="M297.8,10.61 L 297.8 82.32"/>
    </g>
    <g class="plotpanel" id="img-f8194141-10">
      <g stroke-width="0.3" fill="#000000" fill-opacity="0.000" class="geometry" stroke-dasharray="none" stroke="#FE4365" id="img-f8194141-11">
        <path fill="none" d="M179.32,73.54 L 184.06 73.21 188.8 72.86 193.54 72.51 198.28 72.12 203.02 71.67 207.75 71.1 212.49 70.23 217.23 55.72 221.97 33.41 226.71 20.98 231.45 23.45 236.19 24.91 240.93 22.72 245.67 15.98 250.41 15.91 255.15 16.26 259.89 18.77 264.63 23.65 269.36 22.86 274.1 21.99 278.84 20.98 283.58 19.71 288.32 17.7"/>
      </g>
    </g>
  </g>
</g>
  <g class="guide ylabels" font-size="2.82" font-family="'PT Sans Caption','Helvetica Neue','Helvetica',sans-serif" fill="#A1A1A1" id="img-f8194141-12">
    <text x="176.32" y="80.32" text-anchor="end" dy="0.35em">4.0×10³</text>
    <text x="176.32" y="63.39" text-anchor="end" dy="0.35em">6.0×10³</text>
    <text x="176.32" y="46.46" text-anchor="end" dy="0.35em">8.0×10³</text>
    <text x="176.32" y="29.54" text-anchor="end" dy="0.35em">1.0×10⁴</text>
    <text x="176.32" y="12.61" text-anchor="end" dy="0.35em">1.2×10⁴</text>
  </g>
  <g font-size="3.88" font-family="'PT Sans','Helvetica Neue','Helvetica',sans-serif" fill="#A1A1A1" stroke="#000000" stroke-opacity="0.000" id="img-f8194141-13">
    <text x="161.21" y="46.46" text-anchor="end" dy="0.35em">y</text>
  </g>
  <g font-size="3.88" font-family="'PT Sans','Helvetica Neue','Helvetica',sans-serif" fill="#A1A1A1" stroke="#000000" stroke-opacity="0.000" id="img-f8194141-14">
    <text x="238.56" y="5" text-anchor="middle" dy="0.6em">CO2 Concentration inside room (ppm)</text>
  </g>
</g>
<g stroke="#000000" stroke-opacity="0.000" fill="#222831" id="img-f8194141-15">
  <rect x="0" y="0" width="152.4" height="101.6"/>
</g>
<g class="plotroot xscalable yscalable" id="img-f8194141-16">
  <g font-size="3.88" font-family="'PT Sans','Helvetica Neue','Helvetica',sans-serif" fill="#A1A1A1" stroke="#000000" stroke-opacity="0.000" id="img-f8194141-17">
    <text x="83.45" y="89.99" text-anchor="middle" dy="0.6em">x</text>
  </g>
  <g class="guide xlabels" font-size="2.82" font-family="'PT Sans Caption','Helvetica Neue','Helvetica',sans-serif" fill="#A1A1A1" id="img-f8194141-18">
    <text x="21.5" y="83.32" text-anchor="middle" dy="0.6em">0</text>
    <text x="46.28" y="83.32" text-anchor="middle" dy="0.6em">5</text>
    <text x="71.06" y="83.32" text-anchor="middle" dy="0.6em">10</text>
    <text x="95.84" y="83.32" text-anchor="middle" dy="0.6em">15</text>
    <text x="120.62" y="83.32" text-anchor="middle" dy="0.6em">20</text>
    <text x="145.4" y="83.32" text-anchor="middle" dy="0.6em">25</text>
  </g>
<g clip-path="url(#img-f8194141-19)">
  <g id="img-f8194141-20">
    <g pointer-events="visible" opacity="1" fill="#222831" stroke="#000000" stroke-opacity="0.000" class="guide background" id="img-f8194141-21">
      <rect x="19.5" y="10.61" width="127.9" height="71.7"/>
    </g>
    <g class="guide ygridlines xfixed" stroke-dasharray="0.5,0.5" stroke-width="0.2" stroke="#575757" id="img-f8194141-22">
      <path fill="none" d="M19.5,80.32 L 147.4 80.32"/>
      <path fill="none" d="M19.5,66.77 L 147.4 66.77"/>
      <path fill="none" d="M19.5,53.23 L 147.4 53.23"/>
      <path fill="none" d="M19.5,39.69 L 147.4 39.69"/>
      <path fill="none" d="M19.5,26.15 L 147.4 26.15"/>
      <path fill="none" d="M19.5,12.61 L 147.4 12.61"/>
    </g>
    <g class="guide xgridlines yfixed" stroke-dasharray="0.5,0.5" stroke-width="0.2" stroke="#575757" id="img-f8194141-23">
      <path fill="none" d="M21.5,10.61 L 21.5 82.32"/>
      <path fill="none" d="M46.28,10.61 L 46.28 82.32"/>
      <path fill="none" d="M71.06,10.61 L 71.06 82.32"/>
      <path fill="none" d="M95.84,10.61 L 95.84 82.32"/>
      <path fill="none" d="M120.62,10.61 L 120.62 82.32"/>
      <path fill="none" d="M145.4,10.61 L 145.4 82.32"/>
    </g>
    <g class="plotpanel" id="img-f8194141-24">
      <g stroke-width="0.3" fill="#000000" fill-opacity="0.000" class="geometry" stroke-dasharray="none" stroke="#FE4365" id="img-f8194141-25">
        <path fill="none" d="M26.46,80.31 L 31.41 80.31 36.37 80.31 41.32 80.31 46.28 80.31 51.24 80.31 56.19 80.31 61.15 80.31 66.1 69.9 71.06 60.04 76.02 45.62 80.97 12.65 85.93 14.27 90.88 41 95.84 24.85 100.8 23.9 105.75 25.27 110.71 28.71 115.66 34.56 120.62 80.31 125.58 80.31 130.53 80.31 135.49 80.31 140.44 80.31"/>
      </g>
    </g>
  </g>
</g>
  <g class="guide ylabels" font-size="2.82" font-family="'PT Sans Caption','Helvetica Neue','Helvetica',sans-serif" fill="#A1A1A1" id="img-f8194141-26">
    <text x="18.5" y="80.32" text-anchor="end" dy="0.35em">0</text>
    <text x="18.5" y="66.77" text-anchor="end" dy="0.35em">500</text>
    <text x="18.5" y="53.23" text-anchor="end" dy="0.35em">1000</text>
    <text x="18.5" y="39.69" text-anchor="end" dy="0.35em">1500</text>
    <text x="18.5" y="26.15" text-anchor="end" dy="0.35em">2000</text>
    <text x="18.5" y="12.61" text-anchor="end" dy="0.35em">2500</text>
  </g>
  <g font-size="3.88" font-family="'PT Sans','Helvetica Neue','Helvetica',sans-serif" fill="#A1A1A1" stroke="#000000" stroke-opacity="0.000" id="img-f8194141-27">
    <text x="8.81" y="46.46" text-anchor="end" dy="0.35em">y</text>
  </g>
  <g font-size="3.88" font-family="'PT Sans','Helvetica Neue','Helvetica',sans-serif" fill="#A1A1A1" stroke="#000000" stroke-opacity="0.000" id="img-f8194141-28">
    <text x="83.45" y="5" text-anchor="middle" dy="0.6em">CMH at timestep x</text>
  </g>
</g>
<defs>
  <clipPath id="img-f8194141-5">
  <path d="M177.32,10.61 L 299.8 10.61 299.8 82.32 177.32 82.32" />
</clipPath>
  <clipPath id="img-f8194141-19">
  <path d="M19.5,10.61 L 147.4 10.61 147.4 82.32 19.5 82.32" />
</clipPath>
</defs>
</svg>
