<?xml version="1.0" encoding="UTF-8"?>
<svg xmlns="http://www.w3.org/2000/svg"
     xmlns:xlink="http://www.w3.org/1999/xlink"
     xmlns:gadfly="http://www.gadflyjl.org/ns"
     version="1.2"
     width="304.8mm" height="304.8mm" viewBox="0 0 304.8 304.8"
     stroke="none"
     fill="#000000"
     stroke-width="0.3"
     font-size="3.88"
>
<g stroke="#000000" stroke-opacity="0.000" fill="#222831" id="img-7a9f37cf-1">
  <rect x="152.4" y="203.2" width="152.4" height="101.6"/>
</g>
<g class="plotroot xscalable yscalable" id="img-7a9f37cf-2">
  <g font-size="3.88" font-family="'PT Sans','Helvetica Neue','Helvetica',sans-serif" fill="#A1A1A1" stroke="#000000" stroke-opacity="0.000" id="img-7a9f37cf-3">
    <text x="254.88" y="294.68" text-anchor="middle" dy="0.6em">x</text>
  </g>
  <g class="guide xlabels" font-size="2.82" font-family="'PT Sans Caption','Helvetica Neue','Helvetica',sans-serif" fill="#A1A1A1" id="img-7a9f37cf-4">
    <text x="211.97" y="288.57" text-anchor="middle" dy="0.6em">0</text>
    <text x="229.13" y="288.57" text-anchor="middle" dy="0.6em">5</text>
    <text x="246.3" y="288.57" text-anchor="middle" dy="0.6em">10</text>
    <text x="263.47" y="288.57" text-anchor="middle" dy="0.6em">15</text>
    <text x="280.63" y="288.57" text-anchor="middle" dy="0.6em">20</text>
    <text x="297.8" y="288.57" text-anchor="middle" dy="0.6em">25</text>
  </g>
<g clip-path="url(#img-7a9f37cf-5)">
  <g id="img-7a9f37cf-6">
    <g pointer-events="visible" opacity="1" fill="#222831" stroke="#000000" stroke-opacity="0.000" class="guide background" id="img-7a9f37cf-7">
      <rect x="209.97" y="213.73" width="89.83" height="73.84"/>
    </g>
    <g class="guide ygridlines xfixed" stroke-dasharray="0.5,0.5" stroke-width="0.2" stroke="#575757" id="img-7a9f37cf-8">
      <path fill="none" d="M209.97,285.57 L 299.8 285.57"/>
      <path fill="none" d="M209.97,268.11 L 299.8 268.11"/>
      <path fill="none" d="M209.97,250.65 L 299.8 250.65"/>
      <path fill="none" d="M209.97,233.19 L 299.8 233.19"/>
      <path fill="none" d="M209.97,215.73 L 299.8 215.73"/>
    </g>
    <g class="guide xgridlines yfixed" stroke-dasharray="0.5,0.5" stroke-width="0.2" stroke="#575757" id="img-7a9f37cf-9">
      <path fill="none" d="M211.97,213.73 L 211.97 287.57"/>
      <path fill="none" d="M229.13,213.73 L 229.13 287.57"/>
      <path fill="none" d="M246.3,213.73 L 246.3 287.57"/>
      <path fill="none" d="M263.47,213.73 L 263.47 287.57"/>
      <path fill="none" d="M280.63,213.73 L 280.63 287.57"/>
      <path fill="none" d="M297.8,213.73 L 297.8 287.57"/>
    </g>
    <g class="plotpanel" id="img-7a9f37cf-10">
      <g stroke-width="0.3" fill="#000000" fill-opacity="0.000" class="geometry" stroke-dasharray="none" stroke="#FE4365" id="img-7a9f37cf-11">
        <path fill="none" d="M215.4,277.26 L 218.83 217.8 222.27 216.99 225.7 216.94 229.13 217.65 232.57 219.16 236 221.57 239.43 225.11 242.87 230.23 246.3 239.63 249.73 251.96 253.17 243.08 256.6 246.84 260.03 259.49 263.47 269.59 266.9 270.78 270.33 267.76 273.77 263.18 277.2 245.82 280.63 223.59 284.07 227.22 287.5 232.27 290.93 239.43 294.37 250.57"/>
      </g>
    </g>
  </g>
</g>
  <g class="guide ylabels" font-size="2.82" font-family="'PT Sans Caption','Helvetica Neue','Helvetica',sans-serif" fill="#A1A1A1" id="img-7a9f37cf-12">
    <text x="208.97" y="285.57" text-anchor="end" dy="0.35em">5.565060000000008×10⁻⁸</text>
    <text x="208.97" y="268.11" text-anchor="end" dy="0.35em">5.565062000000007×10⁻⁸</text>
    <text x="208.97" y="250.65" text-anchor="end" dy="0.35em">5.565064000000008×10⁻⁸</text>
    <text x="208.97" y="233.19" text-anchor="end" dy="0.35em">5.565066000000008×10⁻⁸</text>
    <text x="208.97" y="215.73" text-anchor="end" dy="0.35em">5.565068000000007×10⁻⁸</text>
  </g>
  <g font-size="3.88" font-family="'PT Sans','Helvetica Neue','Helvetica',sans-serif" fill="#A1A1A1" stroke="#000000" stroke-opacity="0.000" id="img-7a9f37cf-13">
    <text x="162.22" y="250.65" text-anchor="end" dy="0.35em">y</text>
  </g>
  <g font-size="3.88" font-family="'PT Sans','Helvetica Neue','Helvetica',sans-serif" fill="#A1A1A1" stroke="#000000" stroke-opacity="0.000" id="img-7a9f37cf-14">
    <text x="254.88" y="208.2" text-anchor="middle" dy="0.6em">Moisture Removed by Dehumidification</text>
  </g>
</g>
<g stroke="#000000" stroke-opacity="0.000" fill="#222831" id="img-7a9f37cf-15">
  <rect x="0" y="203.2" width="152.4" height="101.6"/>
</g>
<g class="plotroot xscalable yscalable" id="img-7a9f37cf-16">
  <g font-size="3.88" font-family="'PT Sans','Helvetica Neue','Helvetica',sans-serif" fill="#A1A1A1" stroke="#000000" stroke-opacity="0.000" id="img-7a9f37cf-17">
    <text x="84.14" y="294.68" text-anchor="middle" dy="0.6em">x</text>
  </g>
  <g class="guide xlabels" font-size="2.82" font-family="'PT Sans Caption','Helvetica Neue','Helvetica',sans-serif" fill="#A1A1A1" id="img-7a9f37cf-18">
    <text x="22.88" y="288.57" text-anchor="middle" dy="0.6em">0</text>
    <text x="47.38" y="288.57" text-anchor="middle" dy="0.6em">5</text>
    <text x="71.89" y="288.57" text-anchor="middle" dy="0.6em">10</text>
    <text x="96.39" y="288.57" text-anchor="middle" dy="0.6em">15</text>
    <text x="120.9" y="288.57" text-anchor="middle" dy="0.6em">20</text>
    <text x="145.4" y="288.57" text-anchor="middle" dy="0.6em">25</text>
  </g>
<g clip-path="url(#img-7a9f37cf-19)">
  <g id="img-7a9f37cf-20">
    <g pointer-events="visible" opacity="1" fill="#222831" stroke="#000000" stroke-opacity="0.000" class="guide background" id="img-7a9f37cf-21">
      <rect x="20.88" y="214.43" width="126.52" height="73.13"/>
    </g>
    <g class="guide ygridlines xfixed" stroke-dasharray="0.5,0.5" stroke-width="0.2" stroke="#575757" id="img-7a9f37cf-22">
      <path fill="none" d="M20.88,285.57 L 147.4 285.57"/>
      <path fill="none" d="M20.88,268.28 L 147.4 268.28"/>
      <path fill="none" d="M20.88,251 L 147.4 251"/>
      <path fill="none" d="M20.88,233.72 L 147.4 233.72"/>
      <path fill="none" d="M20.88,216.43 L 147.4 216.43"/>
    </g>
    <g class="guide xgridlines yfixed" stroke-dasharray="0.5,0.5" stroke-width="0.2" stroke="#575757" id="img-7a9f37cf-23">
      <path fill="none" d="M22.88,214.43 L 22.88 287.57"/>
      <path fill="none" d="M47.38,214.43 L 47.38 287.57"/>
      <path fill="none" d="M71.89,214.43 L 71.89 287.57"/>
      <path fill="none" d="M96.39,214.43 L 96.39 287.57"/>
      <path fill="none" d="M120.9,214.43 L 120.9 287.57"/>
      <path fill="none" d="M145.4,214.43 L 145.4 287.57"/>
    </g>
    <g class="plotpanel" id="img-7a9f37cf-24">
      <g stroke-width="0.3" fill="#000000" fill-opacity="0.000" class="geometry" stroke-dasharray="none" stroke="#FE4365" id="img-7a9f37cf-25">
        <path fill="none" d="M22.88,276.92 L 27.78 273.11 32.68 269.35 37.58 265.61 42.48 261.83 47.38 258 52.28 254.04 57.18 249.88 62.08 238.8 66.99 228.31 71.89 224.56 76.79 229.14 81.69 232.77 86.59 232.34 91.49 236.79 96.39 240.78 101.29 243.54 106.19 250.71 111.09 254.66 115.99 250.26 120.9 245.53 125.8 240.26 130.7 233.98 135.6 225.02"/>
      </g>
    </g>
  </g>
</g>
  <g class="guide ylabels" font-size="2.82" font-family="'PT Sans Caption','Helvetica Neue','Helvetica',sans-serif" fill="#A1A1A1" id="img-7a9f37cf-26">
    <text x="19.88" y="285.57" text-anchor="end" dy="0.35em">0.004</text>
    <text x="19.88" y="268.28" text-anchor="end" dy="0.35em">0.006</text>
    <text x="19.88" y="251" text-anchor="end" dy="0.35em">0.008</text>
    <text x="19.88" y="233.72" text-anchor="end" dy="0.35em">0.010</text>
    <text x="19.88" y="216.43" text-anchor="end" dy="0.35em">0.012</text>
  </g>
  <g font-size="3.88" font-family="'PT Sans','Helvetica Neue','Helvetica',sans-serif" fill="#A1A1A1" stroke="#000000" stroke-opacity="0.000" id="img-7a9f37cf-27">
    <text x="9.82" y="251" text-anchor="end" dy="0.35em">y</text>
  </g>
  <g font-size="3.88" font-family="'PT Sans','Helvetica Neue','Helvetica',sans-serif" fill="#A1A1A1" stroke="#000000" stroke-opacity="0.000" id="img-7a9f37cf-28">
    <text x="84.14" y="208.2" text-anchor="middle" dy="0.6em">Humidity Ratio (kg Water / kg dry air)</text>
  </g>
</g>
<g stroke="#000000" stroke-opacity="0.000" fill="#222831" id="img-7a9f37cf-29">
  <rect x="152.4" y="101.6" width="152.4" height="101.6"/>
</g>
<g class="plotroot xscalable yscalable" id="img-7a9f37cf-30">
  <g font-size="3.88" font-family="'PT Sans','Helvetica Neue','Helvetica',sans-serif" fill="#A1A1A1" stroke="#000000" stroke-opacity="0.000" id="img-7a9f37cf-31">
    <text x="238.66" y="193.08" text-anchor="middle" dy="0.6em">x</text>
  </g>
  <g class="guide xlabels" font-size="2.82" font-family="'PT Sans Caption','Helvetica Neue','Helvetica',sans-serif" fill="#A1A1A1" id="img-7a9f37cf-32">
    <text x="179.51" y="186.97" text-anchor="middle" dy="0.6em">0</text>
    <text x="203.17" y="186.97" text-anchor="middle" dy="0.6em">5</text>
    <text x="226.83" y="186.97" text-anchor="middle" dy="0.6em">10</text>
    <text x="250.48" y="186.97" text-anchor="middle" dy="0.6em">15</text>
    <text x="274.14" y="186.97" text-anchor="middle" dy="0.6em">20</text>
    <text x="297.8" y="186.97" text-anchor="middle" dy="0.6em">25</text>
  </g>
<g clip-path="url(#img-7a9f37cf-33)">
  <g id="img-7a9f37cf-34">
    <g pointer-events="visible" opacity="1" fill="#222831" stroke="#000000" stroke-opacity="0.000" class="guide background" id="img-7a9f37cf-35">
      <rect x="177.51" y="112.13" width="122.29" height="73.84"/>
    </g>
    <g class="guide ygridlines xfixed" stroke-dasharray="0.5,0.5" stroke-width="0.2" stroke="#575757" id="img-7a9f37cf-36">
      <path fill="none" d="M177.51,183.97 L 299.8 183.97"/>
      <path fill="none" d="M177.51,170 L 299.8 170"/>
      <path fill="none" d="M177.51,156.03 L 299.8 156.03"/>
      <path fill="none" d="M177.51,142.06 L 299.8 142.06"/>
      <path fill="none" d="M177.51,128.1 L 299.8 128.1"/>
      <path fill="none" d="M177.51,114.13 L 299.8 114.13"/>
    </g>
    <g class="guide xgridlines yfixed" stroke-dasharray="0.5,0.5" stroke-width="0.2" stroke="#575757" id="img-7a9f37cf-37">
      <path fill="none" d="M179.51,112.13 L 179.51 185.97"/>
      <path fill="none" d="M203.17,112.13 L 203.17 185.97"/>
      <path fill="none" d="M226.83,112.13 L 226.83 185.97"/>
      <path fill="none" d="M250.48,112.13 L 250.48 185.97"/>
      <path fill="none" d="M274.14,112.13 L 274.14 185.97"/>
      <path fill="none" d="M297.8,112.13 L 297.8 185.97"/>
    </g>
    <g class="plotpanel" id="img-7a9f37cf-38">
      <g stroke-width="0.3" fill="#000000" fill-opacity="0.000" class="geometry" stroke-dasharray="none" stroke="#FE4365" id="img-7a9f37cf-39">
        <path fill="none" d="M184.24,183.97 L 188.97 157.65 193.71 181.47 198.44 182.11 203.17 182.36 207.9 182.46 212.63 182.48 217.36 182.43 222.1 181.14 226.83 159.76 231.56 158.89 236.29 156.57 241.02 153.2 245.75 155.03 250.48 162.85 255.22 162.25 259.95 153.52 264.68 144.37 269.41 118.32 274.14 183.97 278.87 183.97 283.61 183.97 288.34 183.97 293.07 183.97"/>
      </g>
    </g>
  </g>
</g>
  <g class="guide ylabels" font-size="2.82" font-family="'PT Sans Caption','Helvetica Neue','Helvetica',sans-serif" fill="#A1A1A1" id="img-7a9f37cf-40">
    <text x="176.51" y="183.97" text-anchor="end" dy="0.35em">0</text>
    <text x="176.51" y="170" text-anchor="end" dy="0.35em">1.0×10⁴</text>
    <text x="176.51" y="156.03" text-anchor="end" dy="0.35em">2.0×10⁴</text>
    <text x="176.51" y="142.06" text-anchor="end" dy="0.35em">3.0×10⁴</text>
    <text x="176.51" y="128.1" text-anchor="end" dy="0.35em">4.0×10⁴</text>
    <text x="176.51" y="114.13" text-anchor="end" dy="0.35em">5.0×10⁴</text>
  </g>
  <g font-size="3.88" font-family="'PT Sans','Helvetica Neue','Helvetica',sans-serif" fill="#A1A1A1" stroke="#000000" stroke-opacity="0.000" id="img-7a9f37cf-41">
    <text x="162.22" y="149.05" text-anchor="end" dy="0.35em">y</text>
  </g>
  <g font-size="3.88" font-family="'PT Sans','Helvetica Neue','Helvetica',sans-serif" fill="#A1A1A1" stroke="#000000" stroke-opacity="0.000" id="img-7a9f37cf-42">
    <text x="238.66" y="106.6" text-anchor="middle" dy="0.6em">PM2.5 Removed by Filters</text>
  </g>
</g>
<g stroke="#000000" stroke-opacity="0.000" fill="#222831" id="img-7a9f37cf-43">
  <rect x="0" y="101.6" width="152.4" height="101.6"/>
</g>
<g class="plotroot xscalable yscalable" id="img-7a9f37cf-44">
  <g font-size="3.88" font-family="'PT Sans','Helvetica Neue','Helvetica',sans-serif" fill="#A1A1A1" stroke="#000000" stroke-opacity="0.000" id="img-7a9f37cf-45">
    <text x="82.55" y="193.08" text-anchor="middle" dy="0.6em">x</text>
  </g>
  <g class="guide xlabels" font-size="2.82" font-family="'PT Sans Caption','Helvetica Neue','Helvetica',sans-serif" fill="#A1A1A1" id="img-7a9f37cf-46">
    <text x="19.7" y="186.97" text-anchor="middle" dy="0.6em">0</text>
    <text x="44.84" y="186.97" text-anchor="middle" dy="0.6em">5</text>
    <text x="69.98" y="186.97" text-anchor="middle" dy="0.6em">10</text>
    <text x="95.12" y="186.97" text-anchor="middle" dy="0.6em">15</text>
    <text x="120.26" y="186.97" text-anchor="middle" dy="0.6em">20</text>
    <text x="145.4" y="186.97" text-anchor="middle" dy="0.6em">25</text>
  </g>
<g clip-path="url(#img-7a9f37cf-47)">
  <g id="img-7a9f37cf-48">
    <g pointer-events="visible" opacity="1" fill="#222831" stroke="#000000" stroke-opacity="0.000" class="guide background" id="img-7a9f37cf-49">
      <rect x="17.7" y="112.83" width="129.7" height="73.13"/>
    </g>
    <g class="guide ygridlines xfixed" stroke-dasharray="0.5,0.5" stroke-width="0.2" stroke="#575757" id="img-7a9f37cf-50">
      <path fill="none" d="M17.7,183.97 L 147.4 183.97"/>
      <path fill="none" d="M17.7,170.14 L 147.4 170.14"/>
      <path fill="none" d="M17.7,156.31 L 147.4 156.31"/>
      <path fill="none" d="M17.7,142.49 L 147.4 142.49"/>
      <path fill="none" d="M17.7,128.66 L 147.4 128.66"/>
      <path fill="none" d="M17.7,114.83 L 147.4 114.83"/>
    </g>
    <g class="guide xgridlines yfixed" stroke-dasharray="0.5,0.5" stroke-width="0.2" stroke="#575757" id="img-7a9f37cf-51">
      <path fill="none" d="M19.7,112.83 L 19.7 185.97"/>
      <path fill="none" d="M44.84,112.83 L 44.84 185.97"/>
      <path fill="none" d="M69.98,112.83 L 69.98 185.97"/>
      <path fill="none" d="M95.12,112.83 L 95.12 185.97"/>
      <path fill="none" d="M120.26,112.83 L 120.26 185.97"/>
      <path fill="none" d="M145.4,112.83 L 145.4 185.97"/>
    </g>
    <g class="plotpanel" id="img-7a9f37cf-52">
      <g stroke-width="0.3" fill="#000000" fill-opacity="0.000" class="geometry" stroke-dasharray="none" stroke="#FE4365" id="img-7a9f37cf-53">
        <path fill="none" d="M19.7,128.66 L 24.73 166.46 29.76 170.04 34.79 172.71 39.81 175.02 44.84 177.18 49.87 179.3 54.9 181.51 59.93 178.74 64.95 174.75 69.98 164.25 75.01 163.53 80.04 163.96 85.07 166.85 90.09 163.23 95.12 163.23 100.15 163.23 105.18 163.23 110.2 163.23 115.23 163.23 120.26 163.23 125.29 163.23 130.32 163.23 135.34 163.23"/>
      </g>
    </g>
  </g>
</g>
  <g class="guide ylabels" font-size="2.82" font-family="'PT Sans Caption','Helvetica Neue','Helvetica',sans-serif" fill="#A1A1A1" id="img-7a9f37cf-54">
    <text x="16.7" y="183.97" text-anchor="end" dy="0.35em">20</text>
    <text x="16.7" y="170.14" text-anchor="end" dy="0.35em">30</text>
    <text x="16.7" y="156.31" text-anchor="end" dy="0.35em">40</text>
    <text x="16.7" y="142.49" text-anchor="end" dy="0.35em">50</text>
    <text x="16.7" y="128.66" text-anchor="end" dy="0.35em">60</text>
    <text x="16.7" y="114.83" text-anchor="end" dy="0.35em">70</text>
  </g>
  <g font-size="3.88" font-family="'PT Sans','Helvetica Neue','Helvetica',sans-serif" fill="#A1A1A1" stroke="#000000" stroke-opacity="0.000" id="img-7a9f37cf-55">
    <text x="9.82" y="149.4" text-anchor="end" dy="0.35em">y</text>
  </g>
  <g font-size="3.88" font-family="'PT Sans','Helvetica Neue','Helvetica',sans-serif" fill="#A1A1A1" stroke="#000000" stroke-opacity="0.000" id="img-7a9f37cf-56">
    <text x="82.55" y="106.6" text-anchor="middle" dy="0.6em">PM2.5 Concentration (µg)</text>
  </g>
</g>
<g stroke="#000000" stroke-opacity="0.000" fill="#222831" id="img-7a9f37cf-57">
  <rect x="152.4" y="0" width="152.4" height="101.6"/>
</g>
<g class="plotroot xscalable yscalable" id="img-7a9f37cf-58">
  <g font-size="3.88" font-family="'PT Sans','Helvetica Neue','Helvetica',sans-serif" fill="#A1A1A1" stroke="#000000" stroke-opacity="0.000" id="img-7a9f37cf-59">
    <text x="236.19" y="91.48" text-anchor="middle" dy="0.6em">x</text>
  </g>
  <g class="guide xlabels" font-size="2.82" font-family="'PT Sans Caption','Helvetica Neue','Helvetica',sans-serif" fill="#A1A1A1" id="img-7a9f37cf-60">
    <text x="174.57" y="85.37" text-anchor="middle" dy="0.6em">0</text>
    <text x="199.22" y="85.37" text-anchor="middle" dy="0.6em">5</text>
    <text x="223.86" y="85.37" text-anchor="middle" dy="0.6em">10</text>
    <text x="248.51" y="85.37" text-anchor="middle" dy="0.6em">15</text>
    <text x="273.15" y="85.37" text-anchor="middle" dy="0.6em">20</text>
    <text x="297.8" y="85.37" text-anchor="middle" dy="0.6em">25</text>
  </g>
<g clip-path="url(#img-7a9f37cf-61)">
  <g id="img-7a9f37cf-62">
    <g pointer-events="visible" opacity="1" fill="#222831" stroke="#000000" stroke-opacity="0.000" class="guide background" id="img-7a9f37cf-63">
      <rect x="172.57" y="11.23" width="127.23" height="73.13"/>
    </g>
    <g class="guide ygridlines xfixed" stroke-dasharray="0.5,0.5" stroke-width="0.2" stroke="#575757" id="img-7a9f37cf-64">
      <path fill="none" d="M172.57,82.37 L 299.8 82.37"/>
      <path fill="none" d="M172.57,70.84 L 299.8 70.84"/>
      <path fill="none" d="M172.57,59.32 L 299.8 59.32"/>
      <path fill="none" d="M172.57,47.8 L 299.8 47.8"/>
      <path fill="none" d="M172.57,36.28 L 299.8 36.28"/>
      <path fill="none" d="M172.57,24.76 L 299.8 24.76"/>
      <path fill="none" d="M172.57,13.23 L 299.8 13.23"/>
    </g>
    <g class="guide xgridlines yfixed" stroke-dasharray="0.5,0.5" stroke-width="0.2" stroke="#575757" id="img-7a9f37cf-65">
      <path fill="none" d="M174.57,11.23 L 174.57 84.37"/>
      <path fill="none" d="M199.22,11.23 L 199.22 84.37"/>
      <path fill="none" d="M223.86,11.23 L 223.86 84.37"/>
      <path fill="none" d="M248.51,11.23 L 248.51 84.37"/>
      <path fill="none" d="M273.15,11.23 L 273.15 84.37"/>
      <path fill="none" d="M297.8,11.23 L 297.8 84.37"/>
    </g>
    <g class="plotpanel" id="img-7a9f37cf-66">
      <g stroke-width="0.3" fill="#000000" fill-opacity="0.000" class="geometry" stroke-dasharray="none" stroke="#FE4365" id="img-7a9f37cf-67">
        <path fill="none" d="M174.57,82.37 L 179.5 82.37 184.43 82.37 189.36 82.37 194.29 82.37 199.22 82.37 204.15 82.37 209.08 82.37 214.01 58.89 218.93 34.82 223.86 18.15 228.79 16.81 233.72 16.9 238.65 16.73 243.58 13.23 248.51 13.23 253.44 13.23 258.37 13.23 263.3 13.23 268.23 13.23 273.15 13.23 278.08 13.23 283.01 13.23 287.94 13.23"/>
      </g>
    </g>
  </g>
</g>
  <g class="guide ylabels" font-size="2.82" font-family="'PT Sans Caption','Helvetica Neue','Helvetica',sans-serif" fill="#A1A1A1" id="img-7a9f37cf-68">
    <text x="171.57" y="82.37" text-anchor="end" dy="0.35em">400</text>
    <text x="171.57" y="70.84" text-anchor="end" dy="0.35em">500</text>
    <text x="171.57" y="59.32" text-anchor="end" dy="0.35em">600</text>
    <text x="171.57" y="47.8" text-anchor="end" dy="0.35em">700</text>
    <text x="171.57" y="36.28" text-anchor="end" dy="0.35em">800</text>
    <text x="171.57" y="24.76" text-anchor="end" dy="0.35em">900</text>
    <text x="171.57" y="13.23" text-anchor="end" dy="0.35em">1000</text>
  </g>
  <g font-size="3.88" font-family="'PT Sans','Helvetica Neue','Helvetica',sans-serif" fill="#A1A1A1" stroke="#000000" stroke-opacity="0.000" id="img-7a9f37cf-69">
    <text x="162.22" y="47.8" text-anchor="end" dy="0.35em">y</text>
  </g>
  <g font-size="3.88" font-family="'PT Sans','Helvetica Neue','Helvetica',sans-serif" fill="#A1A1A1" stroke="#000000" stroke-opacity="0.000" id="img-7a9f37cf-70">
    <text x="236.19" y="5" text-anchor="middle" dy="0.6em">CO2 Concentration inside room (ppm)</text>
  </g>
</g>
<g stroke="#000000" stroke-opacity="0.000" fill="#222831" id="img-7a9f37cf-71">
  <rect x="0" y="0" width="152.4" height="101.6"/>
</g>
<g class="plotroot xscalable yscalable" id="img-7a9f37cf-72">
  <g font-size="3.88" font-family="'PT Sans','Helvetica Neue','Helvetica',sans-serif" fill="#A1A1A1" stroke="#000000" stroke-opacity="0.000" id="img-7a9f37cf-73">
    <text x="83.79" y="91.48" text-anchor="middle" dy="0.6em">x</text>
  </g>
  <g class="guide xlabels" font-size="2.82" font-family="'PT Sans Caption','Helvetica Neue','Helvetica',sans-serif" fill="#A1A1A1" id="img-7a9f37cf-74">
    <text x="22.17" y="85.37" text-anchor="middle" dy="0.6em">0</text>
    <text x="46.82" y="85.37" text-anchor="middle" dy="0.6em">5</text>
    <text x="71.46" y="85.37" text-anchor="middle" dy="0.6em">10</text>
    <text x="96.11" y="85.37" text-anchor="middle" dy="0.6em">15</text>
    <text x="120.75" y="85.37" text-anchor="middle" dy="0.6em">20</text>
    <text x="145.4" y="85.37" text-anchor="middle" dy="0.6em">25</text>
  </g>
<g clip-path="url(#img-7a9f37cf-75)">
  <g id="img-7a9f37cf-76">
    <g pointer-events="visible" opacity="1" fill="#222831" stroke="#000000" stroke-opacity="0.000" class="guide background" id="img-7a9f37cf-77">
      <rect x="20.17" y="10.53" width="127.23" height="73.84"/>
    </g>
    <g class="guide ygridlines xfixed" stroke-dasharray="0.5,0.5" stroke-width="0.2" stroke="#575757" id="img-7a9f37cf-78">
      <path fill="none" d="M20.17,82.37 L 147.4 82.37"/>
      <path fill="none" d="M20.17,64.91 L 147.4 64.91"/>
      <path fill="none" d="M20.17,47.45 L 147.4 47.45"/>
      <path fill="none" d="M20.17,29.99 L 147.4 29.99"/>
      <path fill="none" d="M20.17,12.53 L 147.4 12.53"/>
    </g>
    <g class="guide xgridlines yfixed" stroke-dasharray="0.5,0.5" stroke-width="0.2" stroke="#575757" id="img-7a9f37cf-79">
      <path fill="none" d="M22.17,10.53 L 22.17 84.37"/>
      <path fill="none" d="M46.82,10.53 L 46.82 84.37"/>
      <path fill="none" d="M71.46,10.53 L 71.46 84.37"/>
      <path fill="none" d="M96.11,10.53 L 96.11 84.37"/>
      <path fill="none" d="M120.75,10.53 L 120.75 84.37"/>
      <path fill="none" d="M145.4,10.53 L 145.4 84.37"/>
    </g>
    <g class="plotpanel" id="img-7a9f37cf-80">
      <g stroke-width="0.3" fill="#000000" fill-opacity="0.000" class="geometry" stroke-dasharray="none" stroke="#FE4365" id="img-7a9f37cf-81">
        <path fill="none" d="M27.1,82.37 L 32.03 82.37 36.96 82.37 41.89 82.37 46.82 82.37 51.75 82.37 56.68 82.37 61.61 82.37 66.53 78.12 71.46 64.13 76.39 43.81 81.32 18.96 86.25 23.78 91.18 48.71 96.11 23.26 101.04 22.04 105.97 23.82 110.9 27.36 115.83 38.01 120.75 82.37 125.68 82.37 130.61 82.37 135.54 82.37 140.47 82.37"/>
      </g>
    </g>
  </g>
</g>
  <g class="guide ylabels" font-size="2.82" font-family="'PT Sans Caption','Helvetica Neue','Helvetica',sans-serif" fill="#A1A1A1" id="img-7a9f37cf-82">
    <text x="19.17" y="82.37" text-anchor="end" dy="0.35em">0</text>
    <text x="19.17" y="64.91" text-anchor="end" dy="0.35em">500</text>
    <text x="19.17" y="47.45" text-anchor="end" dy="0.35em">1000</text>
    <text x="19.17" y="29.99" text-anchor="end" dy="0.35em">1500</text>
    <text x="19.17" y="12.53" text-anchor="end" dy="0.35em">2000</text>
  </g>
  <g font-size="3.88" font-family="'PT Sans','Helvetica Neue','Helvetica',sans-serif" fill="#A1A1A1" stroke="#000000" stroke-opacity="0.000" id="img-7a9f37cf-83">
    <text x="9.82" y="47.45" text-anchor="end" dy="0.35em">y</text>
  </g>
  <g font-size="3.88" font-family="'PT Sans','Helvetica Neue','Helvetica',sans-serif" fill="#A1A1A1" stroke="#000000" stroke-opacity="0.000" id="img-7a9f37cf-84">
    <text x="83.79" y="5" text-anchor="middle" dy="0.6em">CMH at timestep x</text>
  </g>
</g>
<defs>
  <clipPath id="img-7a9f37cf-5">
  <path d="M209.97,213.73 L 299.8 213.73 299.8 287.57 209.97 287.57" />
</clipPath>
  <clipPath id="img-7a9f37cf-19">
  <path d="M20.88,214.43 L 147.4 214.43 147.4 287.57 20.88 287.57" />
</clipPath>
  <clipPath id="img-7a9f37cf-33">
  <path d="M177.51,112.13 L 299.8 112.13 299.8 185.97 177.51 185.97" />
</clipPath>
  <clipPath id="img-7a9f37cf-47">
  <path d="M17.7,112.83 L 147.4 112.83 147.4 185.97 17.7 185.97" />
</clipPath>
  <clipPath id="img-7a9f37cf-61">
  <path d="M172.57,11.23 L 299.8 11.23 299.8 84.37 172.57 84.37" />
</clipPath>
  <clipPath id="img-7a9f37cf-75">
  <path d="M20.17,10.53 L 147.4 10.53 147.4 84.37 20.17 84.37" />
</clipPath>
</defs>
</svg>
