<?xml version="1.0" encoding="UTF-8"?>
<svg xmlns="http://www.w3.org/2000/svg"
     xmlns:xlink="http://www.w3.org/1999/xlink"
     xmlns:gadfly="http://www.gadflyjl.org/ns"
     version="1.2"
     width="304.8mm" height="304.8mm" viewBox="0 0 304.8 304.8"
     stroke="none"
     fill="#000000"
     stroke-width="0.3"
     font-size="3.88"
>
<g stroke="#000000" stroke-opacity="0.000" fill="#222831" id="img-8f20a09f-1">
  <rect x="152.4" y="203.2" width="152.4" height="101.6"/>
</g>
<g class="plotroot xscalable yscalable" id="img-8f20a09f-2">
  <g font-size="3.88" font-family="'PT Sans','Helvetica Neue','Helvetica',sans-serif" fill="#A1A1A1" stroke="#000000" stroke-opacity="0.000" id="img-8f20a09f-3">
    <text x="234.18" y="293.19" text-anchor="middle" dy="0.6em">x</text>
  </g>
  <g class="guide xlabels" font-size="2.82" font-family="'PT Sans Caption','Helvetica Neue','Helvetica',sans-serif" fill="#A1A1A1" id="img-8f20a09f-4">
    <text x="170.55" y="286.51" text-anchor="middle" dy="0.6em">0</text>
    <text x="196" y="286.51" text-anchor="middle" dy="0.6em">5</text>
    <text x="221.45" y="286.51" text-anchor="middle" dy="0.6em">10</text>
    <text x="246.9" y="286.51" text-anchor="middle" dy="0.6em">15</text>
    <text x="272.35" y="286.51" text-anchor="middle" dy="0.6em">20</text>
    <text x="297.8" y="286.51" text-anchor="middle" dy="0.6em">25</text>
  </g>
<g clip-path="url(#img-8f20a09f-5)">
  <g id="img-8f20a09f-6">
    <g pointer-events="visible" opacity="1" fill="#222831" stroke="#000000" stroke-opacity="0.000" class="guide background" id="img-8f20a09f-7">
      <rect x="168.55" y="213.81" width="131.25" height="71.7"/>
    </g>
    <g class="guide ygridlines xfixed" stroke-dasharray="0.5,0.5" stroke-width="0.2" stroke="#575757" id="img-8f20a09f-8">
      <path fill="none" d="M168.55,283.51 L 299.8 283.51"/>
      <path fill="none" d="M168.55,260.95 L 299.8 260.95"/>
      <path fill="none" d="M168.55,238.38 L 299.8 238.38"/>
      <path fill="none" d="M168.55,215.81 L 299.8 215.81"/>
    </g>
    <g class="guide xgridlines yfixed" stroke-dasharray="0.5,0.5" stroke-width="0.2" stroke="#575757" id="img-8f20a09f-9">
      <path fill="none" d="M170.55,213.81 L 170.55 285.51"/>
      <path fill="none" d="M196,213.81 L 196 285.51"/>
      <path fill="none" d="M221.45,213.81 L 221.45 285.51"/>
      <path fill="none" d="M246.9,213.81 L 246.9 285.51"/>
      <path fill="none" d="M272.35,213.81 L 272.35 285.51"/>
      <path fill="none" d="M297.8,213.81 L 297.8 285.51"/>
    </g>
    <g class="plotpanel" id="img-8f20a09f-10">
      <g stroke-width="0.3" fill="#000000" fill-opacity="0.000" class="geometry" stroke-dasharray="none" stroke="#FE4365" id="img-8f20a09f-11">
        <path fill="none" d="M175.64,283.51 L 180.73 283.51 185.82 283.51 190.91 283.51 196 283.51 201.09 283.51 206.18 283.51 211.27 283.51 216.36 265.74 221.45 237.81 226.54 224.51 231.63 225.88 236.72 248.48 241.81 270.47 246.9 268.12 251.99 273.03 257.08 271.39 262.17 277.08 267.26 273.85 272.35 283.51 277.44 283.51 282.53 283.51 287.62 283.51 292.71 283.51"/>
      </g>
    </g>
  </g>
</g>
  <g class="guide ylabels" font-size="2.82" font-family="'PT Sans Caption','Helvetica Neue','Helvetica',sans-serif" fill="#A1A1A1" id="img-8f20a09f-12">
    <text x="167.55" y="283.51" text-anchor="end" dy="0.35em">0</text>
    <text x="167.55" y="260.95" text-anchor="end" dy="0.35em">5</text>
    <text x="167.55" y="238.38" text-anchor="end" dy="0.35em">10</text>
    <text x="167.55" y="215.81" text-anchor="end" dy="0.35em">15</text>
  </g>
  <g font-size="3.88" font-family="'PT Sans','Helvetica Neue','Helvetica',sans-serif" fill="#A1A1A1" stroke="#000000" stroke-opacity="0.000" id="img-8f20a09f-13">
    <text x="161.21" y="249.66" text-anchor="end" dy="0.35em">y</text>
  </g>
  <g font-size="3.88" font-family="'PT Sans','Helvetica Neue','Helvetica',sans-serif" fill="#A1A1A1" stroke="#000000" stroke-opacity="0.000" id="img-8f20a09f-14">
    <text x="234.18" y="208.2" text-anchor="middle" dy="0.6em">Moisture Removed by Dehumidification</text>
  </g>
</g>
<g stroke="#000000" stroke-opacity="0.000" fill="#222831" id="img-8f20a09f-15">
  <rect x="0" y="203.2" width="152.4" height="101.6"/>
</g>
<g class="plotroot xscalable yscalable" id="img-8f20a09f-16">
  <g font-size="3.88" font-family="'PT Sans','Helvetica Neue','Helvetica',sans-serif" fill="#A1A1A1" stroke="#000000" stroke-opacity="0.000" id="img-8f20a09f-17">
    <text x="82.95" y="293.19" text-anchor="middle" dy="0.6em">x</text>
  </g>
  <g class="guide xlabels" font-size="2.82" font-family="'PT Sans Caption','Helvetica Neue','Helvetica',sans-serif" fill="#A1A1A1" id="img-8f20a09f-18">
    <text x="20.5" y="286.51" text-anchor="middle" dy="0.6em">0</text>
    <text x="45.48" y="286.51" text-anchor="middle" dy="0.6em">5</text>
    <text x="70.46" y="286.51" text-anchor="middle" dy="0.6em">10</text>
    <text x="95.44" y="286.51" text-anchor="middle" dy="0.6em">15</text>
    <text x="120.42" y="286.51" text-anchor="middle" dy="0.6em">20</text>
    <text x="145.4" y="286.51" text-anchor="middle" dy="0.6em">25</text>
  </g>
<g clip-path="url(#img-8f20a09f-19)">
  <g id="img-8f20a09f-20">
    <g pointer-events="visible" opacity="1" fill="#222831" stroke="#000000" stroke-opacity="0.000" class="guide background" id="img-8f20a09f-21">
      <rect x="18.5" y="213.81" width="128.9" height="71.7"/>
    </g>
    <g class="guide ygridlines xfixed" stroke-dasharray="0.5,0.5" stroke-width="0.2" stroke="#575757" id="img-8f20a09f-22">
      <path fill="none" d="M18.5,283.51 L 147.4 283.51"/>
      <path fill="none" d="M18.5,266.59 L 147.4 266.59"/>
      <path fill="none" d="M18.5,249.66 L 147.4 249.66"/>
      <path fill="none" d="M18.5,232.74 L 147.4 232.74"/>
      <path fill="none" d="M18.5,215.81 L 147.4 215.81"/>
    </g>
    <g class="guide xgridlines yfixed" stroke-dasharray="0.5,0.5" stroke-width="0.2" stroke="#575757" id="img-8f20a09f-23">
      <path fill="none" d="M20.5,213.81 L 20.5 285.51"/>
      <path fill="none" d="M45.48,213.81 L 45.48 285.51"/>
      <path fill="none" d="M70.46,213.81 L 70.46 285.51"/>
      <path fill="none" d="M95.44,213.81 L 95.44 285.51"/>
      <path fill="none" d="M120.42,213.81 L 120.42 285.51"/>
      <path fill="none" d="M145.4,213.81 L 145.4 285.51"/>
    </g>
    <g class="plotpanel" id="img-8f20a09f-24">
      <g stroke-width="0.3" fill="#000000" fill-opacity="0.000" class="geometry" stroke-dasharray="none" stroke="#FE4365" id="img-8f20a09f-25">
        <path fill="none" d="M20.5,232.74 L 25.5 283.51 30.49 283.51 35.49 283.51 40.48 283.51 45.48 283.51 50.48 283.51 55.47 283.51 60.47 283.51 65.46 283.51 70.46 283.51 75.46 283.51 80.45 283.51 85.45 283.51 90.44 283.51 95.44 283.51 100.44 283.51 105.43 283.51 110.43 283.51 115.42 283.51 120.42 283.51 125.42 283.51 130.41 283.51 135.41 283.51"/>
      </g>
    </g>
  </g>
</g>
  <g class="guide ylabels" font-size="2.82" font-family="'PT Sans Caption','Helvetica Neue','Helvetica',sans-serif" fill="#A1A1A1" id="img-8f20a09f-26">
    <text x="17.5" y="283.51" text-anchor="end" dy="0.35em">0.00</text>
    <text x="17.5" y="266.59" text-anchor="end" dy="0.35em">0.05</text>
    <text x="17.5" y="249.66" text-anchor="end" dy="0.35em">0.10</text>
    <text x="17.5" y="232.74" text-anchor="end" dy="0.35em">0.15</text>
    <text x="17.5" y="215.81" text-anchor="end" dy="0.35em">0.20</text>
  </g>
  <g font-size="3.88" font-family="'PT Sans','Helvetica Neue','Helvetica',sans-serif" fill="#A1A1A1" stroke="#000000" stroke-opacity="0.000" id="img-8f20a09f-27">
    <text x="8.81" y="249.66" text-anchor="end" dy="0.35em">y</text>
  </g>
  <g font-size="3.88" font-family="'PT Sans','Helvetica Neue','Helvetica',sans-serif" fill="#A1A1A1" stroke="#000000" stroke-opacity="0.000" id="img-8f20a09f-28">
    <text x="82.95" y="208.2" text-anchor="middle" dy="0.6em">Humidity Ratio (kg Water / kg dry air)</text>
  </g>
</g>
<g stroke="#000000" stroke-opacity="0.000" fill="#222831" id="img-8f20a09f-29">
  <rect x="152.4" y="101.6" width="152.4" height="101.6"/>
</g>
<g class="plotroot xscalable yscalable" id="img-8f20a09f-30">
  <g font-size="3.88" font-family="'PT Sans','Helvetica Neue','Helvetica',sans-serif" fill="#A1A1A1" stroke="#000000" stroke-opacity="0.000" id="img-8f20a09f-31">
    <text x="238.56" y="191.59" text-anchor="middle" dy="0.6em">x</text>
  </g>
  <g class="guide xlabels" font-size="2.82" font-family="'PT Sans Caption','Helvetica Neue','Helvetica',sans-serif" fill="#A1A1A1" id="img-8f20a09f-32">
    <text x="179.32" y="184.91" text-anchor="middle" dy="0.6em">0</text>
    <text x="203.02" y="184.91" text-anchor="middle" dy="0.6em">5</text>
    <text x="226.71" y="184.91" text-anchor="middle" dy="0.6em">10</text>
    <text x="250.41" y="184.91" text-anchor="middle" dy="0.6em">15</text>
    <text x="274.1" y="184.91" text-anchor="middle" dy="0.6em">20</text>
    <text x="297.8" y="184.91" text-anchor="middle" dy="0.6em">25</text>
  </g>
<g clip-path="url(#img-8f20a09f-33)">
  <g id="img-8f20a09f-34">
    <g pointer-events="visible" opacity="1" fill="#222831" stroke="#000000" stroke-opacity="0.000" class="guide background" id="img-8f20a09f-35">
      <rect x="177.32" y="112.21" width="122.48" height="71.7"/>
    </g>
    <g class="guide ygridlines xfixed" stroke-dasharray="0.5,0.5" stroke-width="0.2" stroke="#575757" id="img-8f20a09f-36">
      <path fill="none" d="M177.32,181.91 L 299.8 181.91"/>
      <path fill="none" d="M177.32,164.99 L 299.8 164.99"/>
      <path fill="none" d="M177.32,148.06 L 299.8 148.06"/>
      <path fill="none" d="M177.32,131.14 L 299.8 131.14"/>
      <path fill="none" d="M177.32,114.21 L 299.8 114.21"/>
    </g>
    <g class="guide xgridlines yfixed" stroke-dasharray="0.5,0.5" stroke-width="0.2" stroke="#575757" id="img-8f20a09f-37">
      <path fill="none" d="M179.32,112.21 L 179.32 183.91"/>
      <path fill="none" d="M203.02,112.21 L 203.02 183.91"/>
      <path fill="none" d="M226.71,112.21 L 226.71 183.91"/>
      <path fill="none" d="M250.41,112.21 L 250.41 183.91"/>
      <path fill="none" d="M274.1,112.21 L 274.1 183.91"/>
      <path fill="none" d="M297.8,112.21 L 297.8 183.91"/>
    </g>
    <g class="plotpanel" id="img-8f20a09f-38">
      <g stroke-width="0.3" fill="#000000" fill-opacity="0.000" class="geometry" stroke-dasharray="none" stroke="#FE4365" id="img-8f20a09f-39">
        <path fill="none" d="M184.06,181.91 L 188.8 135.18 193.54 181.91 198.28 181.91 203.02 181.91 207.75 181.91 212.49 181.91 217.23 181.91 221.97 175.79 226.71 146.38 231.45 144.67 236.19 152.87 240.93 146.75 245.67 153.55 250.41 158.04 255.15 159.37 259.89 149.7 264.63 141.7 269.36 116.78 274.1 181.91 278.84 181.91 283.58 181.91 288.32 181.91 293.06 181.91"/>
      </g>
    </g>
  </g>
</g>
  <g class="guide ylabels" font-size="2.82" font-family="'PT Sans Caption','Helvetica Neue','Helvetica',sans-serif" fill="#A1A1A1" id="img-8f20a09f-40">
    <text x="176.32" y="181.91" text-anchor="end" dy="0.35em">0</text>
    <text x="176.32" y="164.99" text-anchor="end" dy="0.35em">2.0×10⁴</text>
    <text x="176.32" y="148.06" text-anchor="end" dy="0.35em">4.0×10⁴</text>
    <text x="176.32" y="131.14" text-anchor="end" dy="0.35em">6.0×10⁴</text>
    <text x="176.32" y="114.21" text-anchor="end" dy="0.35em">8.0×10⁴</text>
  </g>
  <g font-size="3.88" font-family="'PT Sans','Helvetica Neue','Helvetica',sans-serif" fill="#A1A1A1" stroke="#000000" stroke-opacity="0.000" id="img-8f20a09f-41">
    <text x="161.21" y="148.06" text-anchor="end" dy="0.35em">y</text>
  </g>
  <g font-size="3.88" font-family="'PT Sans','Helvetica Neue','Helvetica',sans-serif" fill="#A1A1A1" stroke="#000000" stroke-opacity="0.000" id="img-8f20a09f-42">
    <text x="238.56" y="106.6" text-anchor="middle" dy="0.6em">PM2.5 Removed by Filters</text>
  </g>
</g>
<g stroke="#000000" stroke-opacity="0.000" fill="#222831" id="img-8f20a09f-43">
  <rect x="0" y="101.6" width="152.4" height="101.6"/>
</g>
<g class="plotroot xscalable yscalable" id="img-8f20a09f-44">
  <g font-size="3.88" font-family="'PT Sans','Helvetica Neue','Helvetica',sans-serif" fill="#A1A1A1" stroke="#000000" stroke-opacity="0.000" id="img-8f20a09f-45">
    <text x="83.45" y="191.59" text-anchor="middle" dy="0.6em">x</text>
  </g>
  <g class="guide xlabels" font-size="2.82" font-family="'PT Sans Caption','Helvetica Neue','Helvetica',sans-serif" fill="#A1A1A1" id="img-8f20a09f-46">
    <text x="21.5" y="184.91" text-anchor="middle" dy="0.6em">0</text>
    <text x="46.28" y="184.91" text-anchor="middle" dy="0.6em">5</text>
    <text x="71.06" y="184.91" text-anchor="middle" dy="0.6em">10</text>
    <text x="95.84" y="184.91" text-anchor="middle" dy="0.6em">15</text>
    <text x="120.62" y="184.91" text-anchor="middle" dy="0.6em">20</text>
    <text x="145.4" y="184.91" text-anchor="middle" dy="0.6em">25</text>
  </g>
<g clip-path="url(#img-8f20a09f-47)">
  <g id="img-8f20a09f-48">
    <g pointer-events="visible" opacity="1" fill="#222831" stroke="#000000" stroke-opacity="0.000" class="guide background" id="img-8f20a09f-49">
      <rect x="19.5" y="112.21" width="127.9" height="71.7"/>
    </g>
    <g class="guide ygridlines xfixed" stroke-dasharray="0.5,0.5" stroke-width="0.2" stroke="#575757" id="img-8f20a09f-50">
      <path fill="none" d="M19.5,181.91 L 147.4 181.91"/>
      <path fill="none" d="M19.5,164.99 L 147.4 164.99"/>
      <path fill="none" d="M19.5,148.06 L 147.4 148.06"/>
      <path fill="none" d="M19.5,131.14 L 147.4 131.14"/>
      <path fill="none" d="M19.5,114.21 L 147.4 114.21"/>
    </g>
    <g class="guide xgridlines yfixed" stroke-dasharray="0.5,0.5" stroke-width="0.2" stroke="#575757" id="img-8f20a09f-51">
      <path fill="none" d="M21.5,112.21 L 21.5 183.91"/>
      <path fill="none" d="M46.28,112.21 L 46.28 183.91"/>
      <path fill="none" d="M71.06,112.21 L 71.06 183.91"/>
      <path fill="none" d="M95.84,112.21 L 95.84 183.91"/>
      <path fill="none" d="M120.62,112.21 L 120.62 183.91"/>
      <path fill="none" d="M145.4,112.21 L 145.4 183.91"/>
    </g>
    <g class="plotpanel" id="img-8f20a09f-52">
      <g stroke-width="0.3" fill="#000000" fill-opacity="0.000" class="geometry" stroke-dasharray="none" stroke="#FE4365" id="img-8f20a09f-53">
        <path fill="none" d="M21.5,120.98 L 26.46 161.77 31.41 161.77 36.37 161.77 41.32 161.77 46.28 161.77 51.24 161.77 56.19 161.77 61.15 157.03 66.1 148.74 71.06 147.56 76.02 147.56 80.97 150.77 85.93 149.58 90.88 147.56 95.84 147.56 100.8 146.37 105.75 146.37 110.71 146.37 115.66 146.37 120.62 146.37 125.58 146.37 130.53 146.37 135.49 146.37"/>
      </g>
    </g>
  </g>
</g>
  <g class="guide ylabels" font-size="2.82" font-family="'PT Sans Caption','Helvetica Neue','Helvetica',sans-serif" fill="#A1A1A1" id="img-8f20a09f-54">
    <text x="18.5" y="181.91" text-anchor="end" dy="0.35em">0</text>
    <text x="18.5" y="164.99" text-anchor="end" dy="0.35em">500</text>
    <text x="18.5" y="148.06" text-anchor="end" dy="0.35em">1000</text>
    <text x="18.5" y="131.14" text-anchor="end" dy="0.35em">1500</text>
    <text x="18.5" y="114.21" text-anchor="end" dy="0.35em">2000</text>
  </g>
  <g font-size="3.88" font-family="'PT Sans','Helvetica Neue','Helvetica',sans-serif" fill="#A1A1A1" stroke="#000000" stroke-opacity="0.000" id="img-8f20a09f-55">
    <text x="8.81" y="148.06" text-anchor="end" dy="0.35em">y</text>
  </g>
  <g font-size="3.88" font-family="'PT Sans','Helvetica Neue','Helvetica',sans-serif" fill="#A1A1A1" stroke="#000000" stroke-opacity="0.000" id="img-8f20a09f-56">
    <text x="83.45" y="106.6" text-anchor="middle" dy="0.6em">PM2.5 Concentration (µg)</text>
  </g>
</g>
<g stroke="#000000" stroke-opacity="0.000" fill="#222831" id="img-8f20a09f-57">
  <rect x="152.4" y="0" width="152.4" height="101.6"/>
</g>
<g class="plotroot xscalable yscalable" id="img-8f20a09f-58">
  <g font-size="3.88" font-family="'PT Sans','Helvetica Neue','Helvetica',sans-serif" fill="#A1A1A1" stroke="#000000" stroke-opacity="0.000" id="img-8f20a09f-59">
    <text x="238.56" y="89.99" text-anchor="middle" dy="0.6em">x</text>
  </g>
  <g class="guide xlabels" font-size="2.82" font-family="'PT Sans Caption','Helvetica Neue','Helvetica',sans-serif" fill="#A1A1A1" id="img-8f20a09f-60">
    <text x="179.32" y="83.31" text-anchor="middle" dy="0.6em">0</text>
    <text x="203.02" y="83.31" text-anchor="middle" dy="0.6em">5</text>
    <text x="226.71" y="83.31" text-anchor="middle" dy="0.6em">10</text>
    <text x="250.41" y="83.31" text-anchor="middle" dy="0.6em">15</text>
    <text x="274.1" y="83.31" text-anchor="middle" dy="0.6em">20</text>
    <text x="297.8" y="83.31" text-anchor="middle" dy="0.6em">25</text>
  </g>
<g clip-path="url(#img-8f20a09f-61)">
  <g id="img-8f20a09f-62">
    <g pointer-events="visible" opacity="1" fill="#222831" stroke="#000000" stroke-opacity="0.000" class="guide background" id="img-8f20a09f-63">
      <rect x="177.32" y="10.61" width="122.48" height="71.7"/>
    </g>
    <g class="guide ygridlines xfixed" stroke-dasharray="0.5,0.5" stroke-width="0.2" stroke="#575757" id="img-8f20a09f-64">
      <path fill="none" d="M177.32,80.32 L 299.8 80.32"/>
      <path fill="none" d="M177.32,69.03 L 299.8 69.03"/>
      <path fill="none" d="M177.32,57.75 L 299.8 57.75"/>
      <path fill="none" d="M177.32,46.46 L 299.8 46.46"/>
      <path fill="none" d="M177.32,35.18 L 299.8 35.18"/>
      <path fill="none" d="M177.32,23.9 L 299.8 23.9"/>
      <path fill="none" d="M177.32,12.61 L 299.8 12.61"/>
    </g>
    <g class="guide xgridlines yfixed" stroke-dasharray="0.5,0.5" stroke-width="0.2" stroke="#575757" id="img-8f20a09f-65">
      <path fill="none" d="M179.32,10.61 L 179.32 82.31"/>
      <path fill="none" d="M203.02,10.61 L 203.02 82.31"/>
      <path fill="none" d="M226.71,10.61 L 226.71 82.31"/>
      <path fill="none" d="M250.41,10.61 L 250.41 82.31"/>
      <path fill="none" d="M274.1,10.61 L 274.1 82.31"/>
      <path fill="none" d="M297.8,10.61 L 297.8 82.31"/>
    </g>
    <g class="plotpanel" id="img-8f20a09f-66">
      <g stroke-width="0.3" fill="#000000" fill-opacity="0.000" class="geometry" stroke-dasharray="none" stroke="#FE4365" id="img-8f20a09f-67">
        <path fill="none" d="M179.32,80.32 L 184.06 80.32 188.8 80.32 193.54 80.32 198.28 80.32 203.02 80.32 207.75 80.32 212.49 80.32 217.23 68.29 221.97 42.65 226.71 29.69 231.45 27.07 236.19 24.26 240.93 23.56 245.67 19.93 250.41 18.76 255.15 17.99 259.89 17.9 264.63 17.87 269.36 17.87 274.1 17.87 278.84 17.87 283.58 17.87 288.32 17.87"/>
      </g>
    </g>
  </g>
</g>
  <g class="guide ylabels" font-size="2.82" font-family="'PT Sans Caption','Helvetica Neue','Helvetica',sans-serif" fill="#A1A1A1" id="img-8f20a09f-68">
    <text x="176.32" y="80.32" text-anchor="end" dy="0.35em">1.2×10⁴</text>
    <text x="176.32" y="69.03" text-anchor="end" dy="0.35em">1.3×10⁴</text>
    <text x="176.32" y="57.75" text-anchor="end" dy="0.35em">1.4×10⁴</text>
    <text x="176.32" y="46.46" text-anchor="end" dy="0.35em">1.5×10⁴</text>
    <text x="176.32" y="35.18" text-anchor="end" dy="0.35em">1.6×10⁴</text>
    <text x="176.32" y="23.9" text-anchor="end" dy="0.35em">1.7×10⁴</text>
    <text x="176.32" y="12.61" text-anchor="end" dy="0.35em">1.8×10⁴</text>
  </g>
  <g font-size="3.88" font-family="'PT Sans','Helvetica Neue','Helvetica',sans-serif" fill="#A1A1A1" stroke="#000000" stroke-opacity="0.000" id="img-8f20a09f-69">
    <text x="161.21" y="46.46" text-anchor="end" dy="0.35em">y</text>
  </g>
  <g font-size="3.88" font-family="'PT Sans','Helvetica Neue','Helvetica',sans-serif" fill="#A1A1A1" stroke="#000000" stroke-opacity="0.000" id="img-8f20a09f-70">
    <text x="238.56" y="5" text-anchor="middle" dy="0.6em">CO2 Concentration inside room (ppm)</text>
  </g>
</g>
<g stroke="#000000" stroke-opacity="0.000" fill="#222831" id="img-8f20a09f-71">
  <rect x="0" y="0" width="152.4" height="101.6"/>
</g>
<g class="plotroot xscalable yscalable" id="img-8f20a09f-72">
  <g font-size="3.88" font-family="'PT Sans','Helvetica Neue','Helvetica',sans-serif" fill="#A1A1A1" stroke="#000000" stroke-opacity="0.000" id="img-8f20a09f-73">
    <text x="84.99" y="89.99" text-anchor="middle" dy="0.6em">x</text>
  </g>
  <g class="guide xlabels" font-size="2.82" font-family="'PT Sans Caption','Helvetica Neue','Helvetica',sans-serif" fill="#A1A1A1" id="img-8f20a09f-74">
    <text x="24.57" y="83.31" text-anchor="middle" dy="0.6em">0</text>
    <text x="48.74" y="83.31" text-anchor="middle" dy="0.6em">5</text>
    <text x="72.9" y="83.31" text-anchor="middle" dy="0.6em">10</text>
    <text x="97.07" y="83.31" text-anchor="middle" dy="0.6em">15</text>
    <text x="121.23" y="83.31" text-anchor="middle" dy="0.6em">20</text>
    <text x="145.4" y="83.31" text-anchor="middle" dy="0.6em">25</text>
  </g>
<g clip-path="url(#img-8f20a09f-75)">
  <g id="img-8f20a09f-76">
    <g pointer-events="visible" opacity="1" fill="#222831" stroke="#000000" stroke-opacity="0.000" class="guide background" id="img-8f20a09f-77">
      <rect x="22.57" y="10.61" width="124.83" height="71.7"/>
    </g>
    <g class="guide ygridlines xfixed" stroke-dasharray="0.5,0.5" stroke-width="0.2" stroke="#575757" id="img-8f20a09f-78">
      <path fill="none" d="M22.57,80.31 L 147.4 80.31"/>
      <path fill="none" d="M22.57,63.39 L 147.4 63.39"/>
      <path fill="none" d="M22.57,46.46 L 147.4 46.46"/>
      <path fill="none" d="M22.57,29.54 L 147.4 29.54"/>
      <path fill="none" d="M22.57,12.61 L 147.4 12.61"/>
    </g>
    <g class="guide xgridlines yfixed" stroke-dasharray="0.5,0.5" stroke-width="0.2" stroke="#575757" id="img-8f20a09f-79">
      <path fill="none" d="M24.57,10.61 L 24.57 82.31"/>
      <path fill="none" d="M48.74,10.61 L 48.74 82.31"/>
      <path fill="none" d="M72.9,10.61 L 72.9 82.31"/>
      <path fill="none" d="M97.07,10.61 L 97.07 82.31"/>
      <path fill="none" d="M121.23,10.61 L 121.23 82.31"/>
      <path fill="none" d="M145.4,10.61 L 145.4 82.31"/>
    </g>
    <g class="plotpanel" id="img-8f20a09f-80">
      <g stroke-width="0.3" fill="#000000" fill-opacity="0.000" class="geometry" stroke-dasharray="none" stroke="#FE4365" id="img-8f20a09f-81">
        <path fill="none" d="M29.41,80.31 L 34.24 80.31 39.07 80.31 43.9 80.31 48.74 80.31 53.57 80.31 58.4 80.31 63.24 80.31 68.07 70.84 72.9 55.94 77.74 43.76 82.57 27.51 87.4 30.21 92.24 50.53 97.07 30.21 101.9 30.21 106.74 30.21 111.57 35.63 116.4 45.11 121.23 80.31 126.07 80.31 130.9 80.31 135.73 80.31 140.57 80.31"/>
      </g>
    </g>
  </g>
</g>
  <g class="guide ylabels" font-size="2.82" font-family="'PT Sans Caption','Helvetica Neue','Helvetica',sans-serif" fill="#A1A1A1" id="img-8f20a09f-82">
    <text x="21.57" y="80.31" text-anchor="end" dy="0.35em">0</text>
    <text x="21.57" y="63.39" text-anchor="end" dy="0.35em">1×10³</text>
    <text x="21.57" y="46.46" text-anchor="end" dy="0.35em">2×10³</text>
    <text x="21.57" y="29.54" text-anchor="end" dy="0.35em">3×10³</text>
    <text x="21.57" y="12.61" text-anchor="end" dy="0.35em">4×10³</text>
  </g>
  <g font-size="3.88" font-family="'PT Sans','Helvetica Neue','Helvetica',sans-serif" fill="#A1A1A1" stroke="#000000" stroke-opacity="0.000" id="img-8f20a09f-83">
    <text x="8.81" y="46.46" text-anchor="end" dy="0.35em">y</text>
  </g>
  <g font-size="3.88" font-family="'PT Sans','Helvetica Neue','Helvetica',sans-serif" fill="#A1A1A1" stroke="#000000" stroke-opacity="0.000" id="img-8f20a09f-84">
    <text x="84.99" y="5" text-anchor="middle" dy="0.6em">CMH at timestep x</text>
  </g>
</g>
<defs>
  <clipPath id="img-8f20a09f-5">
  <path d="M168.55,213.81 L 299.8 213.81 299.8 285.51 168.55 285.51" />
</clipPath>
  <clipPath id="img-8f20a09f-19">
  <path d="M18.5,213.81 L 147.4 213.81 147.4 285.51 18.5 285.51" />
</clipPath>
  <clipPath id="img-8f20a09f-33">
  <path d="M177.32,112.21 L 299.8 112.21 299.8 183.91 177.32 183.91" />
</clipPath>
  <clipPath id="img-8f20a09f-47">
  <path d="M19.5,112.21 L 147.4 112.21 147.4 183.91 19.5 183.91" />
</clipPath>
  <clipPath id="img-8f20a09f-61">
  <path d="M177.32,10.61 L 299.8 10.61 299.8 82.31 177.32 82.31" />
</clipPath>
  <clipPath id="img-8f20a09f-75">
  <path d="M22.57,10.61 L 147.4 10.61 147.4 82.31 22.57 82.31" />
</clipPath>
</defs>
</svg>
