<?xml version="1.0" encoding="UTF-8"?>
<svg xmlns="http://www.w3.org/2000/svg"
     xmlns:xlink="http://www.w3.org/1999/xlink"
     xmlns:gadfly="http://www.gadflyjl.org/ns"
     version="1.2"
     width="101.6mm" height="101.6mm" viewBox="0 0 101.6 101.6"
     stroke="none"
     fill="#000000"
     stroke-width="0.3"
     font-size="3.88"
>
<g stroke="#000000" stroke-opacity="0.000" fill="#222831" id="img-e96cd792-1">
  <rect x="0" y="0" width="101.6" height="101.6"/>
</g>
<g class="plotroot xscalable yscalable" id="img-e96cd792-2">
  <g font-size="3.88" font-family="'PT Sans','Helvetica Neue','Helvetica',sans-serif" fill="#A1A1A1" stroke="#000000" stroke-opacity="0.000" id="img-e96cd792-3">
    <text x="58.12" y="89.99" text-anchor="middle" dy="0.6em">Capital Costs (RMB)</text>
  </g>
  <g class="guide xlabels" font-size="2.82" font-family="'PT Sans Caption','Helvetica Neue','Helvetica',sans-serif" fill="#A1A1A1" id="img-e96cd792-4">
    <text x="21.63" y="83.32" text-anchor="middle" dy="0.6em">0</text>
    <text x="36.23" y="83.32" text-anchor="middle" dy="0.6em">1.0×10⁵</text>
    <text x="50.82" y="83.32" text-anchor="middle" dy="0.6em">2.0×10⁵</text>
    <text x="65.41" y="83.32" text-anchor="middle" dy="0.6em">3.0×10⁵</text>
    <text x="80.01" y="83.32" text-anchor="middle" dy="0.6em">4.0×10⁵</text>
    <text x="94.6" y="83.32" text-anchor="middle" dy="0.6em">5.0×10⁵</text>
  </g>
<g clip-path="url(#img-e96cd792-5)">
  <g id="img-e96cd792-6">
    <g pointer-events="visible" opacity="1" fill="#222831" stroke="#000000" stroke-opacity="0.000" class="guide background" id="img-e96cd792-7">
      <rect x="19.63" y="14.22" width="76.97" height="68.09"/>
    </g>
    <g class="guide ygridlines xfixed" stroke-dasharray="0.5,0.5" stroke-width="0.2" stroke="#575757" id="img-e96cd792-8">
      <path fill="none" d="M19.63,80.32 L 96.6 80.32"/>
      <path fill="none" d="M19.63,67.5 L 96.6 67.5"/>
      <path fill="none" d="M19.63,54.68 L 96.6 54.68"/>
      <path fill="none" d="M19.63,41.86 L 96.6 41.86"/>
      <path fill="none" d="M19.63,29.04 L 96.6 29.04"/>
      <path fill="none" d="M19.63,16.22 L 96.6 16.22"/>
    </g>
    <g class="guide xgridlines yfixed" stroke-dasharray="0.5,0.5" stroke-width="0.2" stroke="#575757" id="img-e96cd792-9">
      <path fill="none" d="M21.63,14.22 L 21.63 82.32"/>
      <path fill="none" d="M36.23,14.22 L 36.23 82.32"/>
      <path fill="none" d="M50.82,14.22 L 50.82 82.32"/>
      <path fill="none" d="M65.41,14.22 L 65.41 82.32"/>
      <path fill="none" d="M80.01,14.22 L 80.01 82.32"/>
      <path fill="none" d="M94.6,14.22 L 94.6 82.32"/>
    </g>
    <g class="plotpanel" id="img-e96cd792-10">
      <g stroke-width="0.3" fill="#000000" fill-opacity="0.000" class="geometry" stroke-dasharray="none" stroke="#FE4365" id="img-e96cd792-11">
        <path fill="none" d="M28.93,21.72 L 36.23 27.22 43.52 35.46 50.82 40.96 58.12 46.45 65.41 51.95 72.71 57.44 80.01 60.19 87.3 65.68 94.6 68.43"/>
      </g>
    </g>
  </g>
</g>
  <g class="guide ylabels" font-size="2.82" font-family="'PT Sans Caption','Helvetica Neue','Helvetica',sans-serif" fill="#A1A1A1" id="img-e96cd792-12">
    <text x="18.63" y="80.32" text-anchor="end" dy="0.35em">90</text>
    <text x="18.63" y="67.5" text-anchor="end" dy="0.35em">100</text>
    <text x="18.63" y="54.68" text-anchor="end" dy="0.35em">110</text>
    <text x="18.63" y="41.86" text-anchor="end" dy="0.35em">120</text>
    <text x="18.63" y="29.04" text-anchor="end" dy="0.35em">130</text>
    <text x="18.63" y="16.22" text-anchor="end" dy="0.35em">140</text>
  </g>
  <g font-size="3.88" font-family="'PT Sans','Helvetica Neue','Helvetica',sans-serif" fill="#A1A1A1" stroke="#000000" stroke-opacity="0.000" id="img-e96cd792-13">
    <text x="8.81" y="46.27" text-anchor="middle" dy="0.35em" transform="rotate(-90, 8.81, 48.27)">Operating Costs (RMB)</text>
  </g>
  <g font-size="3.88" font-family="'PT Sans','Helvetica Neue','Helvetica',sans-serif" fill="#A1A1A1" stroke="#000000" stroke-opacity="0.000" id="img-e96cd792-14">
    <text x="58.12" y="5" text-anchor="middle" dy="0.6em">Figure 3: Relationship between<tspan x="58.12" dy="1.2em">Operation Costs and Capital Costs</tspan></text>
  </g>
</g>
<defs>
  <clipPath id="img-e96cd792-5">
  <path d="M19.63,14.22 L 96.6 14.22 96.6 82.32 19.63 82.32" />
</clipPath>
</defs>
</svg>
